<svg xmlns="http://www.w3.org/2000/svg" version="1.1" xmlns:xlink="http://www.w3.org/1999/xlink" width="484.02" height="1010.99"><svg xmlns="http://www.w3.org/2000/svg" version="1.1" xmlns:xlink="http://www.w3.org/1999/xlink" width="484.02" height="1010.99"><svg id="Layer_1" xmlns="http://www.w3.org/2000/svg" width="484.02" height="1010.99" viewBox="0 0 484.02 1010.99"><g id="Outline"><path id="Outline-2" d="M101.63,724.69c-16.17,10.95-27.64,26.08-36.51,42.76-11.47,21.38-18.77,43.81-21.38,67.8-1.04,11.47-.52,22.95,2.61,34.42,2.61,10.43,7.3,19.3,15.65,26.08,10.43,8.34,22.42,10.43,35.46,6.78,6.78-2.09,13.04-5.22,18.25-9.39,2.61-2.09,5.74-3.65,9.39-5.22,11.47-4.69,20.34-11.99,27.64-21.38,10.95-13.04,18.25-27.64,23.99-43.29,6.26-17.73,10.43-35.98,10.43-55.28,0-6.26,0-12.52-1.04-18.77,0-1.04,0-1.56,1.04-1.56,23.99-2.61,46.41-9.91,66.75-22.95q1.04-.52,1.56.52c8.34,19.3,20.34,35.46,34.94,50.59,16.17,17.21,34.42,31.81,54.76,43.29,11.47,6.26,22.95,11.47,35.98,13.56,7.82,1.56,15.12,1.56,22.42-1.04,8.87-2.61,15.12-7.82,19.3-16.17.52-1.04,1.04-1.56,1.56-2.09,3.13-2.09,5.74-4.69,7.3-7.3,3.13-5.22,5.74-10.95,6.78-17.21,1.04-8.87.52-17.21-2.09-25.55-5.22-17.21-14.08-31.81-25.55-45.37-18.25-20.86-39.63-38.07-64.67-50.59-10.43-5.22-21.38-9.39-33.38-11.99-1.04,0-1.56-.52-1.04-1.56,7.3-17.73,10.95-36.51,9.91-55.8,0-1.56-1.04-3.13,0-4.17.52-.52,2.61,0,4.17,0,12.52,1.04,24.51-.52,36.51-3.65,20.86-5.22,39.63-14.08,57.37-26.6,9.39-6.78,17.73-14.6,23.99-24.51,4.69-7.82,7.82-16.17,6.78-25.55,0-.52,0-1.04,1.04-1.04h.52c4.17,1.56,7.82-.52,11.47-2.61s5.22-6.26,3.13-9.91c-2.09-4.17-4.17-8.87-6.26-13.04-2.09-4.17-5.74-5.74-10.43-4.17,0,0-.52,0-.52.52-4.69,1.56-7.3,4.69-8.87,8.87-.52,1.56-1.04,1.56-2.61.52-7.82-5.74-16.69-7.82-26.08-8.34-17.73-1.04-34.42,2.61-51.11,8.34-9.39,3.13-18.25,7.3-26.6,11.99-.52-2.09-.52-4.17-1.04-6.78-5.22-26.08-17.21-47.98-38.07-65.19-8.34-6.78-18.25-11.99-29.2-12.52-9.91-.52-18.25,2.09-25.03,8.87-.52.52-1.04,1.04-2.09,1.04-15.12-1.04-27.64,6.78-33.9,20.86-4.17,9.91-5.22,19.82-4.17,30.25,3.13,28.68,15.12,53.19,36.51,72.49,5.22,4.69,10.95,8.34,16.69,10.95,1.04.52,1.56.52.52,1.56-10.43,15.12-15.65,32.33-17.73,50.59-1.56,13.56-1.04,27.12,2.09,40.16.52,1.56,0,1.56-1.04,1.04-7.82-1.04-15.65-1.04-22.95-.52-23.99,2.09-46.41,8.34-66.75,20.34-3.13,2.09-6.26,4.17-9.39,6.26q-1.04.52-1.56-.52c-5.22-17.73-16.17-32.33-29.2-45.37-9.39-9.39-19.82-17.21-31.81-22.42-8.34-3.65-17.21-6.26-26.6-5.74-3.65,0-6.78,1.04-10.43,2.09-1.04.52-1.56.52-2.09-.52-4.69-4.17-9.39-7.82-13.56-11.99-5.74-5.22-11.99-4.69-17.21,1.04-2.61,2.61-4.69,5.22-4.69,8.87,0,3.13,1.04,6.26,3.13,8.34,5.22,4.69,10.95,9.91,16.69,14.6.52.52,1.04,1.04,1.04,2.09-1.56,9.91.52,19.3,4.69,28.68,6.78,15.65,17.73,28.16,31.29,39.11,10.95,9.39,23.47,16.69,37.03,20.86,1.56.52,3.65,1.04,6.26,1.56M256.52,710.6c-1.56-6.26-2.09-13.04-1.04-19.3,1.04-4.69,3.65-8.87,7.3-11.47,5.74-4.69,12.52-5.22,19.82-5.22,9.91,0,19.3,3.13,28.16,6.26,11.47,4.17,22.42,9.91,32.85,16.69,6.78,4.69,13.56,9.39,19.82,14.6,8.34,6.78,16.69,14.08,23.99,21.9,5.74,5.74,10.95,11.99,15.65,18.77,4.69,6.78,9.39,14.08,12.52,21.9,3.65,8.87,6.26,18.25,5.22,28.16-1.56,11.99-8.34,20.34-19.82,23.47-6.78,1.56-14.08,1.04-20.86,0-11.99-2.61-22.95-7.3-33.38-13.04-5.22-3.13-9.91-6.26-14.6-9.39-5.22-3.65-9.91-7.3-15.12-10.95-4.69-3.65-9.39-7.82-13.56-11.99-6.78-6.26-13.04-13.04-18.77-19.82-6.26-7.82-12.52-15.65-17.21-24.51-4.69-8.34-8.34-17.21-10.95-26.08ZM51.04,867.06c-1.04-4.17-1.56-7.3-2.09-10.95-.52-6.26-.52-12.52,0-18.25.52-8.34,2.09-16.17,3.65-24.51,1.56-6.26,3.65-13.04,5.74-19.3,3.13-8.34,6.78-16.17,10.95-23.99,4.69-8.34,9.91-16.17,15.65-23.47,5.74-6.78,11.99-12.52,18.77-17.21,3.13-2.09,5.74-4.17,9.39-4.17,4.17,0,7.82-1.04,11.47-2.61,1.04-.52,1.56-1.04,2.61-1.04,4.17,0,8.34,1.56,11.99,3.65,5.22,3.13,9.39,7.82,11.99,13.56,3.13,6.26,5.22,12.52,6.26,19.3s1.56,14.08,1.56,20.86c0,10.43-1.04,20.34-3.13,30.25-1.56,7.3-3.65,14.08-5.74,20.86-4.17,11.99-8.87,23.47-16.17,33.9-5.74,8.87-12.52,17.21-21.38,23.47-7.3,5.22-14.6,9.39-23.99,10.43-13.04,1.56-22.95-3.13-30.77-13.56-3.13-5.21-5.74-11.47-6.78-17.21ZM352.99,587.01c-3.13.52-5.22,1.04-7.82,1.04-10.95,1.04-22.42,1.04-32.85-3.13-10.43-4.17-17.73-10.95-19.3-22.95,0-1.04,0-1.56.52-2.09,2.09-2.61,4.17-4.69,6.26-7.3,3.65-5.74,5.22-11.99,6.26-18.77,0-1.56.52-2.61,1.56-3.65,1.56-1.56,3.65-3.65,5.74-5.22,5.22-4.69,10.95-8.34,16.69-11.99,5.74-3.65,11.99-6.78,18.25-9.39,6.78-3.13,13.56-6.26,20.86-8.34,5.74-1.56,11.47-3.65,17.73-4.69,5.74-1.04,10.95-1.56,16.69-1.56,8.34,0,16.69.52,24.51,3.65,5.74,2.09,10.43,5.22,14.08,10.43,5.74,7.82,5.74,16.69,2.61,25.03-3.65,9.91-10.95,17.73-18.77,25.03-8.87,7.82-19.3,14.08-29.73,19.3-5.74,2.61-11.47,5.22-17.21,7.3-9.39,3.13-18.25,5.74-26.08,7.3ZM207.49,493.14c-1.04-3.65-1.56-9.91-2.09-15.65-.52-8.34.52-16.69,4.17-24.51,3.13-7.3,7.82-13.04,15.12-15.65,7.82-3.13,15.65-2.09,22.95.52,9.39,3.65,17.21,9.39,24.51,16.69,8.34,8.87,15.12,18.77,19.82,30.25,3.13,7.3,5.74,14.6,7.3,22.42,1.04,6.78,2.09,13.56,1.56,20.34-.52,8.87-2.61,17.21-7.82,24.51-5.74,8.34-14.08,11.47-23.99,10.95-7.82-.52-14.6-3.65-20.86-7.3-7.82-4.69-14.08-10.95-19.82-18.25-9.39-12.52-16.17-26.6-20.86-44.33ZM45.31,616.21c2.61-1.04,6.26-1.04,9.39-.52,4.69.52,9.39,1.56,14.08,3.13,7.82,2.61,15.12,6.78,21.38,11.99,6.78,5.22,13.04,10.95,19.3,17.21,3.65,4.17,7.3,8.34,10.43,12.52,4.17,5.74,7.3,11.47,10.43,18.25,2.61,5.74,4.17,11.47,4.17,17.73,0,3.65,0,7.82-1.56,11.47-2.61,7.3-7.82,10.95-15.12,12.52-7.82,1.56-15.65,0-22.95-2.61-11.47-3.65-21.38-9.91-30.77-17.21-10.95-8.34-20.34-18.25-27.12-29.73-3.13-5.22-6.26-10.95-7.82-17.21-2.09-6.78-2.61-13.56-1.04-20.34,0-1.04,0-2.09-.52-2.61-6.26-5.22-11.99-10.43-18.25-15.65-2.61-2.09-2.61-5.74-.52-8.34,1.04-1.04,1.56-2.09,2.61-3.13,2.09-2.09,4.69-2.61,6.78-1.04,1.04.52,2.09,1.56,3.13,2.61,4.69,4.17,9.39,8.34,14.08,12.52,1.56,1.56,3.13,1.56,4.69.52,1.56-1.04,3.13-1.56,5.22-2.09ZM132.92,717.38c4.69-5.74,6.78-11.47,6.78-18.77,0-2.09-.52-4.17-.52-6.26,0-1.04,0-2.09,1.04-3.13,3.65-3.13,7.82-5.74,11.99-7.82,9.91-5.74,20.86-10.43,32.33-13.56,14.08-3.65,28.68-6.26,43.81-5.74,6.78.52,13.04,1.04,19.82,2.61,5.74,1.56,10.95,3.13,16.17,6.26,1.04.52,1.04,1.04,0,1.56-1.56,1.04-3.65,2.09-5.22,3.65-5.74,5.22-8.34,11.99-8.34,19.82-.52,7.3,1.56,14.08,3.13,20.86.52,1.56,0,2.09-1.04,2.61-7.82,5.74-16.69,9.91-26.08,13.56-9.39,3.65-18.77,5.74-28.16,7.82-11.47,2.09-23.47,3.13-35.46,2.09-3.13,0-4.69-1.56-5.74-4.17-3.65-7.82-8.87-14.08-16.17-18.25-3.13-1.56-5.74-2.09-8.34-3.13ZM243.48,652.2c-1.04-3.13-1.56-7.3-1.56-10.95-.52-7.3-.52-15.12,0-22.42.52-6.78,1.56-13.56,3.65-19.82,3.13-10.95,7.3-20.86,13.56-30.25,1.04-1.56,2.09-2.09,3.65-1.56,6.26,1.56,12.52,1.56,18.77-.52,1.56-.52,2.61-1.04,4.17-1.56,1.04-.52,2.09,0,2.09,1.04.52,3.13,2.09,5.74,3.65,8.34,2.09,3.65,4.69,6.78,7.82,9.39,4.69,3.65,9.39,6.26,15.12,7.3,1.56.52,2.09,1.04,2.09,2.61.52,4.69.52,9.91.52,14.6-.52,8.34-1.56,16.17-3.65,24.51-1.56,6.78-3.65,13.04-6.78,19.3-2.61,5.74-5.74,10.95-9.39,16.17-1.04,1.56-2.09,2.09-3.65,1.56-6.78-1.04-13.56-2.09-20.34-.52-1.56.52-3.13.52-4.69-1.04-1.56-1.56-3.13-2.09-5.22-3.13-5.22-3.13-10.95-4.69-17.21-6.26-1.04,0-1.56-1.04-2.09-1.56.52-1.56,0-3.13-.52-5.21ZM432.79,766.93c1.56,6.78,2.61,13.56,1.56,20.34-1.04,5.74-2.61,10.95-6.26,15.65-.52.52-.52,1.04-1.56,1.04-.52,0-.52-1.04-.52-1.56.52-8.34-1.04-16.17-3.65-23.99-4.69-12.52-11.47-23.99-19.82-34.94-7.82-9.91-16.17-18.77-25.55-27.12-11.99-10.95-25.03-20.34-39.11-28.68-6.78-3.65-13.56-7.3-20.34-9.91-4.69-2.09-9.39-3.65-14.08-5.22-1.04,0-2.09-.52-1.04-1.56,2.61-3.13,4.69-6.78,6.78-10.43.52-1.04,1.56-1.56,2.61-1.04,4.69,1.04,9.39,2.09,13.56,3.65,12.52,4.17,23.99,9.91,34.94,17.21,11.47,7.3,21.9,15.12,31.81,24.51,10.95,10.43,21.38,21.9,29.2,34.94,5.22,7.82,8.87,17.21,11.47,27.12ZM246.09,431.08q.52-.52.52-1.04c.52,0,.52-.52,1.04-.52,7.3-5.22,15.65-5.74,23.99-3.65s15.65,6.78,21.9,11.99c7.3,6.26,13.56,13.56,18.77,21.38,8.87,14.08,14.6,28.68,16.17,45.37,0,1.04,0,2.09-1.56,2.61-6.78,4.17-13.04,8.87-19.3,14.08-.52.52-1.04,1.04-1.56,1.04-.52-.52-.52-1.04-.52-1.56,0-5.74-1.04-11.47-2.09-16.69-1.04-4.69-2.61-9.39-4.17-14.08-1.56-4.69-3.65-8.87-5.74-13.56-4.69-8.87-9.91-17.21-16.69-24.51-5.22-5.74-11.47-10.95-18.25-15.12-3.13-2.09-7.3-3.65-12.52-5.74ZM131.35,878.01c5.74-7.82,10.95-15.65,15.12-23.99,5.22-10.95,9.39-21.9,12.52-33.38,2.61-9.91,4.69-19.82,5.22-30.25,1.04-9.91.52-19.3-.52-29.2-.52-3.65-1.56-7.3-2.61-10.95-.52-2.09,0-2.09,1.56-2.09,5.22.52,10.95.52,16.17.52,1.04,0,1.56.52,1.56,1.56,1.56,10.95,1.56,21.9,0,33.38-1.04,9.91-3.13,19.3-6.26,29.2-3.65,13.04-8.87,25.03-15.65,36.51-5.22,8.87-11.47,16.69-19.3,23.47-1.56,1.56-4.69,3.65-7.82,5.22ZM461.99,501.48c.52,2.09.52,2.61-1.04,3.65-2.61,1.56-4.69,3.13-7.82,2.09-.52,0-1.56-.52-2.61-.52s-1.56-.52-2.09-1.56c-1.04-2.61-2.61-5.22-4.69-7.3-.52-.52-.52-1.04,0-1.56,1.56-3.65,3.13-7.82,7.82-8.87,2.61-.52,3.13-.52,4.17,1.56,1.04,2.61,2.61,4.69,3.65,7.3,1.56,2.09,2.09,4.17,2.61,5.22Z" fill="#0a2240" fill-rule="evenodd" stroke="#0a2240" stroke-miterlimit="10" stroke-width="3"></path></g><g id="Shadow"><path id="Shadow-2" d="M259.12,1010.99c-44.85,0-89.18-1.56-134.03-6.78-23.99-2.61-47.98-5.74-70.92-13.56-4.69-1.56-9.91-3.65-14.08-6.78-5.74-4.17-5.74-8.87,0-13.04,5.74-4.69,13.04-6.78,19.82-8.87,23.99-6.78,48.5-10.43,73.53-12.52,42.76-4.69,86.05-6.26,129.33-5.74,52.67,0,105.87,2.09,158.02,10.43,17.21,2.61,34.94,5.74,51.63,12.52,3.13,1.56,6.26,3.13,8.87,5.74,3.65,3.65,3.65,7.3,0,10.95-4.69,4.17-9.91,6.26-15.65,8.34-22.95,7.82-46.94,10.95-70.4,13.56-45.37,4.17-90.74,5.74-136.11,5.74" fill="#0a2240" fill-rule="evenodd"></path></g><g id="Balloon_Dog"><path id="Tail" d="M45.31,616.21c-2.09.52-4.17,1.04-5.74,2.09-1.56,1.04-3.13,1.04-4.69-.52-4.69-4.17-9.39-8.34-14.08-12.52-1.04-1.04-2.09-1.56-3.13-2.61-2.61-1.56-4.69-1.56-6.78,1.04-1.04,1.04-1.56,2.09-2.61,3.13-2.61,2.61-2.09,5.74.52,8.34,6.26,5.22,11.99,10.43,18.25,15.65,1.04.52,1.04,1.56.52,2.61-1.56,6.78-1.04,13.56,1.04,20.34,1.56,6.26,4.69,11.47,7.82,17.21,7.3,11.47,16.69,21.38,27.12,29.73,9.39,7.3,19.3,13.04,30.77,17.21,7.3,2.61,15.12,3.65,22.95,2.61,7.3-1.56,12.52-5.22,15.12-12.52,1.56-3.65,1.56-7.3,1.56-11.47-.52-6.26-2.09-11.99-4.17-17.73-2.61-6.26-6.26-12.52-10.43-18.25-3.13-4.17-6.26-8.87-10.43-12.52-5.74-6.26-11.99-11.99-19.3-17.21-6.78-4.69-13.56-8.87-21.38-11.99-4.69-1.56-9.39-2.61-14.08-3.13-2.61-.52-5.74-.52-8.87.52" fill="#e6007e" fill-rule="evenodd"></path><path id="Back_Leg_b" d="M131.35,878.01c3.13-1.56,6.26-3.65,8.87-6.26,7.82-6.78,14.08-14.6,19.3-23.47,6.78-11.47,11.99-23.99,15.65-36.51,2.61-9.39,5.22-19.3,6.26-29.2,1.56-10.95,1.56-21.9,0-33.38,0-1.04-.52-1.56-1.56-1.56-5.22.52-10.95.52-16.17-.52q-2.09,0-1.56,2.09c1.04,3.65,2.09,7.3,2.61,10.95,1.56,9.91,1.56,19.3.52,29.2-1.04,10.43-2.61,20.34-5.22,30.25-3.13,11.47-7.3,22.95-12.52,33.38-5.22,9.39-10.43,17.73-16.17,25.03" fill="#b2116c" fill-rule="evenodd"></path><path id="Back_Leg" d="M51.04,867.06c1.04,5.74,3.65,11.99,7.82,17.21,7.82,10.43,17.73,15.12,30.77,13.56,8.87-1.04,16.69-5.22,23.99-10.43,8.34-6.78,15.65-14.6,21.38-23.47,6.78-10.43,11.99-21.9,16.17-33.9,2.09-6.78,4.17-13.56,5.74-20.86,2.09-9.91,3.13-19.82,3.13-30.25,0-6.78-.52-14.08-1.56-20.86s-3.13-13.04-6.26-19.3c-3.13-5.74-6.78-9.91-11.99-13.56-3.65-2.09-7.82-3.65-11.99-3.65-1.04,0-1.56.52-2.61,1.04-3.65,1.56-7.3,2.61-11.47,2.61-3.65,0-6.78,2.09-9.39,4.17-7.3,4.69-13.56,10.43-18.77,17.21-6.26,7.3-11.47,15.12-15.65,23.47-4.17,7.82-7.82,15.65-10.95,23.99-2.09,6.26-4.17,12.52-5.74,19.3-2.09,7.82-3.13,16.17-3.65,24.51-.52,6.26-.52,12.52,0,18.25-.52,3.65,0,6.78,1.04,10.95" fill="#e6007e" fill-rule="evenodd"></path><path id="Torso" d="M132.92,717.38c2.61,1.04,5.74,2.09,7.82,3.13,7.3,4.17,13.04,10.43,16.17,18.25,1.04,2.61,2.61,4.17,5.74,4.17,11.99,1.04,23.47,0,35.46-2.09,9.91-1.56,19.3-4.17,28.16-7.82s17.73-7.82,26.08-13.56c1.04-.52,1.04-1.04,1.04-2.61-2.09-6.78-3.65-13.56-3.13-20.86.52-7.82,2.61-14.6,8.34-19.82,1.56-1.56,3.13-2.61,5.22-3.65,1.04-.52,1.04-1.04,0-1.56-5.22-3.13-10.43-5.22-16.17-6.26-6.26-1.56-13.04-2.09-19.82-2.61-15.12-.52-29.2,2.09-43.81,5.74-11.47,3.13-21.9,7.3-32.33,13.56-4.17,2.61-7.82,5.22-11.99,7.82-1.04,1.04-1.04,2.09-1.04,3.13,0,2.09.52,4.17.52,6.26.52,6.78-1.56,13.04-6.26,18.77" fill="#e6007e" fill-rule="evenodd"></path><path id="Front_Leg_b" d="M432.79,766.93c-2.61-9.91-6.78-18.77-11.99-27.64-7.82-13.04-18.25-24.51-29.2-34.94-9.91-8.87-20.34-17.21-31.81-24.51-10.95-6.78-22.42-12.52-34.94-17.21-4.17-1.56-8.87-2.61-13.56-3.65-1.04,0-2.09,0-2.61,1.04-2.09,3.65-4.17,7.3-6.78,10.43-1.04,1.04,0,1.56,1.04,1.56,4.69,1.56,9.39,3.13,14.08,5.22,6.78,3.13,13.56,6.26,20.34,9.91,14.08,8.34,27.12,17.73,39.11,28.68,9.39,8.34,18.25,17.21,25.55,27.12,8.34,10.43,15.12,21.9,19.82,34.94,2.61,7.82,4.17,15.65,3.65,23.99,0,.52-.52,1.04.52,1.56.52,0,1.04-.52,1.56-1.04,3.65-4.69,5.22-9.91,6.26-15.65,1.56-6.78.52-13.56-1.04-19.82" fill="#b2116c" fill-rule="evenodd"></path><path id="Front_Leg" d="M256.52,710.6c2.61,9.39,6.26,17.73,10.95,26.08,4.69,8.87,10.95,16.69,17.21,24.51,5.74,6.78,11.99,13.56,18.77,19.82,4.17,4.17,8.87,8.34,13.56,11.99,4.69,4.17,9.91,7.82,15.12,10.95,4.69,3.13,9.91,6.26,14.6,9.39,10.43,5.74,21.38,10.95,33.38,13.04,6.78,1.56,14.08,2.09,20.86,0,11.99-3.13,18.77-10.95,19.82-23.47,1.04-9.91-1.56-19.3-5.22-28.16-3.13-7.82-7.3-15.12-12.52-21.9-4.69-6.78-9.91-13.04-15.65-18.77-7.3-7.82-15.65-15.12-23.99-21.9-6.26-5.22-13.04-9.91-19.82-14.6-10.43-6.78-21.38-12.52-32.85-16.69-8.87-3.65-18.25-6.26-28.16-6.26-6.78,0-14.08.52-19.82,5.22-3.65,3.13-6.26,6.78-7.3,11.47-1.04,6.26-.52,12.52,1.04,19.3" fill="#e6007e" fill-rule="evenodd"></path><path id="Neck" d="M243.48,652.2c.52,2.09,0,5.22,3.13,6.78s11.47,3.13,17.21,6.26c1.56,1.04,3.65,2.09,5.22,3.13,1.56,1.04,2.61,1.04,4.69,1.04,6.78-1.56,13.56-.52,20.34.52,2.09.52,3.13,0,3.65-1.56,3.65-5.22,6.78-10.43,9.39-16.17,3.13-6.26,5.22-12.52,6.78-19.3,2.09-7.82,3.13-16.17,3.65-24.51,0-4.69,0-9.91-.52-14.6,0-1.56-1.04-2.09-2.09-2.61-5.74-1.04-10.43-3.65-15.12-7.3-3.13-2.61-5.74-5.74-7.82-9.39-1.56-2.61-3.13-5.22-3.65-8.34,0-1.04-1.04-1.56-2.09-1.04-1.56.52-2.61,1.56-4.17,1.56-6.26,2.09-12.52,1.56-18.77.52-1.56-.52-2.61,0-3.65,1.56-6.26,9.39-10.95,19.3-13.56,30.25-1.56,6.78-2.61,13.56-3.65,19.82-1.04,10.43-1.04,23.47,1.04,33.38Z" fill="#e6007e" fill-rule="evenodd"></path><path id="Front_Ear_b" d="M246.09,431.08c4.69,1.56,9.39,3.65,13.56,6.26,6.78,4.17,12.52,9.39,18.25,15.12,6.78,7.3,11.99,15.65,16.69,24.51,2.09,4.17,4.17,8.87,5.74,13.56,1.56,4.69,3.13,9.39,4.17,14.08,1.04,5.74,2.09,10.95,2.09,16.69,0,.52,0,1.56.52,1.56.52.52,1.04-.52,1.56-1.04,5.74-5.22,12.52-9.91,19.3-14.08,1.04-.52,1.56-1.56,1.56-2.61-2.09-16.17-7.3-31.29-16.17-45.37-5.22-8.34-11.47-15.12-18.77-21.38-6.78-5.74-13.56-9.91-21.9-11.99-8.34-2.09-16.69-1.56-23.99,3.65-.52,0-.52.52-1.04.52-1.04,0-1.04.52-1.56.52" fill="#e6007e" fill-rule="evenodd"></path><path id="Front_Ear" d="M207.49,493.14c4.17,17.73,11.47,31.81,21.38,44.33,5.74,7.3,11.99,13.04,19.82,18.25,6.26,4.17,13.04,6.78,20.86,7.3,9.91.52,18.25-3.13,23.99-10.95,5.22-7.3,7.3-15.65,7.82-24.51.52-6.78,0-13.56-1.56-20.34-1.56-7.82-4.17-15.12-7.3-22.42-4.69-11.47-11.47-21.38-19.82-30.25-6.78-7.3-15.12-13.56-24.51-16.69-7.82-3.13-15.65-3.65-22.95-.52s-11.99,8.34-15.12,15.65c-3.13,7.82-4.17,16.17-4.17,24.51,0,5.74.52,11.99,1.56,15.65" fill="#e6007e" fill-rule="evenodd"></path><path id="Nose" d="M352.99,587.01c8.34-1.56,16.69-3.65,25.03-6.78,5.74-2.09,11.47-4.69,17.21-7.3,10.95-5.22,20.86-11.47,29.73-19.3,7.82-6.78,15.12-14.6,18.77-25.03,3.13-8.87,3.13-17.21-2.61-25.03-3.65-4.69-8.34-7.82-14.08-10.43-7.82-3.13-16.17-3.65-24.51-3.65-5.74,0-11.47,1.04-16.69,1.56-5.74,1.04-11.47,2.61-17.73,4.69-7.3,2.09-14.08,5.22-20.86,8.34-6.26,2.61-12.52,6.26-18.25,9.39-5.74,3.65-11.47,7.3-16.69,11.99-2.09,1.56-3.65,3.65-5.74,5.22-1.04,1.04-1.56,2.61-1.56,3.65-1.04,6.78-3.13,13.04-6.26,18.77-1.56,2.61-4.17,5.22-6.26,7.3-.52.52-1.04,1.04-.52,2.09,1.56,11.99,8.87,18.77,19.3,22.95s21.38,4.17,32.85,3.13c3.13-1.04,5.74-1.04,8.87-1.56" fill="#e6007e" fill-rule="evenodd"></path><path id="Nose_Tip" d="M461.47,501.48c-.52-1.04-1.56-3.13-2.09-4.69-1.04-2.61-2.61-4.69-3.65-7.3-1.04-2.09-2.09-2.61-4.17-1.56-4.69,1.04-6.26,5.22-7.82,8.87v1.56c2.09,2.09,3.13,4.69,4.69,7.3.52,1.04,1.04,1.56,2.09,1.56s1.56,0,2.61.52c3.13,1.04,5.22-.52,7.82-2.09,1.04-1.04,1.04-2.09.52-4.17" fill="#e6007e" fill-rule="evenodd"></path></g><g id="Balloon_String"><path d="M175.12,668.88l-.56-.18c-14.87-4.7-36.37-16.67-38.04-26.93-.35-2.16-.02-5.28,3.57-7.89,10.99-8,29.12,10.56,35.26,17.46,4.55-7.8,18.02-29.25,27.95-28.36,3.44.3,6.01,2.89,7.65,7.7,1.91,5.5,1.54,10.85-1.11,15.88-7.84,14.87-33.08,21.87-34.15,22.16l-.57.15ZM146.36,635.92c-1.45,0-2.78.37-3.92,1.2-2.1,1.53-2.13,3.02-1.97,4.01,1.22,7.52,19.21,18.54,34.72,23.57,3.69-1.1,24.68-7.81,31.11-20.01,2.14-4.06,2.43-8.22.87-12.7-1.08-3.18-2.5-4.87-4.22-5.02-6.69-.6-19.22,17.35-25.52,28.79l-1.42,2.57-1.88-2.26c-5.2-6.26-18.87-20.16-27.78-20.16Z" fill="#0a2240"></path><path d="M216.99,741.77c-.46-.1-45.94-10.25-43.31-54.69l1.04-357.7h4s-1.04,357.82-1.04,357.82v.06c-1.04,17.17,5.34,30.88,18.94,40.75,10.29,7.46,21.09,9.83,21.19,9.85l-.83,3.91Z" fill="#0a2240"></path></g><g id="Balloon"><path id="Balloon-2" d="M158.99,338.25c2.09-4.17,3.65-7.82,5.22-11.47,1.04-2.09,1.04-3.65-2.09-4.17-45.37-7.3-76.14-35.98-99.61-73.01-20.86-32.33-33.38-68.32-31.81-107.43,2.61-60.49,31.29-104.82,86.57-129.33,88.13-39.11,185.66,15.12,201.82,109.52,5.22,31.29-.52,62.06-11.99,91.26-13.56,34.42-34.42,63.62-64.15,86.05-15.65,11.47-32.85,19.3-51.63,22.42-3.65.52-4.17,2.09-2.61,5.22,2.09,3.13,3.65,6.78,5.22,10.43-11.99,3.65-23.47,4.17-34.94.52Z" fill="#e62630" fill-rule="evenodd"></path></g><g id="White_Highlights"><path id="Tail_b_Highlight" d="M44.78,628.73c-1.56.52-3.13,1.04-4.69,1.04-1.56.52-3.13,0-3.13-1.56-.52-1.56,0-2.61,2.09-3.13,5.22-1.56,10.43-2.61,16.17-3.13,5.74,0,10.95,1.04,15.65,4.69,1.56,1.04,2.09,2.61,1.04,4.17-1.04,1.04-2.61,1.56-4.17.52-2.09-1.56-4.69-2.61-7.3-3.13-5.74-1.56-10.43-1.04-15.65.52Z" fill="#fff" fill-rule="evenodd"></path><path id="Tail_a_Highlight" d="M80.77,637.07c-1.56.52-2.61-.52-3.13-2.09-.52-1.56.52-2.61,1.56-3.13,1.56-.52,2.61.52,3.13,1.56.52,2.09,0,3.65-1.56,3.65Z" fill="#fff" fill-rule="evenodd"></path><path id="Back_Leg_Highlight" d="M129.79,843.59c2.09-.52,3.65,1.04,3.13,3.13,0,.52-.52,1.04-.52,1.56-5.74,11.47-13.56,21.38-23.47,29.73-3.13,3.13-6.78,5.74-10.43,7.82-1.56,1.04-3.13,1.04-4.17-.52-1.04-1.04-.52-2.61,1.04-3.65l.52-.52c6.78-4.69,13.04-10.43,18.77-17.21,4.69-5.74,9.39-11.99,12.52-18.77,1.04,0,1.56-1.04,2.61-1.56Z" fill="#fff" fill-rule="evenodd"></path><path id="Torso_Highlight" d="M192.37,679.31c-2.09.52-3.13,0-3.65-1.04-.52-1.56,0-2.61,1.56-3.65.52,0,1.04-.52,1.56-.52,11.47-4.69,23.47-6.78,35.98-6.26,5.74,0,10.95,1.04,16.17,2.09,2.09.52,2.61,1.56,2.09,3.65-.52,1.56-1.56,2.09-4.17,1.56-11.47-2.61-22.42-2.61-33.9-.52-5.22,1.04-10.43,2.61-15.65,4.69Z" fill="#fff" fill-rule="evenodd"></path><path id="Front_Leg_c_Highlight" d="M418.7,746.07c.52,1.56.52,2.61-.52,3.65-1.04.52-2.09.52-2.61,0s-1.04-1.04-1.04-1.56c-3.65-9.39-9.39-17.21-16.69-24.51-3.65-3.65-7.82-6.78-12.52-9.91-2.09-1.56-2.09-3.65,0-4.69,1.04-.52,2.09,0,3.13.52,9.91,6.78,18.25,15.12,24.51,25.55,2.09,3.65,4.17,7.3,5.74,10.95Z" fill="#fff" fill-rule="evenodd"></path><path id="Front_Leg_b_Highlight" d="M407.75,779.44c.52,2.61,1.04,4.69,1.56,7.3,0,1.56-.52,2.61-2.09,3.13s-2.61-.52-3.13-2.09c0-.52,0-1.04-.52-2.09-3.13-16.17-11.47-29.73-23.99-40.16-2.09-2.09-4.69-3.65-7.3-5.22-1.04-1.04-1.56-2.61-.52-3.65,1.04-1.04,2.09-1.56,3.65-1.04.52,0,1.04.52,1.04.52,15.65,10.95,25.55,25.55,31.29,43.28Z" fill="#fff" fill-rule="evenodd"></path><path id="Front_Leg_a_Highlight" d="M335.26,704.87h-1.56c-3.13-2.09-6.26-4.69-9.39-7.3-1.04-1.04-1.04-2.09-.52-3.13,1.04-1.04,2.09-1.56,3.13-1.04,3.13,2.09,6.26,4.69,9.39,7.3,1.56,1.04,1.04,3.13-1.04,4.17Z" fill="#fff" fill-rule="evenodd"></path><path id="Neck_b_Highlight" d="M254.95,607.35c-1.56.52-2.61-.52-3.13-2.09s.52-2.61,2.09-3.13c1.56-.52,2.61.52,3.13,2.09,0,1.56-.52,2.61-2.09,3.13Z" fill="#fff" fill-rule="evenodd"></path><path id="Neck_Highlight" d="M264.34,573.45c1.04,0,1.56,0,2.61,1.04s.52,2.09,0,3.13c-2.61,4.69-4.69,9.39-6.26,14.6-.52,1.56-1.56,2.61-3.13,2.09s-2.09-2.09-1.56-3.65c1.56-5.74,4.17-10.95,6.78-15.65,0-.52.52-1.04,1.56-1.56Z" fill="#fff" fill-rule="evenodd"></path><path id="Front_Ear_b_Highlight" d="M301.89,459.76c-1.56.52-2.09-.52-3.13-1.56-5.74-8.87-13.56-16.17-23.47-20.34-1.56-.52-2.61-1.04-4.17-1.56-1.56-.52-2.09-2.09-1.56-3.65.52-1.56,2.09-1.56,3.13-1.04.52,0,.52.52,1.04.52,5.74,2.09,10.95,5.22,15.65,8.87,5.74,4.17,10.43,9.39,14.08,15.65,1.04,1.04.52,2.61-1.56,3.13Z" fill="#fff" fill-rule="evenodd"></path><path id="Front_Ear_Highlight" d="M234.61,445.68c-.52-2.09,1.04-3.13,3.13-3.13,5.22.52,10.43,2.09,15.12,4.69,8.87,4.69,16.17,11.99,22.95,19.3,2.61,3.13,4.69,6.26,6.78,9.91.52,1.56,0,3.13-1.04,3.65-1.56.52-2.61,0-3.65-1.56-.52-1.04-1.04-1.56-1.56-2.61-3.65-6.26-8.87-10.95-14.08-15.65-4.17-3.65-7.82-6.78-12.52-8.87-4.17-2.09-8.34-3.13-12.52-3.65-1.56-.52-2.09-1.04-2.61-2.09Z" fill="#fff" fill-rule="evenodd"></path><path id="Nose_Highlight" d="M378.03,498.87c7.3-1.56,15.12-2.61,22.42-2.09,6.78.52,13.56,1.56,19.82,3.65,2.09.52,2.61,2.09,2.09,3.65-.52,1.56-1.56,2.09-3.65,1.04-1.56-.52-3.13-1.04-4.69-1.56-8.87-2.09-17.21-2.61-26.08-2.09-7.82,1.04-15.12,3.13-22.42,6.26-4.69,2.09-9.39,4.69-13.04,7.82-1.56,1.04-3.13,1.04-4.17,0-1.04-1.04-.52-2.61,1.04-4.17,8.87-5.74,18.25-9.91,28.68-12.52Z" fill="#fff" fill-rule="evenodd"></path><path id="Nose_Tip_Highlight" d="M450.52,492.62c-.52-1.56.52-2.61,1.56-3.13,1.56-.52,2.61.52,3.13,1.56.52,1.56-.52,2.61-1.56,3.13-1.56,1.04-2.61,0-3.13-1.56Z" fill="#fff" fill-rule="evenodd"></path><path id="Balloon_Highlight_b" d="M162.12,74.89c0-3.13,0-7.3-1.04-11.47-5.22-21.38-23.99-31.81-41.2-29.73-29.2,3.13-49.54,28.16-47.46,56.84,1.56,22.95,18.77,37.55,39.63,37.03,29.73-.52,51.11-27.64,50.06-52.67Z" fill="#fff" fill-rule="evenodd"></path><path id="Balloon_Highlight" d="M66.17,128.08c-9.39-1.56-17.21,8.87-17.21,15.65,0,8.34,8.34,16.69,17.21,16.17,9.91-.52,17.73-8.34,17.21-16.17-.52-9.39-7.3-15.65-17.21-15.65Z" fill="#fff" fill-rule="evenodd"></path></g></svg></svg><style>@media (prefers-color-scheme: light) { :root { filter: none; } }
@media (prefers-color-scheme: dark) { :root { filter: none; } }
</style></svg>