<?xml version="1.0" encoding="UTF-8"?>
<svg id="Layer_1" data-name="Layer 1" xmlns="http://www.w3.org/2000/svg" xmlns:xlink="http://www.w3.org/1999/xlink" viewBox="0 0 44.6 93.4">
  <defs>
    <style>
      .cls-1 {
        clip-path: url(#clippath-21);
      }

      .cls-2 {
        clip-path: url(#clippath-6);
      }

      .cls-3 {
        clip-path: url(#clippath-7);
      }

      .cls-4 {
        clip-path: url(#clippath-17);
      }

      .cls-5 {
        fill: #0c2340;
      }

      .cls-6 {
        clip-path: url(#clippath-31);
      }

      .cls-7 {
        clip-path: url(#clippath-15);
      }

      .cls-8 {
        clip-path: url(#clippath-18);
      }

      .cls-9 {
        clip-path: url(#clippath-4);
      }

      .cls-10 {
        clip-path: url(#clippath-22);
      }

      .cls-11 {
        clip-path: url(#clippath-23);
      }

      .cls-12 {
        clip-path: url(#clippath-9);
      }

      .cls-13 {
        clip-path: url(#clippath-10);
      }

      .cls-14 {
        fill: #fff;
      }

      .cls-15 {
        clip-path: url(#clippath-25);
      }

      .cls-16 {
        clip-path: url(#clippath-27);
      }

      .cls-17 {
        clip-path: url(#clippath-11);
      }

      .cls-18, .cls-19, .cls-20 {
        fill: none;
      }

      .cls-19 {
        stroke-linecap: round;
      }

      .cls-19, .cls-20 {
        stroke: #0c2340;
        stroke-miterlimit: 10;
        stroke-width: .5px;
      }

      .cls-21 {
        fill: #ec008c;
      }

      .cls-22 {
        clip-path: url(#clippath-28);
      }

      .cls-23 {
        clip-path: url(#clippath-1);
      }

      .cls-24 {
        clip-path: url(#clippath-5);
      }

      .cls-25 {
        clip-path: url(#clippath-20);
      }

      .cls-26 {
        clip-path: url(#clippath-8);
      }

      .cls-27 {
        clip-path: url(#clippath-3);
      }

      .cls-28 {
        clip-path: url(#clippath-26);
      }

      .cls-29 {
        clip-path: url(#clippath-12);
      }

      .cls-30 {
        clip-path: url(#clippath-14);
      }

      .cls-31 {
        clip-path: url(#clippath-30);
      }

      .cls-32 {
        clip-path: url(#clippath-19);
      }

      .cls-33 {
        fill: #f4f4f4;
      }

      .cls-34 {
        clip-path: url(#clippath-16);
      }

      .cls-35 {
        fill: #ee3124;
      }

      .cls-36 {
        clip-path: url(#clippath-2);
      }

      .cls-37 {
        clip-path: url(#clippath-29);
      }

      .cls-38 {
        clip-path: url(#clippath-13);
      }

      .cls-39 {
        clip-path: url(#clippath-24);
      }

      .cls-40 {
        fill: #b21f6d;
      }

      .cls-41 {
        clip-path: url(#clippath);
      }
    </style>
    <clipPath id="clippath">
      <rect class="cls-18" width="44.6" height="93.4"/>
    </clipPath>
    <clipPath id="clippath-1">
      <rect class="cls-18" width="44.6" height="93.4"/>
    </clipPath>
    <clipPath id="clippath-2">
      <rect class="cls-18" width="44.6" height="93.4"/>
    </clipPath>
    <clipPath id="clippath-3">
      <rect class="cls-18" width="44.6" height="93.4"/>
    </clipPath>
    <clipPath id="clippath-4">
      <rect class="cls-18" width="44.6" height="93.4"/>
    </clipPath>
    <clipPath id="clippath-5">
      <rect class="cls-18" width="44.6" height="93.4"/>
    </clipPath>
    <clipPath id="clippath-6">
      <rect class="cls-18" width="44.6" height="93.4"/>
    </clipPath>
    <clipPath id="clippath-7">
      <rect class="cls-18" width="44.6" height="93.4"/>
    </clipPath>
    <clipPath id="clippath-8">
      <rect class="cls-18" width="44.6" height="93.4"/>
    </clipPath>
    <clipPath id="clippath-9">
      <rect class="cls-18" width="44.6" height="93.4"/>
    </clipPath>
    <clipPath id="clippath-10">
      <rect class="cls-18" width="44.6" height="93.4"/>
    </clipPath>
    <clipPath id="clippath-11">
      <rect class="cls-18" width="44.6" height="93.4"/>
    </clipPath>
    <clipPath id="clippath-12">
      <rect class="cls-18" width="44.6" height="93.4"/>
    </clipPath>
    <clipPath id="clippath-13">
      <rect class="cls-18" width="44.6" height="93.4"/>
    </clipPath>
    <clipPath id="clippath-14">
      <rect class="cls-18" width="44.6" height="93.4"/>
    </clipPath>
    <clipPath id="clippath-15">
      <rect class="cls-18" width="44.6" height="93.4"/>
    </clipPath>
    <clipPath id="clippath-16">
      <rect class="cls-18" width="44.6" height="93.4"/>
    </clipPath>
    <clipPath id="clippath-17">
      <rect class="cls-18" width="44.6" height="93.4"/>
    </clipPath>
    <clipPath id="clippath-18">
      <rect class="cls-18" width="44.6" height="93.4"/>
    </clipPath>
    <clipPath id="clippath-19">
      <rect class="cls-18" width="44.6" height="93.4"/>
    </clipPath>
    <clipPath id="clippath-20">
      <rect class="cls-18" width="44.6" height="93.4"/>
    </clipPath>
    <clipPath id="clippath-21">
      <rect class="cls-18" width="44.6" height="93.4"/>
    </clipPath>
    <clipPath id="clippath-22">
      <rect class="cls-18" width="44.6" height="93.4"/>
    </clipPath>
    <clipPath id="clippath-23">
      <rect class="cls-18" width="44.6" height="93.4"/>
    </clipPath>
    <clipPath id="clippath-24">
      <rect class="cls-18" width="44.6" height="93.4"/>
    </clipPath>
    <clipPath id="clippath-25">
      <rect class="cls-18" width="44.6" height="93.4"/>
    </clipPath>
    <clipPath id="clippath-26">
      <rect class="cls-18" width="44.6" height="93.4"/>
    </clipPath>
    <clipPath id="clippath-27">
      <rect class="cls-18" width="44.6" height="93.4"/>
    </clipPath>
    <clipPath id="clippath-28">
      <rect class="cls-18" width="44.6" height="93.4"/>
    </clipPath>
    <clipPath id="clippath-29">
      <rect class="cls-18" width="44.6" height="93.4"/>
    </clipPath>
    <clipPath id="clippath-30">
      <rect class="cls-18" width="44.6" height="93.4"/>
    </clipPath>
    <clipPath id="clippath-31">
      <rect class="cls-18" width="44.6" height="93.4"/>
    </clipPath>
  </defs>
  <g class="cls-41">
    <path class="cls-5" d="M43,46c-.2-.4-.4-.8-.6-1.2s-.5-.5-1-.4h0c-.4.1-.7.4-.8.8,0,.1-.1.1-.2,0-.7-.5-1.5-.7-2.4-.8-1.6-.1-3.2.2-4.7.8-.9.3-1.7.7-2.5,1.1,0-.2,0-.4-.1-.6-.5-2.4-1.6-4.4-3.5-6-.8-.6-1.7-1.1-2.7-1.2-.9,0-1.7.2-2.3.8,0,0-.1.1-.2.1-1.4-.1-2.6.6-3.1,1.9-.4.9-.5,1.8-.4,2.8.3,2.6,1.4,4.9,3.4,6.7.5.4,1,.8,1.5,1q.1,0,0,.1c-1,1.4-1.4,3-1.6,4.7-.1,1.3-.1,2.5.2,3.7q0,.1-.1.1c-.7-.1-1.4-.1-2.1,0-2.2.2-4.3.8-6.2,1.9-.3.2-.6.4-.9.6h-.1c-.5-1.6-1.5-3-2.7-4.2-.9-.9-1.8-1.6-2.9-2.1-.8-.3-1.6-.6-2.5-.5-.3,0-.6.1-1,.2q-.1.1-.2,0c-.4-.4-.9-.7-1.3-1.1-.5-.5-1.1-.4-1.6.1C.2,55.5,0,55.8,0,56.1s.1.6.3.8c.5.4,1,.9,1.5,1.4,0,0,.1.1.1.2-.1.9.1,1.8.4,2.6.6,1.4,1.6,2.6,2.9,3.6,1,.9,2.2,1.5,3.4,1.9.2.1.4.1.6.1-1.5,1-2.6,2.4-3.4,3.9-1.1,2-1.7,4-2,6.3-.1,1.1-.1,2.1.2,3.2.2,1,.7,1.8,1.4,2.4,1,.8,2.1,1,3.3.6.6-.2,1.2-.5,1.7-.9.2-.2.5-.3.9-.5,1.1-.4,1.9-1.1,2.6-2,1-1.2,1.7-2.6,2.2-4,.6-1.6,1-3.3,1-5.1,0-.6,0-1.2-.1-1.7q0-.1.1-.1c2.2-.2,4.3-.9,6.2-2.1h.1c.8,1.8,1.9,3.3,3.2,4.7,1.5,1.6,3.2,2.9,5.1,4,1.1.6,2.1,1.1,3.3,1.3.7.1,1.4.1,2.1-.1.8-.2,1.4-.7,1.8-1.5,0-.1.1-.1.1-.2.3-.2.5-.4.7-.7.3-.5.5-1,.6-1.6.1-.8.1-1.6-.2-2.4-.5-1.6-1.3-2.9-2.4-4.2-1.7-1.9-3.7-3.5-6-4.7-1-.5-2-.9-3.1-1.1q-.1,0-.1-.1c.7-1.6,1-3.4.9-5.2,0-.1-.1-.3,0-.4h.4c1.2.1,2.3,0,3.4-.3,1.9-.5,3.7-1.3,5.3-2.5.9-.6,1.6-1.3,2.2-2.3.4-.7.7-1.5.6-2.4,0,0,0-.1.1-.1h0c.4.1.7-.1,1.1-.2s.7-.3.5-.7"/>
  </g>
  <g class="cls-23">
    <path class="cls-5" d="M23.8,93.4c-4.1,0-8.2-.1-12.4-.6-2.2-.2-4.4-.5-6.5-1.3-.4-.1-.9-.3-1.3-.6-.5-.4-.5-.8,0-1.2s1.2-.6,1.8-.8c2.2-.6,4.5-1,6.8-1.2,4-.4,7.9-.6,11.9-.5,4.9,0,9.8.2,14.6,1,1.6.2,3.2.5,4.8,1.2.3.1.6.3.8.5.3.3.3.7,0,1-.4.4-.9.6-1.4.8-2.1.7-4.3,1-6.5,1.3-4.2.3-8.4.4-12.6.4"/>
  </g>
  <g class="cls-36">
    <path class="cls-14" d="M14.9,7c.1,2.3-1.9,4.9-4.6,4.9-1.9,0-3.5-1.4-3.7-3.4-.2-2.7,1.7-5,4.4-5.2,1.6-.2,3.3.8,3.8,2.7.1.2.1.6.1,1"/>
  </g>
  <g class="cls-27">
    <path class="cls-14" d="M6,11.9c.9,0,1.5.6,1.6,1.4,0,.7-.7,1.4-1.6,1.5-.8,0-1.6-.7-1.6-1.5,0-.6.7-1.6,1.6-1.4"/>
  </g>
  <g class="cls-9">
    <path class="cls-5" d="M42.6,46.3q0,.2-.1.3c-.2.1-.4.3-.7.2,0,0-.1-.1-.2-.1s-.1,0-.2-.1c-.1-.2-.2-.5-.4-.7v-.1c.1-.3.3-.7.7-.8.2,0,.3,0,.4.1.1.2.2.4.3.7.1.3.1.5.2.5M12,81.1c.5-.7,1-1.4,1.4-2.2.5-1,.9-2,1.2-3.1.2-.9.4-1.8.5-2.8.1-.9,0-1.8-.1-2.7,0-.3-.1-.7-.2-1q0-.2.1-.2h1.5c.1,0,.1.1.1.1.1,1,.1,2,0,3.1-.1.9-.3,1.8-.6,2.7-.3,1.2-.8,2.3-1.4,3.4-.5.8-1.1,1.5-1.8,2.2-.1.2-.4.4-.7.5M22.6,39.8q.1,0,0,0l.1-.1c.7-.5,1.4-.5,2.2-.3.8.2,1.4.6,2,1.1.7.6,1.3,1.3,1.7,2,.8,1.3,1.3,2.6,1.5,4.2,0,.1,0,.2-.1.2-.6.4-1.2.8-1.8,1.3l-.1.1-.1-.1c0-.5-.1-1.1-.2-1.5s-.2-.9-.4-1.3c-.1-.4-.3-.8-.5-1.3-.4-.8-.9-1.6-1.5-2.3-.5-.5-1.1-1-1.7-1.4-.2-.2-.6-.4-1.1-.6M39.9,70.9c.1.6.2,1.3.1,1.9-.1.5-.2,1-.6,1.4,0,0,0,.1-.1.1v-.1c0-.8-.1-1.5-.3-2.2-.4-1.2-1.1-2.2-1.8-3.2-.7-.9-1.5-1.7-2.4-2.5-1.1-1-2.3-1.9-3.6-2.6-.6-.3-1.3-.7-1.9-.9-.4-.2-.9-.3-1.3-.5-.1,0-.2,0-.1-.1.2-.3.4-.6.6-1,0-.1.1-.1.2-.1.4.1.9.2,1.3.3,1.2.4,2.2.9,3.2,1.6,1.1.7,2,1.4,2.9,2.3,1,1,2,2,2.7,3.2.5.6.8,1.4,1.1,2.4M22.4,60.3c-.1-.3-.1-.7-.1-1v-2.1c0-.6.1-1.3.3-1.8.3-1,.7-1.9,1.3-2.8.1-.1.2-.2.3-.1.6.1,1.2.1,1.7,0,.1-.1.2-.1.4-.1.1-.1.2,0,.2.1,0,.3.2.5.3.8.2.3.4.6.7.9.4.3.9.6,1.4.7.1.1.2.1.2.2v1.3c0,.8-.1,1.5-.3,2.3-.1.6-.3,1.2-.6,1.8-.2.5-.5,1-.9,1.5-.1.1-.2.2-.3.1-.6-.1-1.3-.2-1.9,0-.1,0-.3,0-.4-.1s-.3-.2-.5-.3c-.5-.3-1-.4-1.6-.6-.1,0-.1-.1-.2-.1.1-.4,0-.5,0-.7M12.2,66.3c.4-.5.6-1.1.6-1.7v-.6c0-.1,0-.2.1-.3.3-.3.7-.5,1.1-.7.9-.5,1.9-1,3-1.3,1.3-.3,2.6-.6,4-.5.6.1,1.2.1,1.8.2.5.1,1,.3,1.5.6.1,0,.1.1,0,.1-.1.1-.3.2-.5.3-.5.5-.8,1.1-.8,1.8-.1.7.1,1.3.3,1.9.1.1,0,.2-.1.2-.7.5-1.5.9-2.4,1.3-.9.3-1.7.5-2.6.7-1.1.2-2.2.3-3.3.2-.3,0-.4-.1-.5-.4-.3-.7-.8-1.3-1.5-1.7-.3,0-.5,0-.7-.1M4.1,56.9c.2-.1.6-.1.9,0,.4,0,.9.1,1.3.3.7.2,1.4.6,2,1.1s1.2,1,1.8,1.6c.3.4.7.8,1,1.2.4.5.7,1.1,1,1.7.2.5.4,1.1.4,1.6,0,.3,0,.7-.1,1.1-.2.7-.7,1-1.4,1.2-.7.1-1.4,0-2.1-.2-1.1-.3-2-.9-2.8-1.6-1-.8-1.9-1.7-2.5-2.7-.3-.5-.6-1-.7-1.6-.2-.6-.2-1.3-.1-1.9,0-.1,0-.2-.1-.2-.6-.5-1.1-1-1.7-1.4-.2-.2-.2-.5,0-.8.1-.1.1-.2.2-.3.2-.2.4-.2.6-.1.1.1.2.1.3.2.4.4.9.8,1.3,1.2.1.1.3.1.4.1-.1-.4.1-.4.3-.5M19.1,45.6c-.1-.3-.1-.9-.2-1.4,0-.8,0-1.5.4-2.3.3-.7.7-1.2,1.4-1.4.7-.3,1.4-.2,2.1,0,.9.3,1.6.9,2.3,1.5.8.8,1.4,1.7,1.8,2.8.3.7.5,1.4.7,2.1.1.6.2,1.3.1,1.9,0,.8-.2,1.6-.7,2.3-.5.8-1.3,1.1-2.2,1-.7-.1-1.3-.3-1.9-.7-.7-.4-1.3-1-1.8-1.7-1-1.2-1.6-2.5-2-4.1M32.5,54.2c-.3.1-.5.1-.7.1-1,.1-2.1.1-3-.3-1-.4-1.6-1-1.8-2.1v-.2c.2-.2.4-.4.6-.7.3-.5.5-1.1.6-1.7,0-.1,0-.2.1-.3s.3-.3.5-.5c.5-.4,1-.8,1.5-1.1s1.1-.6,1.7-.9c.6-.3,1.3-.6,1.9-.8.5-.1,1.1-.3,1.6-.4.5-.1,1-.1,1.5-.1.8,0,1.5,0,2.3.3.5.2,1,.5,1.3,1,.5.7.5,1.5.2,2.3-.3.9-1,1.6-1.7,2.3-.8.7-1.8,1.3-2.7,1.8-.5.2-1.1.5-1.6.7-.8.3-1.6.5-2.3.6M4.6,80.1c-.1-.4-.1-.7-.2-1-.1-.6-.1-1.2,0-1.7,0-.8.2-1.5.3-2.3.1-.6.3-1.2.5-1.8.3-.8.6-1.5,1-2.2.4-.8.9-1.5,1.4-2.2.5-.6,1.1-1.2,1.7-1.6.3-.2.5-.4.9-.4s.7-.1,1.1-.2c.1,0,.1-.1.2-.1.4,0,.8.1,1.1.3.5.3.9.7,1.1,1.3.3.6.5,1.2.6,1.8s.1,1.3.1,1.9c0,1-.1,1.9-.3,2.8-.1.7-.3,1.3-.5,1.9-.4,1.1-.8,2.2-1.5,3.1-.5.8-1.2,1.6-2,2.2-.7.5-1.4.9-2.2,1-1.2.1-2.1-.3-2.8-1.3-.2-.4-.4-1-.5-1.5M23.6,65.7c-.1-.6-.2-1.2-.1-1.8.1-.4.3-.8.7-1.1.5-.4,1.2-.5,1.8-.5.9,0,1.8.3,2.6.6,1.1.4,2.1.9,3,1.5.6.4,1.3.9,1.8,1.3.8.6,1.5,1.3,2.2,2,.5.5,1,1.1,1.4,1.7.4.6.9,1.3,1.2,2,.3.8.6,1.7.5,2.6-.1,1.1-.8,1.9-1.8,2.2-.6.1-1.3.1-1.9,0-1.1-.2-2.1-.7-3.1-1.2-.5-.3-.9-.6-1.4-.9-.5-.3-.9-.7-1.4-1-.4-.3-.9-.7-1.3-1.1-.6-.6-1.2-1.2-1.7-1.8-.6-.7-1.2-1.4-1.6-2.3-.3-.6-.7-1.4-.9-2.2M9.3,67c-1.5,1-2.6,2.4-3.4,3.9-1.1,2-1.7,4-2,6.3-.1,1.1,0,2.1.2,3.2.2,1,.7,1.8,1.4,2.4,1,.8,2.1,1,3.3.6.6-.2,1.2-.5,1.7-.9.2-.2.5-.3.9-.5,1.1-.4,1.9-1.1,2.6-2,1-1.2,1.7-2.6,2.2-4,.6-1.6,1-3.3,1-5.1,0-.6,0-1.2-.1-1.7q0-.1.1-.1c2.2-.2,4.3-.9,6.2-2.1h.1c.8,1.8,1.9,3.3,3.2,4.7,1.5,1.6,3.2,2.9,5.1,4,1.1.6,2.1,1.1,3.3,1.3.7.1,1.4.1,2.1-.1.8-.2,1.4-.7,1.8-1.5q.1-.1.1-.2c.3-.2.5-.4.7-.7.3-.5.5-1,.6-1.6.1-.8,0-1.6-.2-2.4-.5-1.6-1.3-2.9-2.4-4.2-1.7-1.9-3.7-3.5-6-4.7-1-.5-2-.9-3.1-1.1q-.1,0-.1-.1c.7-1.6,1-3.4.9-5.2,0-.1-.1-.3,0-.4,0-.1.2,0,.4,0,1.2.1,2.3-.1,3.4-.3,1.9-.5,3.7-1.3,5.3-2.5.9-.6,1.6-1.4,2.2-2.3.4-.7.7-1.5.6-2.4,0,0,0-.1.1-.1h.1c.4.1.7,0,1.1-.2s.5-.6.3-.9c-.2-.4-.4-.8-.6-1.2s-.5-.5-1-.4h-.1c-.4.1-.7.4-.8.8q-.1.1-.2,0c-.7-.5-1.5-.7-2.4-.8-1.6-.1-3.2.2-4.7.8-.9.3-1.7.7-2.5,1.1,0-.2,0-.4-.1-.6-.5-2.4-1.6-4.4-3.5-6-.8-.6-1.7-1.1-2.7-1.2-.9,0-1.7.2-2.3.8-.1,0-.1.1-.2.1-1.4-.1-2.6.6-3.1,1.9-.4.9-.5,1.8-.4,2.8.3,2.6,1.4,4.9,3.4,6.7.5.4,1,.8,1.5,1l.1.1c-1,1.4-1.4,3-1.6,4.7-.1,1.3-.1,2.5.2,3.7.1.1,0,.1-.1.1-.7-.1-1.4-.1-2.1,0-2.2.2-4.3.8-6.2,1.9-.3.2-.6.4-.9.6q-.1,0-.1-.1c-.5-1.6-1.5-3-2.7-4.2-.9-.9-1.8-1.6-2.9-2.1-.8-.3-1.6-.6-2.5-.5-.3,0-.6.1-1,.2q-.1.1-.2,0c-.4-.4-.9-.7-1.3-1.1-.5-.5-1.1-.4-1.6.1C.2,55.5,0,55.8,0,56.1s.1.6.3.8c.5.4,1,.9,1.5,1.4,0,0,.1.1.1.2-.1.9,0,1.8.4,2.6.6,1.4,1.6,2.6,2.9,3.6,1,.9,2.2,1.5,3.4,1.9.2.3.4.3.7.4"/>
  </g>
  <g class="cls-24">
    <path class="cls-21" d="M30.9,65.1h-.1c-.3-.2-.6-.4-.9-.7-.1-.1-.1-.2,0-.3s.2-.1.3-.1c.3.2.6.4.9.7,0,.1-.1.3-.2.4M37.5,72c0,.2.1.4.1.7,0,.1-.1.2-.2.3s-.2,0-.3-.2v-.2c-.3-1.5-1.1-2.7-2.2-3.7-.2-.2-.4-.3-.7-.5-.1-.1-.1-.2,0-.3s.2-.1.3-.1h.1c1.5,1,2.4,2.4,2.9,4M23.6,65.7c.2.9.6,1.6,1,2.4.4.8,1,1.5,1.6,2.3.5.6,1.1,1.3,1.7,1.8.4.4.8.8,1.3,1.1.4.4.9.7,1.4,1,.4.3.9.6,1.4.9,1,.5,2,1,3.1,1.2.6.1,1.3.2,1.9,0,1.1-.3,1.7-1,1.8-2.2.1-.9-.1-1.8-.5-2.6-.3-.7-.7-1.4-1.2-2-.4-.6-.9-1.2-1.4-1.7-.7-.7-1.4-1.4-2.2-2-.6-.5-1.2-.9-1.8-1.4-1-.6-2-1.2-3-1.5-.8-.3-1.7-.6-2.6-.6-.6,0-1.3.1-1.8.5-.3.3-.6.6-.7,1.1-.2.5-.2,1,0,1.7"/>
  </g>
  <g class="cls-2">
    <path class="cls-21" d="M11.9,77.9c.2-.1.3.1.3.3,0,.1-.1.1-.1.1-.5,1.1-1.3,2-2.2,2.7-.3.3-.6.5-1,.7-.1.1-.3.1-.4,0s-.1-.2.1-.3v-.1c.6-.4,1.2-1,1.7-1.6.4-.5.9-1.1,1.2-1.7.2.1.3,0,.4-.1M4.6,80.1c.1.5.3,1.1.7,1.6.7,1,1.6,1.4,2.8,1.3.8-.1,1.5-.5,2.2-1,.8-.6,1.4-1.4,2-2.2.6-1,1.1-2,1.5-3.1.2-.6.4-1.3.5-1.9.2-.9.3-1.8.3-2.8,0-.6,0-1.3-.1-1.9-.1-.6-.3-1.2-.6-1.8-.3-.5-.6-.9-1.1-1.3-.3-.2-.7-.3-1.1-.3q-.1,0-.2.1c-.3.1-.7.2-1.1.2-.3,0-.6.2-.9.4-.7.4-1.3,1-1.7,1.6-.6.7-1.1,1.4-1.4,2.2-.4.7-.7,1.4-1,2.2-.2.6-.4,1.2-.5,1.8-.2.7-.3,1.5-.3,2.3v1.7c-.1.2-.1.5,0,.9"/>
  </g>
  <g class="cls-3">
    <path class="cls-21" d="M34.8,46.1c.7-.1,1.4-.2,2.1-.2.6,0,1.3.1,1.8.3.2,0,.2.2.2.3s-.1.2-.3.1c-.1,0-.3-.1-.4-.1-.8-.2-1.6-.2-2.4-.2-.7.1-1.4.3-2.1.6-.4.2-.9.4-1.2.7-.1.1-.3.1-.4,0s-.1-.2.1-.4c.8-.5,1.6-.9,2.6-1.1M32.5,54.2c.8-.1,1.5-.3,2.3-.6.5-.2,1.1-.4,1.6-.7,1-.5,1.9-1.1,2.7-1.8.7-.6,1.4-1.4,1.7-2.3.3-.8.3-1.6-.2-2.3-.3-.4-.8-.7-1.3-1-.7-.3-1.5-.3-2.3-.3-.5,0-1.1.1-1.5.1-.5.1-1.1.2-1.6.4-.7.2-1.3.5-1.9.8-.6.2-1.2.6-1.7.9-.5.3-1.1.7-1.5,1.1-.2.1-.3.3-.5.5-.1.1-.1.2-.1.3-.1.6-.3,1.2-.6,1.7-.1.2-.4.5-.6.7,0,0-.1.1,0,.2.1,1.1.8,1.7,1.8,2.1,1,.4,2,.4,3,.3.2,0,.4,0,.7-.1"/>
  </g>
  <g class="cls-26">
    <path class="cls-21" d="M21.6,41.2c0-.2.1-.3.3-.3.5,0,1,.2,1.4.4.8.4,1.5,1.1,2.1,1.8.2.3.4.6.6.9,0,.1,0,.3-.1.3s-.2,0-.3-.1q-.1-.1-.1-.2c-.3-.6-.8-1-1.3-1.4-.4-.3-.7-.6-1.2-.8-.4-.2-.8-.3-1.2-.3-.1-.2-.2-.2-.2-.3M19.1,45.6c.4,1.6,1.1,2.9,2,4.1.5.7,1.1,1.2,1.8,1.7.6.4,1.2.6,1.9.7.9.1,1.7-.3,2.2-1s.7-1.4.7-2.3c0-.6,0-1.3-.1-1.9-.1-.7-.4-1.4-.7-2.1-.4-1.1-1.1-2-1.8-2.8-.6-.7-1.4-1.3-2.3-1.5-.7-.3-1.4-.3-2.1,0s-1.1.8-1.4,1.4c-.3.7-.4,1.5-.4,2.3,0,.5.1,1,.2,1.4"/>
  </g>
  <g class="cls-12">
    <path class="cls-21" d="M7.3,58.9c-.1,0-.2,0-.3-.2,0-.1,0-.2.1-.3.1,0,.2,0,.3.1.1.2.1.4-.1.4M4,58.1c-.1,0-.3.1-.4.1s-.3,0-.3-.1c-.1-.1,0-.2.2-.3.5-.1,1-.2,1.5-.3.5,0,1,.1,1.4.4.1.1.2.2.1.4-.1.1-.2.1-.4,0-.2-.1-.4-.2-.7-.3-.5-.1-.9,0-1.4.1M4.1,56.9c-.2,0-.4.1-.5.2-.1.1-.3.1-.4,0-.4-.4-.9-.8-1.3-1.2-.1-.1-.2-.1-.3-.2-.2-.1-.4-.1-.6.1-.1.1-.1.2-.2.3-.2.2-.2.5,0,.8.6.5,1.1,1,1.7,1.4.1,0,.1.1.1.2-.1.6-.1,1.3.1,1.9.1.6.4,1.1.7,1.6.7,1.1,1.5,2,2.5,2.7.9.7,1.8,1.2,2.8,1.6.7.2,1.4.3,2.1.2s1.2-.5,1.4-1.2c.1-.3.1-.7.1-1.1,0-.6-.2-1.1-.4-1.6-.2-.6-.6-1.2-1-1.7-.3-.4-.6-.8-1-1.2-.5-.6-1.1-1.1-1.8-1.6-.6-.4-1.3-.8-2-1.1-.4-.1-.9-.2-1.3-.3-.1.1-.4.1-.7.2"/>
  </g>
  <g class="cls-13">
    <path class="cls-21" d="M17.7,62.8c-.2,0-.3,0-.3-.1s0-.2.1-.3l.1-.1c1.1-.4,2.2-.6,3.3-.6.5,0,1,.1,1.5.2q.2.1.2.3c0,.1-.1.2-.4.1-1.1-.2-2.1-.2-3.1,0-.5.1-1,.3-1.4.5M12.2,66.3c.2.1.5.2.7.3.7.4,1.2,1,1.5,1.7.1.2.2.4.5.4,1.1.1,2.2,0,3.3-.2.9-.1,1.8-.4,2.6-.7.8-.3,1.6-.7,2.4-1.3.1,0,.1-.1.1-.2-.2-.6-.3-1.3-.3-1.9,0-.7.2-1.4.8-1.8.1-.1.3-.2.5-.3q.1-.1,0-.1c-.5-.3-1-.5-1.5-.6-.6-.1-1.2-.2-1.8-.2-1.4,0-2.7.2-4,.5-1.1.3-2,.7-3,1.3-.4.2-.7.5-1.1.7-.1.1-.1.2-.1.3v.6c0,.4-.2,1-.6,1.5"/>
  </g>
  <g class="cls-17">
    <path class="cls-21" d="M23.4,56.1c-.1,0-.2,0-.3-.2,0-.1.1-.2.2-.3s.2,0,.3.2c0,.2,0,.3-.2.3M24.3,53q.1,0,.2.1c.1.1,0,.2,0,.3-.2.4-.4.9-.6,1.3,0,.1-.1.2-.3.2-.1,0-.2-.2-.1-.3.1-.5.4-1,.6-1.4.1-.1.1-.2.2-.2M22.4,60.3c0,.2.1.3.1.5,0,.1.1.1.2.1.5.1,1.1.3,1.6.6.1.1.3.2.5.3.1.1.2.1.4.1.6-.1,1.3,0,1.9.1.2,0,.3,0,.3-.1.3-.5.6-1,.9-1.5.3-.6.5-1.2.6-1.8.2-.7.3-1.5.3-2.3,0-.4,0-.9-.1-1.3,0-.1-.1-.2-.2-.2-.5-.1-1-.3-1.4-.7-.3-.2-.5-.5-.7-.9-.1-.2-.3-.5-.3-.8,0-.1-.1-.1-.2-.1s-.2.1-.4.1c-.6.2-1.2.1-1.7,0-.1,0-.2,0-.3.1-.6.9-1,1.8-1.3,2.8-.1.6-.2,1.3-.3,1.8-.1.7-.1,1.4,0,2.1-.1.4,0,.8.1,1.1"/>
  </g>
  <g class="cls-29">
    <path class="cls-40" d="M38.6,68.9c0,.1,0,.2-.1.3h-.2l-.1-.1c-.3-.9-.9-1.6-1.5-2.3-.3-.3-.7-.6-1.2-.9-.2-.1-.2-.3,0-.4.1-.1.2,0,.3,0,.9.6,1.7,1.4,2.3,2.4.1.4.3.7.5,1M39.9,70.9c-.2-.9-.6-1.7-1.1-2.6-.7-1.2-1.7-2.3-2.7-3.2-.9-.8-1.9-1.6-2.9-2.3-1-.6-2.1-1.2-3.2-1.6-.4-.1-.8-.2-1.3-.3-.1,0-.2,0-.2.1-.2.3-.4.7-.6,1-.1.1,0,.1.1.1.4.1.9.3,1.3.5.6.3,1.3.6,1.9.9,1.3.8,2.5,1.6,3.6,2.6.9.8,1.7,1.6,2.4,2.5.8,1,1.4,2,1.8,3.2.2.7.4,1.4.3,2.2v.1q.1,0,.1-.1c.3-.4.5-.9.6-1.4.1-.5,0-1.2-.1-1.7"/>
  </g>
  <g class="cls-38">
    <path class="cls-40" d="M27.8,42.5c-.1,0-.2,0-.3-.1-.5-.8-1.3-1.5-2.2-1.9-.1,0-.2-.1-.4-.1-.1-.1-.2-.2-.1-.3s.2-.1.3-.1c0,0,0,.1.1.1.5.2,1,.5,1.4.8.5.4,1,.9,1.3,1.4.1,0,.1.1-.1.2M22.6,39.8c.4.1.9.3,1.3.6.6.4,1.2.9,1.7,1.4.6.7,1.1,1.4,1.5,2.3.2.4.4.8.5,1.3.1.4.3.9.4,1.3.1.5.2,1,.2,1.5v.1s.1,0,.1-.1c.5-.5,1.2-.9,1.8-1.3.1,0,.1-.1.1-.2-.2-1.5-.7-2.9-1.5-4.2-.5-.8-1.1-1.4-1.7-2-.6-.5-1.3-.9-2-1.1-.8-.2-1.5-.1-2.2.3,0,0,0,.1-.1.1t-.1,0"/>
  </g>
  <g class="cls-30">
    <path class="cls-40" d="M12,81.1c.3-.1.6-.3.8-.6.7-.6,1.3-1.4,1.8-2.2.6-1.1,1.1-2.2,1.4-3.4.2-.9.5-1.8.6-2.7.1-1,.1-2,0-3.1q0-.1-.1-.1h-1.5q-.2,0-.1.2c.1.3.2.7.2,1,.1.9.1,1.8.1,2.7-.1,1-.2,1.9-.5,2.8-.3,1.1-.7,2.1-1.2,3.1-.5.9-.9,1.6-1.5,2.3"/>
  </g>
  <g class="cls-7">
    <path class="cls-21" d="M41.5,45.5c0-.1,0-.2.1-.3.1,0,.2,0,.3.1.1.1,0,.2-.1.3-.2.2-.3.1-.3-.1M42.6,46.4c0-.1-.1-.3-.2-.4-.1-.2-.2-.4-.3-.7-.1-.2-.2-.2-.4-.1-.4.1-.6.5-.7.8v.1c.2.2.3.4.4.7,0,.1.1.1.2.1h.2c.3.1.5,0,.7-.2.1-.1.1-.2.1-.3"/>
  </g>
  <g class="cls-34">
    <path class="cls-33" d="M37.5,72c-.5-1.6-1.4-3-2.9-3.9-.1,0-.1-.1-.1-.1-.1,0-.2,0-.3.1-.1.1,0,.2.1.3.2.1.5.3.7.5,1.2,1,1.9,2.2,2.2,3.7v.2c0,.1.1.2.3.2.1,0,.2-.1.2-.3-.1-.3-.1-.4-.2-.7"/>
  </g>
  <g class="cls-4">
    <path class="cls-33" d="M30.9,65.1c.2,0,.3-.3.1-.4-.3-.2-.6-.4-.9-.7-.1,0-.2,0-.3.1-.1.1,0,.2.1.3.3.3.6.5,1,.7h0Z"/>
  </g>
  <g class="cls-8">
    <path class="cls-33" d="M11.9,77.9c-.1,0-.1.1-.2.2-.3.6-.7,1.2-1.2,1.7-.5.6-1.1,1.1-1.7,1.6h-.1c-.1.1-.2.2-.1.3s.2.1.4,0c.3-.2.6-.5,1-.7.9-.8,1.6-1.7,2.2-2.7v-.1c0-.1-.1-.3-.3-.3"/>
  </g>
  <g class="cls-32">
    <path class="cls-33" d="M34.8,46.1c-1,.2-1.8.6-2.6,1.3-.1.1-.2.2-.1.4.1.1.2.1.4,0,.4-.3.8-.5,1.2-.7.7-.3,1.4-.5,2.1-.6.8-.1,1.6,0,2.4.2.1,0,.3.1.4.1.2,0,.3,0,.3-.1s0-.3-.2-.3c-.6-.2-1.2-.3-1.8-.3-.7-.2-1.4-.2-2.1,0"/>
  </g>
  <g class="cls-25">
    <path class="cls-33" d="M21.6,41.2c0,.1.1.2.2.2.4,0,.8.1,1.2.3.4.2.8.5,1.2.8.5.4,1,.9,1.3,1.4,0,.1.1.1.1.2s.2.2.3.1c.1,0,.1-.2.1-.3-.1-.3-.3-.7-.6-.9-.6-.7-1.3-1.3-2.1-1.8-.4-.2-.9-.4-1.4-.4-.2.1-.4.2-.3.4"/>
  </g>
  <g class="cls-1">
    <path class="cls-33" d="M4,58.1c.4-.1.9-.2,1.4-.1.2.1.5.1.7.3.1.1.3.1.4,0s0-.2-.1-.4c-.4-.3-.9-.4-1.4-.4s-1,.1-1.5.3c-.1,0-.2.1-.2.3,0,.1.1.2.3.1.1-.1.3-.1.4-.1"/>
  </g>
  <g class="cls-10">
    <path class="cls-33" d="M7.3,58.9c.1,0,.2-.1.1-.3,0-.1-.1-.2-.3-.1-.1,0-.2.1-.1.3.1,0,.3.1.3.1"/>
  </g>
  <g class="cls-11">
    <path class="cls-33" d="M17.7,62.8c.4-.2,1-.3,1.5-.5,1.1-.2,2.1-.2,3.1,0,.2,0,.3,0,.4-.1s0-.3-.2-.3c-.5-.1-1-.2-1.5-.2-1.2,0-2.3.1-3.3.6h-.1c-.1,0-.2.2-.1.3-.1.2,0,.2.2.2"/>
  </g>
  <g class="cls-39">
    <path class="cls-33" d="M24.3,53c-.1,0-.1.1-.2.1-.3.4-.5.9-.6,1.4,0,.2,0,.3.1.3s.2,0,.3-.2c.1-.5.3-.9.6-1.4,0-.1.1-.2,0-.3-.1.1-.2.1-.2.1"/>
  </g>
  <g class="cls-15">
    <path class="cls-33" d="M23.4,56.1c.1,0,.2-.1.2-.3,0-.1-.1-.2-.3-.2-.1.1-.2.1-.2.3.1.2.2.3.3.2"/>
  </g>
  <g class="cls-28">
    <path class="cls-33" d="M38.6,68.9c-.1-.3-.3-.7-.5-1.1-.6-1-1.4-1.7-2.3-2.4-.1-.1-.2-.1-.3-.1-.2.1-.2.3,0,.4.4.3.8.6,1.2.9.7.7,1.2,1.4,1.5,2.3,0,0,0,.1.1.1h.2c.1.2.1.1.1-.1"/>
  </g>
  <g class="cls-16">
    <path class="cls-33" d="M27.8,42.5c.2,0,.2-.2.1-.4-.3-.6-.8-1-1.3-1.4-.4-.3-.9-.6-1.4-.8h-.1c-.1-.1-.2,0-.3.1,0,.1,0,.3.1.3s.2.1.4.1c.9.4,1.6,1.1,2.2,1.9,0,.1.1.2.3.2"/>
  </g>
  <g class="cls-22">
    <path class="cls-33" d="M41.5,45.5c0,.1.1.2.3.1.1,0,.2-.1.1-.3,0-.1-.1-.2-.3-.1-.1.1-.2.2-.1.3"/>
  </g>
  <g class="cls-37">
    <path class="cls-20" d="M17.3,60.6s-2.1-1.6-2.8-.6c0,0-.9.8,2.5.9,0,0,2.2-.2,2.7-1.1,0,0,.1-1.2-1.3-.6,0,0-.6.4-.8,1l-.3.4Z"/>
  </g>
  <g class="cls-31">
    <path class="cls-19" d="M20.5,68.1s-3.6-1.5-3.4-5.4l.1-31.4"/>
  </g>
  <g class="cls-6">
    <path class="cls-35" d="M6,11.9c-.9-.1-1.6.8-1.6,1.4,0,.8.8,1.5,1.6,1.5.9,0,1.6-.8,1.6-1.5-.1-.9-.7-1.4-1.6-1.4M14.9,7c0-.3,0-.7-.1-1.1-.5-2-2.2-2.9-3.8-2.7-2.7.3-4.6,2.6-4.4,5.2.1,2.1,1.7,3.5,3.7,3.4,2.7,0,4.7-2.5,4.6-4.8M15.8,31.4c-.4-.1-.8,0-1.3-.1.2-.4.3-.7.5-1.1.1-.2.1-.3-.2-.4-4.2-.7-7-3.3-9.2-6.7-1.9-3-3.1-6.3-2.9-9.9.2-5.6,2.9-9.7,8-11.9,8.1-3.6,17.1,1.4,18.6,10.1.5,2.9,0,5.7-1.1,8.4-1.3,3.2-3.2,5.9-5.9,7.9-1.4,1.1-3,1.8-4.8,2.1-.3,0-.4.2-.2.5.2.3.3.6.5,1-.4.1-.8,0-1.2.1-.2-.1-.5-.1-.8,0"/>
  </g>
</svg>