<?xml version="1.0" encoding="utf-8"?>
<!-- Generator: Adobe Illustrator 27.9.2, SVG Export Plug-In . SVG Version: 6.00 Build 0)  -->
<svg version="1.1" id="Layer_1" xmlns="http://www.w3.org/2000/svg" xmlns:xlink="http://www.w3.org/1999/xlink" x="0px" y="0px"
	 viewBox="0 0 500 500" style="enable-background:new 0 0 500 500;" xml:space="preserve">
<style type="text/css">
	.st0{fill:#55BAA6;}
</style>
<path class="st0" d="M370.6,315.5c-0.4-2.7-1.6-4.8-3.6-6.2c-2.1-1.4-4.2-1.9-6.4-1.5c-5.2,0.8-7.6,3.9-7.3,9.4
	c0.4,2.7,1.4,4.9,3.1,6.5s3.6,2.4,5.9,2.4h1.1c2.2-0.4,4.1-1.7,5.6-3.8C370.4,320.1,371,317.8,370.6,315.5 M359.4,360.8
	c2.6,0,4.8-0.8,6.4-2.4c1.7-1.6,2.6-3.5,2.8-5.9c0.2-2.4-0.5-4.5-2-6.5s-3.4-3.1-5.6-3.5s-4.4,0.1-6.4,1.5c-2.1,1.4-3.3,3.3-3.6,5.9
	c-0.4,2.6,0.1,4.9,1.4,7.1s3.1,3.4,5.3,3.8H359.4z M344.3,277.8c-3,3.1-3.7,6.6-2.2,10.3c1.5,3.7,4.3,5.6,8.4,5.6
	c2.2,0,4.3-0.8,6.2-2.4c1.5-2,2.3-4.2,2.5-6.8c0.2-2.6-0.7-4.6-2.5-6.2C352.5,274.1,348.4,273.9,344.3,277.8 M351,390.2
	c3.7-4.3,3.5-8.6-0.6-12.9c-4.1-3.9-8.2-3.7-12.3,0.6c-1.5,1.6-2.2,3.6-2.2,6.2s0.9,4.8,2.8,6.8c1.5,1.6,3.4,2.4,5.6,2.4
	C346.9,393.2,349.2,392.2,351,390.2 M324.7,264.3c1.9,2,3.9,2.9,6.1,2.9c2.6,0,4.7-1,6.2-2.9c4.1-4.3,4.1-8.6,0-13
	c-4.1-3.9-8.1-3.8-12,0.3C321.1,255.8,321,260,324.7,264.3 M333.1,159c0-1.6-0.4-3.1-1.1-4.7c-0.8-1.6-1.8-2.7-3.1-3.5
	c-1.3-0.8-2.7-1.4-4.2-1.8c-2.2,0-4.3,0.8-6.2,2.4c-1.9,1.6-3,3.7-3.4,6.5c0,2.4,0.8,4.5,2.5,6.5s3.6,3.1,5.9,3.5h0.6
	c2.2,0,4.2-0.9,5.9-2.7C331.7,163.4,332.8,161.3,333.1,159 M310.8,116c-4.5,3.5-5.2,7.9-2.2,12.9c1.9,2.4,4.3,3.5,7.3,3.5
	c1.9,0,3.5-0.4,5-1.2c2.6-2,3.9-4.8,3.9-8.5s-1.6-6.4-4.8-7.9C316.8,113.3,313.7,113.6,310.8,116 M321.4,197.8
	c1.9-3.1,1.9-6.3,0-9.4c-1.9-3.1-4.6-4.6-8.1-4.4c-3.5,0.2-6.1,1.9-7.6,5c-1.1,2.4-1.3,4.7-0.6,7.1c0.7,2.4,2.2,4.1,4.5,5.3
	c1.1,0.8,2.4,1.2,3.9,1.2C317.3,202.5,319.9,200.9,321.4,197.8 M314.7,412c4.8-2.4,6.5-6.3,5-11.8c-0.8-2.4-2.2-4.1-4.5-5.3
	c-2.2-1.2-4.5-1.4-6.7-0.6s-3.9,2.4-5,4.7c-1.1,2.4-1.1,4.7,0,7.1c1.1,4.3,3.7,6.5,7.8,6.5c1.1,0,2-0.2,2.8-0.6L314.7,412L314.7,412
	z M309.6,240.8c1.5-2,2.1-4.2,2-6.8c-0.2-2.5-1.1-4.6-2.8-6.2c-1.7-1.6-3.7-2.4-6.2-2.4c-2.4,0-4.5,1-6.2,2.9
	c-1.7,2-2.4,4.1-2.2,6.5c0.2,2.4,1.1,4.4,2.8,6.2c1.7,1.8,3.6,2.6,5.9,2.6h0.6C306.1,243.7,308.1,242.7,309.6,240.8 M282.2,94.8
	c-2.6,5.5-1.5,9.6,3.4,12.4c1.5,0.8,3,1.2,4.5,1.2c3.4,0,5.8-1.6,7.3-4.7c3-5.1,2-9.2-3.1-12.4C289.2,88.2,285.2,89.3,282.2,94.8
	 M264.6,415.8c1.7,1.8,3.7,2.6,6.2,2.6c2.4,0,4.5-0.9,6.2-2.6c1.7-1.8,2.5-3.9,2.5-6.5s-0.8-4.7-2.5-6.5s-3.7-2.6-6.2-2.6
	c-2.4,0-4.5,0.9-6.2,2.6c-1.7,1.8-2.5,3.9-2.5,6.5S262.9,414.1,264.6,415.8 M279.4,236.6c0-2.7-0.8-5-2.5-6.8s-3.8-2.7-6.4-2.7
	c-3.7,0-6.3,1.9-7.8,5.6c-1.5,3.7-0.9,7.1,1.7,10s5.8,3.6,9.5,2.1C277.6,243.3,279.4,240.6,279.4,236.6 M257.1,80.7
	c-2.6-0.4-4.8,0.4-6.4,2.4c-1.7,2-2.5,4.1-2.5,6.5c0,1.6,0.4,3.1,1.1,4.7c0.7,1.6,1.8,2.7,3.1,3.5s2.9,1.2,4.8,1.2
	c2.2,0,4.2-0.9,5.9-2.6c1.7-1.8,2.5-4,2.5-6.8c0-2.4-0.8-4.4-2.5-6.2C261.3,81.6,259.3,80.7,257.1,80.7 M227.1,415.8
	c1.7,1.8,3.7,2.6,6.2,2.6c2.4,0,4.5-0.9,6.2-2.6c1.7-1.8,2.5-3.9,2.5-6.5s-0.8-4.7-2.5-6.5s-3.7-2.6-6.2-2.6c-2.4,0-4.5,0.9-6.2,2.6
	c-1.7,1.8-2.5,3.9-2.5,6.5S225.5,414.1,227.1,415.8 M242,236.6c0-2.7-0.8-5-2.5-6.8s-3.8-2.7-6.4-2.7c-3.7,0-6.4,1.9-7.8,5.6
	c-1.5,3.7-0.8,7.1,2,10s6,3.6,9.5,2.1C240.2,243.3,242,240.6,242,236.6 M221.8,80.7c-2.2-0.4-4.3,0.4-6.2,2.4s-2.8,4.1-2.8,6.5
	c0,1.6,0.5,3.1,1.4,4.7s2,2.7,3.4,3.5c1.3,0.8,2.7,1.2,4.2,1.2c2.6,0,4.8-0.9,6.4-2.6c1.7-1.8,2.5-4,2.5-6.8c0-2.4-0.8-4.4-2.5-6.2
	C226.6,81.6,224.4,80.7,221.8,80.7 M192.2,415.8c1.9,1.8,3.9,2.6,6.2,2.6c2.2,0,4.3-0.9,6.2-2.6c1.9-1.8,2.8-3.9,2.8-6.5
	s-0.9-4.7-2.8-6.5c-1.9-1.8-3.9-2.6-6.2-2.6c-1.5,0-2.9,0.4-4.2,1.2c-1.3,0.8-2.4,2-3.4,3.5c-0.9,1.6-1.4,3.1-1.4,4.7
	C189.4,412,190.3,414.1,192.2,415.8 M206.7,236.6c0-2.7-0.8-5-2.5-6.8s-3.6-2.7-5.9-2.7c-4.1,0-6.9,1.9-8.4,5.6
	c-1.5,3.7-0.8,7.1,2,10s6.1,3.6,9.8,2.1C205.4,243.3,207.1,240.6,206.7,236.6 M187.1,80.7c-2.6-0.4-4.8,0.4-6.4,2.4
	c-1.7,2-2.5,4.1-2.5,6.5c0,1.6,0.4,3.1,1.1,4.7c0.7,1.6,1.9,2.7,3.4,3.5s3,1.2,4.5,1.2c2.2,0,4.2-0.9,5.9-2.6c1.7-1.8,2.5-4,2.5-6.8
	c0-2.4-0.8-4.4-2.5-6.2C191.3,81.6,189.4,80.7,187.1,80.7 M276.6,357.3c11.2,1.2,20.7-2.4,28.5-10.6c6-7.8,8.8-16.7,8.4-26.5
	c0.4-9.8-2.4-18.4-8.4-25.9c-8.2-7.8-17.7-11-28.5-9.4H186c-1.1,0-2.3,0.3-3.6,0.9s-2.4,1.3-3.4,2.1c-0.9,0.8-1.6,1.9-2,3.2
	c-0.4,1.4-0.8,2.6-1.1,3.8v51.8c0.4,2.7,1.5,5.1,3.4,7.1s4.1,3.1,6.7,3.5H276.6z M175.9,147.2v44.7c0.4,2.7,1.5,5.2,3.4,7.4
	s4.1,3.2,6.7,3.2h50.3c10.8,1.2,20.3-1.8,28.5-8.8c6-7.1,8.8-15.1,8.4-24.1c0.4-9-2.2-16.9-7.8-23.5c-6.7-7.1-14.5-10-23.5-8.8H186
	c-2.6,0-4.8,1-6.7,2.9C177.4,142.1,176.3,144.4,175.9,147.2 M157.2,415.8c1.7,1.8,3.7,2.6,6.2,2.6c2.4,0,4.5-0.9,6.1-2.6
	c1.7-1.8,2.5-3.9,2.5-6.5s-0.8-4.7-2.5-6.5s-3.6-2.6-5.9-2.6c-1.9,0-3.5,0.4-4.8,1.2c-1.3,0.8-2.3,2-3.1,3.5
	c-0.7,1.6-1.1,3.1-1.1,4.7C154.7,412,155.5,414.1,157.2,415.8 M157.2,242.8c1.7,1.8,3.7,2.6,6.2,2.6c2.4,0,4.5-0.9,6.1-2.6
	c1.7-1.8,2.5-3.9,2.5-6.5c0-2.5-0.8-4.7-2.5-6.5s-3.7-2.7-6.1-2.7c-2.4,0-4.5,0.9-6.2,2.7s-2.5,3.9-2.5,6.5
	C154.7,238.9,155.5,241,157.2,242.8 M146,83.3c-1.7,1.8-2.5,3.9-2.5,6.5s0.8,4.7,2.5,6.5s3.7,2.6,6.2,2.6c2.4,0,4.5-0.9,6.2-2.6
	c1.7-1.8,2.5-4,2.5-6.8c0-2.4-0.8-4.4-2.5-6.2c-1.7-1.8-3.8-2.7-6.4-2.7C149.7,80.7,147.7,81.6,146,83.3 M116.1,415.8
	c1.9,1.8,3.9,2.6,6.2,2.6c2.2,0,4.3-0.9,6.2-2.6c1.9-1.8,2.8-3.9,2.8-6.5s-0.9-4.7-2.8-6.5c-1.9-1.8-3.9-2.6-6.2-2.6
	c-1.5,0-2.9,0.4-4.2,1.2c-1.3,0.8-2.4,2-3.4,3.5c-0.9,1.6-1.4,3.1-1.4,4.7C113.3,412,114.2,414.1,116.1,415.8 M115.8,385.2
	c1.7,1.8,3.7,2.6,6.1,2.6s4.5-0.9,6.2-2.6c1.7-1.8,2.5-3.8,2.5-6.2c0.4-2.7-0.4-5-2.2-6.8c-1.9-1.8-4-2.6-6.4-2.6s-4.5,0.9-6.1,2.6
	c-1.7,1.8-2.5,3.9-2.5,6.5C113.3,381.3,114.1,383.5,115.8,385.2 M122.2,356.1v-0.6c2.2,0.4,4.2-0.3,5.9-2.1c1.7-1.8,2.5-4,2.5-6.8
	c0.4-2.4-0.4-4.5-2.2-6.5c-1.9-2-4-2.9-6.4-2.9s-4.5,1-6.1,2.9c-1.7,2-2.5,4.2-2.5,6.8c0,2.6,0.8,4.7,2.5,6.5
	C117.5,355.2,119.6,356.1,122.2,356.1 M115.8,316.4c1.7,1.8,3.7,2.6,6.1,2.6s4.5-0.9,6.2-2.6c1.7-1.8,2.5-3.8,2.5-6.2
	c0.4-2.7-0.4-5-2.2-6.8c-1.9-1.8-4-2.6-6.4-2.6s-4.5,0.9-6.1,2.6c-1.7,1.8-2.5,3.9-2.5,6.5C113.3,312.5,114.1,314.6,115.8,316.4
	 M115.8,279.9c1.7,1.8,3.7,2.6,6.1,2.6s4.5-0.9,6.2-2.6c1.7-1.8,2.5-3.8,2.5-6.2c0.4-2.7-0.4-5-2.2-6.8c-1.9-1.8-4-2.6-6.4-2.6
	s-4.5,0.9-6.1,2.6c-1.7,1.8-2.5,3.9-2.5,6.5C113.3,276,114.1,278.1,115.8,279.9 M115.8,243.4c1.7,1.8,3.7,2.6,6.1,2.4
	c2.4-0.2,4.5-1.1,6.2-2.6c1.7-1.6,2.5-3.7,2.5-6.5c0.4-2.4-0.4-4.5-2.2-6.5c-1.9-2-4-2.9-6.4-2.9s-4.5,1-6.1,2.9
	c-1.7,2-2.5,4.2-2.5,6.8C113.3,239.5,114.1,241.6,115.8,243.4 M115.8,206.3c1.7,1.8,3.7,2.6,6.1,2.6s4.5-0.9,6.2-2.6
	c1.7-1.8,2.5-3.8,2.5-6.2c0.4-2.7-0.4-5-2.2-6.8c-1.9-1.8-4-2.7-6.4-2.7s-4.5,0.9-6.1,2.7c-1.7,1.8-2.5,3.9-2.5,6.5
	C113.3,202.4,114.1,204.6,115.8,206.3 M115.8,169.8c1.7,1.8,3.7,2.6,6.1,2.6s4.5-0.9,6.2-2.6c1.7-1.8,2.5-4,2.5-6.8
	c0.4-2.4-0.4-4.4-2.2-6.2c-1.9-1.8-4-2.7-6.4-2.7s-4.5,0.9-6.1,2.7c-1.7,1.8-2.5,3.9-2.5,6.5C113.3,165.9,114.1,168.1,115.8,169.8
	 M115.8,133.1c1.7,2,3.7,2.9,6.1,2.6c2.4-0.2,4.5-1.2,6.2-2.9c1.7-1.8,2.5-3.8,2.5-6.2c0.4-2.4-0.4-4.5-2.2-6.5
	c-1.9-2-3.9-2.9-6.2-2.9c-1.5,0-3,0.4-4.5,1.2c-1.5,0.8-2.6,2-3.4,3.5c-0.8,1.6-1.1,3.1-1.1,4.7
	C113.3,128.9,114.1,131.1,115.8,133.1 M115.8,96.3c1.7,1.8,3.7,2.6,6.1,2.6s4.5-0.9,6.2-2.6c1.7-1.8,2.5-3.8,2.5-6.2
	c0.4-2.7-0.4-5-2.2-6.8c-1.9-1.8-3.9-2.7-6.2-2.7c-1.5,0-3,0.4-4.5,1.2c-1.5,0.8-2.6,1.9-3.4,3.2c-0.8,1.4-1.1,3-1.1,5
	C113.3,92.5,114.1,94.5,115.8,96.3 M358.9,228.4c17.9,11.4,31.9,26.8,42,46.2s14.9,40.1,14.5,62.1c0,16.1-3,31.6-9,46.5
	c-6,14.5-14.4,26.9-25.2,37.1c-11.9,11-25.4,19-40.3,24.1c-17.5,5.9-35.2,8.6-53.1,8.2H88.1c-3.4,0-6.2-1.2-8.7-3.5
	c-2.4-2.4-3.6-5.3-3.6-8.8V53.6c0-3.5,1.2-6.6,3.6-9.1c2.4-2.6,5.3-3.8,8.7-3.8h159.4c19-0.4,37.7,2.4,55.9,8.2
	C318,54,331.1,62.1,342.6,73c10.8,10.2,18.8,22.2,24.1,35.9c5.6,14.5,8.2,29.6,7.8,45.3c0,23.9-5.8,46.1-17.3,66.5
	c-0.8,1.2-1,2.6-0.8,4.1C356.5,226.4,357.4,227.6,358.9,228.4"/>
</svg>
