<?xml version="1.0" encoding="UTF-8"?>
<svg id="Layer_1" data-name="Layer 1" xmlns="http://www.w3.org/2000/svg" viewBox="0 0 75.15 106.6">
  <defs>
    <style>
      .cls-1 {
        fill: #219ed9;
      }
    </style>
  </defs>
  <path class="cls-1" d="M71.82,22.4c-5.2,2.3-10.4,4.6-15.8,6.9-3-5.8-7.3-9.9-13.6-11.5-4.3-1.1-8.6-.9-12.7.8-8.7,3.5-13.4,11.7-12.9,20.1.6,9.4,7.3,16.9,16,18.7,9.5,2,17.9-3.2,20.4-7.8-5.8-1.2-11.6-2.3-17.7-3.5,1.1-5.7,2.2-11.4,3.3-17.2,12.2,2.4,24.2,4.8,36.2,7.1,1.9,20.4-17.3,42.9-44.2,38.4-1.7,6.1-3.6,12.1-7,17.6-3.3,5.5-7.8,10-12.9,14.6-.5-.6-.8-1-1.5-1.7,9.8-8.2,16.4-18.2,18.9-30.8-.4-.2-.8-.3-1.2-.5C10.62,68.8-.48,53.5.02,36.2S16.62.1,37.22,0c19.2-.2,31.4,13.1,34.6,22.4h0Z"/>
</svg>