<?xml version="1.0" encoding="utf-8"?>
<!-- Generator: Adobe Illustrator 27.9.2, SVG Export Plug-In . SVG Version: 6.00 Build 0)  -->
<svg version="1.1" id="Layer_1" xmlns="http://www.w3.org/2000/svg" xmlns:xlink="http://www.w3.org/1999/xlink" x="0px" y="0px"
	 viewBox="0 0 2246.8 1652.2" style="enable-background:new 0 0 2246.8 1652.2;" xml:space="preserve">
<style type="text/css">
	.st0{clip-path:url(#SVGID_00000098916711675050943760000004802427286240050050_);fill:#00BCE8;}
	.st1{clip-path:url(#SVGID_00000160878724014542999290000011971201388567886752_);fill:#FFFFFF;}
	.st2{fill:#FFFFFF;}
	.st3{clip-path:url(#SVGID_00000070090494615656194690000008458447310640155017_);fill:#4EBFA8;}
	.st4{clip-path:url(#SVGID_00000176010235564676556310000002011981213668494474_);fill:#5A50A2;}
	.st5{clip-path:url(#SVGID_00000022560321536775393960000011675350889183323276_);fill:#0C2340;}
	.st6{clip-path:url(#SVGID_00000022560321536775393960000011675350889183323276_);fill:#FFFFFF;}
	.st7{clip-path:url(#SVGID_00000022560321536775393960000011675350889183323276_);fill:#EC008C;}
	.st8{clip-path:url(#SVGID_00000022560321536775393960000011675350889183323276_);fill:#B21F6D;}
	.st9{clip-path:url(#SVGID_00000022560321536775393960000011675350889183323276_);fill:#F4F4F4;}
	
		.st10{clip-path:url(#SVGID_00000022560321536775393960000011675350889183323276_);fill:none;stroke:#0C2340;stroke-width:0.5;stroke-miterlimit:10;}
	
		.st11{clip-path:url(#SVGID_00000022560321536775393960000011675350889183323276_);fill:none;stroke:#0C2340;stroke-width:0.5;stroke-linecap:round;stroke-miterlimit:10;}
	.st12{clip-path:url(#SVGID_00000022560321536775393960000011675350889183323276_);fill:#EE3124;}
	.st13{font-family:'SegoeUI-Bold';}
	.st14{font-size:40px;}
	.st15{font-size:50px;}
	.st16{fill:#666666;}
	.st17{font-size:33px;}
	.st18{font-size:70px;}
	.st19{fill:#EE4E9C;}
	.st20{fill:#F89621;}
	.st21{fill:#3A5FAC;}
</style>
<g>
	<path d="M1684.4,604c-77,0-154.2,0-231.5,0c0,4.7,0.1,9.4,0.3,14.1c24.8,0.1,41.8,0.4,44.8,0.7c0,22.2,0,44.4,0,66.5
		c-0.4,0.4-0.6,0.7-0.9,0.8c-0.3,0.1-0.7,0-1,0c-26,0-52,0-78,0c-0.3,0-0.7,0-1,0.1c-0.3,0.1-0.5,0.4-0.7,0.7c0,2.3,0,4.5,0,6.6
		c0.5,0.3,0.8,0.6,1,0.6c13.7,0,27.3,0,41,0c0.3,0,0.6,0.1,0.9,0.2c0.3,0.2,0.5,0.5,0.8,0.8c0,9.6,0,19.2,0,28.8c0,0.3-0.1,0.7,0,1
		c0.1,0.3,0.4,0.5,0.6,0.8c1.9,0.3,3.8,1.2,5.4-0.6c0-9.7,0-19.3,0-29c0-0.3-0.1-0.7,0-1c0.1-0.3,0.4-0.5,1-1.1
		c11.9,0,24.1,0,36.1,0c1.2-1.3,2.1-2.2,2.8-3.1c0-10.6,0-20.9,0-31.2c0-0.3,0.1-0.6,0.3-0.9c0.2-0.3,0.5-0.5,0.7-0.7
		c27.3,0,54.6,0,81.9,0c0.2,0,0.5,0.4,1.1,1c0,5.9,0,12.1,0,18.1c0.6,0.5,0.8,0.9,1.1,0.9c6.7,0,13.3,0,19.1,0c2.4,1.2,4,2.1,5.8,3
		c0,22.6,0,45.2,0,67.9c0,0.7-0.1,1.3,0,2c0,0.3,0.4,0.5,0.8,0.9c1.4,0,3,0,4.8,0c0.2-1,0.4-1.9,0.6-3c0.8-0.8,1.7-1.7,2.8-2.8
		c7.2,0,14.5,0,21.8,0c0.3,0,0.5,0.4,0.8,0.6c0.3,1.8,0.7,3.6,1,5.4c2.6-0.3,5,0.7,7.2-0.8c0-26.2,0-52.4,0-78.5
		c-0.5-0.4-0.7-0.7-1-0.7c-18.3,0-36.7,0-55,0c-0.3,0-0.7,0-0.9-0.1c-0.3-0.1-0.5-0.5-0.9-0.9c0-5.8,0-11.8,0-17.7
		c0-0.3-0.3-0.5-0.5-0.8c-0.5-0.5-0.9-0.9-1.5-1.5c0-10.6,0-21.2,0-31.9c0-0.2,0.4-0.5,0.8-0.9c26.1,0,52.3,0,78.4,0
		c0.4,0.4,0.8,0.7,0.8,0.9c0,32,0,63.9,0,96.6c1.2,0.9,2.8,2.1,4,2.9c0,9.7,0,18.7,0,27.7c0,0.5,0.6,1,1,1.6
		c1.5-0.4,3.3,0.7,5.1-1.1c0-7.2,0-14.8,0-22.2c1.5-0.5,2.7-1,3.8-1.4c0-38.1,0-76.1,0-114.4C1688.6,607.7,1686.8,606.2,1684.4,604z
		 M1622.2,729.7c0-0.3,0.1-0.6,0.3-0.9c0.2-0.3,0.4-0.6,0.7-0.7c0.3-0.1,0.7,0,1,0c7.3,0,14.6,0,21.9,0c0.6,0,1.2,0.4,1.9,0.6
		c0,1.5,0,3.1,0,4.6c-0.7,0.3-1.2,0.7-1.8,0.7c-7.6,0-15.2,0-22.9,0c-0.2,0-0.5-0.4-1.1-0.9C1622.2,732.2,1622.1,731,1622.2,729.7z
		 M1648,743.4c-0.7,0.3-1.3,0.7-1.9,0.7c-7.9,0-15.7,0-23.8,0c0-2.2,0-3.8,0-5.3c0.7-0.3,1.3-0.7,1.9-0.7c7.9,0,15.7,0,23.8,0
		C1648,740.3,1648,741.9,1648,743.4z M1648,723.3c-0.4,0.4-0.7,0.8-0.9,0.8c-8,0-15.9,0-24.8,0c0-2.2,0-3.8,0-5.2
		c0.4-0.4,0.7-0.8,0.9-0.8c8,0,15.9,0,23.9,0c0.2,0,0.5,0.4,0.9,0.8C1648,720.3,1648,721.9,1648,723.3z M1647.8,713.5
		c-0.2,0.2-0.5,0.6-0.7,0.6c-8,0-15.9,0-24.7,0c0-2.3,0-3.8,0-5.2c0.4-0.4,0.7-0.7,0.9-0.8c8,0,15.9,0,23.9,0
		C1649,709.7,1648.1,711.6,1647.8,713.5z M1625.2,678.1c7.3,0,14.5,0,21.8,0c0.2,0,0.5,0.4,0.9,0.8c0,1.4,0,3,0,4.5
		c-0.7,0.3-1.2,0.7-1.8,0.7c-7.9,0-15.7,0-23.3,0C1621,680.6,1624,679.8,1625.2,678.1z M1648,688.1c0,2.2,0,3.7,0,5.3
		c-0.7,0.3-1.3,0.7-1.8,0.7c-7.9,0-15.7,0-23.8,0c0-2.2,0-3.7,0-5.3c0.7-0.3,1.3-0.7,1.8-0.7C1632,688.1,1639.9,688.1,1648,688.1z
		 M1623.7,698.2c7.9-0.1,15.8,0,23.4,0c1.8,1.7,0.4,3.5,1.7,5.8c-9.6,0-17.8,0-25.9,0c-1.7-1.5-0.2-3.3-1-4.7
		C1622.7,698.8,1623.2,698.2,1623.7,698.2z M1534.2,649.5c-0.8,0.5-2.1,1.4-3.8,2.6c-7.3,0-15.3,0-23.2,0
		c-1.3-6.2-1.5-15.2-0.6-33.3c0.2-0.2,0.5-0.6,0.7-0.6c8.6,0,17.3,0,25.9,0c1.7,1.2,1,3,1,4.5
		C1534.2,631.3,1534.2,639.9,1534.2,649.5z M1542.2,649.2c-1.3,1.3-2,2-3.3,3.3c-0.5-1.1-0.9-2.3-1.4-3.5c-0.3,0.3-0.5,0.5-0.8,0.8
		c-0.2-0.3-0.4-0.5-0.5-0.8c-0.1-0.3,0-0.7,0-1c0-8.9,0-17.8,0-26.7c1.6-1.3,2.4-4.2,5.4-2.7c0.2,0.2,0.6,0.5,0.6,0.7
		C1542.2,629.2,1542.2,639.1,1542.2,649.2z M1552.2,651c0,0.2-0.4,0.5-0.8,1c-1,0.1-2.3,0.1-4.4,0.2c-0.5-0.9-1.3-2.3-2.1-3.7
		c-0.1,0.1,0.4-0.4,0.8-0.8c0.2-0.6,0.5-1.2,0.5-1.8c0-8.9,0-17.8,0-26.7c1.6-2,3.6-0.3,5-1.1c0.6,0.7,1,1,1,1.2
		C1552.2,629.9,1552.2,640.4,1552.2,651z M1562.2,648.9c-1.5,1.5-2.4,4.1-5.3,3c-0.9-8.7-0.9-23.4-0.1-33.5c1.5,0,3.1,0,4.6,0
		c0.3,0.6,0.7,1.2,0.7,1.7C1562.2,629.7,1562.2,639.3,1562.2,648.9z M1572.2,648.3c-1.2,1.8-2.1,3.1-2.5,3.7
		c-3.1,0.5-3.7-1.4-4.9-2.1c-0.3-0.4-0.6-0.7-0.6-1c0-9.2,0-18.5,0-27.8c0.9-0.9,1.9-1.8,2.9-2.7c1.4,0,3,0,4.4,0
		c0.4,0.5,0.7,0.7,0.7,1C1572.2,629.2,1572.2,639.1,1572.2,648.3z M1584.2,649.2c-1.4,1.3-2.4,2.2-3,2.8c-2.4,0.5-3.1-1.3-4.2-2.1
		c-1.1-1.3-1.1-19.2-0.2-31.5c1.5,0,3.1,0,4.6,0c1,0.9,1.9,1.9,2.8,2.8C1584.2,630.4,1584.2,639.6,1584.2,649.2z M1592.2,620.2
		c0,10.3,0,20.5,0,30.8c0,0.3-0.3,0.5-0.5,0.8c-3,1.6-3.8-1.4-5.4-2.6c0-10.2,0-20.4,0-30.9c1.9,0,3.2-0.1,4.4,0
		c0.6,0.1,1.1,0.6,1.6,1C1592.3,619.3,1592.2,619.8,1592.2,620.2z"/>
	<path d="M1461,756.1c-57,0-114,0-170.9,0c-0.3,0-0.7,0-0.9-0.2c-0.3-0.2-0.5-0.5-0.8-0.8c0-19.9,0-39.8,0-59.8
		c0-0.3,0.4-0.5,0.8-1.1c23.3,0,46.8,0,69.5,0c1.7-1.4,2.7-2.2,3.6-3c-0.4-1.8,0.7-3.6-1.1-5.1c-2.5,0-5.1,0-7.7,0c-2.7,0-5.3,0-8,0
		s-5.3,0-8,0s-5.3,0-8,0c-3,0-6,0-9,0c-2.7,0-5.3,0-8,0s-5.3,0-8,0s-5.3,0.1-8,0c-2.6-0.1-5.2,0.6-8.2-0.6c0-21.9,0-43.8,0-65.7
		c0-0.3,0.1-0.6,0.3-0.9c0.2-0.3,0.5-0.5,0.7-0.7c11.1-0.1,22.5-0.1,33.9-0.1c0.4-4.7,0.9-9.4,1.5-14c-58.5,0-116.9,0-175.4,0
		c-7.2-7.2-14-14-20.8-20.9c-0.2-0.2,0-0.6,0-1c0-0.3-0.1-0.8,0-1c8.9-9,17.9-17.9,26.8-26.9c0.2-0.2,0.5-0.4,0.7-0.7
		c0.2-0.2,0.3-0.5,0.4-0.8c0-95.3-1-388.5-1.2-388.6c-0.3-0.2-0.7-43.3-0.7-64.6c-0.7-0.7-1.4-1.5-2.1-2.2c0-0.6,0-1.3,0-1.9
		c-17-17-34-34-50.9-50.9c-1.6-1.6-3.1-3.5-5-4.9c-1.7-1.3-3.8-2.1-5.3-2.9c-156.3,0-312.1,0-466.8,0c-2.2,1.1-3.3,1.6-5.1,2.5
		c-18.7,18.7-38,38-57.1,57.1c-1.9,0.1-3.5,0.3-4.7,0.3c-0.9,0.9-1.3,1.3-1.8,1.8c-90,0-179.9,0-269.9,0c-0.7-0.7-1.4-1.3-2.1-1.9
		c-10.1,0-20.1,0-29.9,0c-0.8,0.7-1.6,1.4-2.1,1.8c-2.9,0-5.5,0-7.6,0c-1.5-0.9-2.6-1.6-3.6-2.3c-1.1,0.9-1.8,1.5-3,2.5
		c-15,0-30.6,0-45.8,0c-2.5,2.5-4.6,4.6-6.7,6.7c-2.4,2.4-4.7,4.7-7.1,7.1c-2.1,2.1-4.2,4.2-6.4,6.4s-4.2,4.2-6.4,6.4
		c-2.4,2.4-4.6,4.8-7.1,7c-2.1,1.9-4.8,3.1-6.9,5c-3.2,2.9-6.2,6.1-9.2,9.1c-3.1,3.1-6.3,6-9.1,9.2c-2.8,3.1-6.2,5.5-8.2,9.5
		c-1.9,3.7-5.7,6.3-8.7,9.4c-0.8,0-1.5,0-2.1,0c-9,9-17.9,17.9-26.1,26.1c-1.2,2.3-1.9,3.7-2.9,5.5c0,144.6,0,289.8,0,435.1
		c0.7,0.7,1.4,1.5,2,2.2c-0.3,1.6,0.7,3.4-0.9,4.8c-1.9,0-3.9,0-6,0c-10.3,10.3-20.7,20.7-31,31c-1.6,1.6-3.5,3.2-4.9,5
		c-1.3,1.7-2.1,3.8-3,5.3c0,50.2,0,100.2,0,149c1,2,1.6,3.1,2.5,4.8C57.3,857,71.6,871.4,86.3,886c2.8,0,6.2,0,9.5,0
		c1.5-2.1,4.6-3,4.9-5.9c0.4-2.9,4.1-3.3,4.1-6.4c-1-2.1-2.2-3.4-4.9-3.9c-2-0.3-2.6-3.8-5.3-3.8c-2.2,1.2-4.2,3.1-7.1,1.7
		c-10.8-10.8-21.7-21.7-32.6-32.6c0-47.2,0-94.5,0-141.7c10.4-10.4,20.7-20.7,30.9-30.9c2.9,2.9,5.9,5.9,9.1,9.1
		c0,10.1,0,20.4,0,30.7c0,0.3,0,0.7,0.2,0.9c0.2,0.3,0.5,0.5,0.8,0.8c14.5,0,29.2,0,43.8,0c0.3,0,0.5-0.4,0.8-0.6
		c0.4-1.9,1.2-3.8-0.6-5.4c-11.7,0-23.3,0-35,0c-0.3,0-0.7,0.1-1,0c-0.3-0.1-0.5-0.4-0.8-0.8c0-10.8,0-21.7,0-32.4
		c0.7-0.7,1.2-1.2,1.7-1.7c0-1.9,0-3.9,0-6c-0.5-0.6-1.2-1.3-1.9-2.1c0-1.9,0-3.9,0-5.9c-0.7-0.7-1.4-1.5-2.1-2.2c0-2,0-3.9,0-5.8
		c-0.7-0.8-1.4-1.5-2-2.2c0-52.4,0-104.7,0-157c0-0.3,0.1-0.6,0.2-0.9c0.2-0.3,0.5-0.5,0.7-0.7c7.6-0.3,15.1,0.1,22.7-0.2
		c0.4-3,1-5.5-0.5-7.9c-7.1,0-14.1,0-21.1,0c-0.3,0-0.7,0.1-1,0c-0.3-0.1-0.5-0.4-0.8-0.7c0-86.8,0-173.7,0-259
		c1.2-2.8,1.8-4.2,2.4-5.6c25.2-25.2,50.4-50.4,75.6-75.6c3.8-3.8,7.8-7.3,11.2-11.4c3.4-4.1,8.5-5.8,11.7-9.2c65.7,0,181,0,246.1,0
		c1.1,1.1,1.9,2.1,2.9,3.1c0,57.4,0,114.6,0,171.8c1.5,0.9,2,2.9,4,2.8c1.8-0.1,2.4-2,3.8-3c0-56.9,0-113.9,0-170.8
		c0-0.3-0.1-0.7,0-1c0.1-0.3,0.4-0.5,0.7-0.9c0.8-0.1,1.7-0.2,2.7-0.2c47.6,0,55.3,0,102.9,0c1.3,0,2.7-0.3,3.5,1.1
		c0,146.2,0,292.5,0,438.7c0,0.3,0.1,0.7,0,1c-0.1,0.3-0.4,0.5-0.7,0.8c-49.5,0-59,0-109.2,0c0-21.8,0-143.3,0-163.9
		c-1.3-2.5-2.1-4.1-3-5.8c-0.7,0-1.3,0-2.1,0c-0.9,0.9-1.8,1.9-2.8,2.9c0,0.2-0.2,0.5-0.2,0.8c0,21,0,142,0,163c0,0.3,0,0.7,0,1
		s0.1,0.7,0,1c-0.1,0.3-0.3,0.5-0.8,1.3c-1.6,0-3.5-0.1-5.5,0c-1.9,0.2-4-0.9-5.7,0.9c0,1.3,0,2.6,0,4.2c0.8,0.7,1.8,1.6,3,2.6
		c57.9,0,76.2,0,134.2,0c0.3-0.5,0.7-0.7,0.7-1c0-149.9,0-299.8,0-449.5c0.4-1.8-0.1-4.1,1.5-5c169.9,0,336.2,0,506.5,0
		c0.3,0,0.7,0,0.9,0.1c0.3,0.1,0.5,0.4,0.7,0.7c0.1,0.3,0.2,0.6,0.2,0.9c0,22,0,44,0,66c0,0.7,0,1.3,0,2c0,0.3-0.1,0.7,0,1
		c0.1,0.3,0.3,0.5,0.5,0.8c0.3,0.2,0.5,0.5,0.8,0.5c18.3,0,36.7,0,55,0c0.3,0,0.6,0.1,0.9,0.2c0.3,0.2,0.5,0.5,0.7,0.7
		c0.9,104.2,0.6,280.5-0.6,292.9c-18.2,0-36.4,0-54.3,0c-0.5,0.6-0.9,0.8-0.9,1.1c0,20,0,40,0,58.6c-20.4,20.4-40.2,40.2-60.5,60.5
		c-41.7,0-84.3,0-127,0c-0.6,2.7-0.8,5.2,0.3,7.8c2.4,0,4.8-0.1,7.1,0c2.6,0.2,5.2-0.6,7.8,0.4c1.1,18,0.8,39.4-0.5,45.5
		c-2.3,0-4.7-0.1-7,0c-2.6,0.2-5.2-0.7-7.8,0.5c0,2.4,0,4.6,0,6.7c0.4,0.4,0.7,0.7,0.9,0.7c25.3,0,50.6,0,75.8,0c1,1,2,2,3,3
		c0,9.3,0,18.6,0,28c-0.6,0.7-1.3,1.4-1.9,2.1c0,1.4,0,2.7,0,4c1,1,1.9,1.9,2.9,2.9c6.2,0.3,12.5-0.1,19.1,0.3
		c0,13.3,0,26.2,1.2,39.3c1.2-12.7,1.2-25.8,1.2-38.9c2.4-1.1,4.7-0.5,6.9-0.5c1.1,7.2,1.3,21.3,0.5,39.2c-1,1.2-2.5,0.5-3.7,0.6
		c-1.3,0.1-2.6,0-4.9-0.5c-0.6,0,0.9,1.5,0.9,1.6c0,1.3-0.1,2.7,0,4c0.1,0.9,0.3,1.8,0.4,2.7c21.9,0,43.4,0,64.8,0
		c0.9-0.9,1.6-1.6,2.8-2.8c0-1.2,0-2.8,0-4.4c0-12,0-24,0-36c0-1.6-0.7-3.3,1-4.6c15.7,0,31.3,0,47,0c0.3,0,0.7-0.1,1,0
		c0.3,0.1,0.5,0.4,1.1,1c0,9.9,0,20.1,0,29c1.2,2.3,1.7,3.4,2.6,5.1c10.5,10.5,21.5,21.5,32.8,32.8c101.9,0,204.2,0,306.5,0
		c0.6,0,1.1-0.5,1.7-0.7c0-1.6,0-3.1,0-4.6C1461.5,756.4,1461.2,756.1,1461,756.1z M1142.3,175.5c-0.6,0.3-1.1,0.9-1.6,0.9
		c-17,0-34,0-51.2,0c-0.8-0.8-1.8-1.7-3.1-2.9c0-23.3,0-46.8,0-70c-0.6-0.6-0.8-0.9-1.1-1.1c-0.3-0.1-0.7,0-1,0
		c-166.9,0-333.8,0-500.7,0c-0.3,0-0.7,0-1,0s-0.7,0-1,0c-0.3,0-0.7,0-1,0c-0.3,0-0.7,0-1,0c-0.3,0-0.7,0-1,0s-0.7,0.1-1,0
		c-0.3-0.1-0.5-0.4-0.4-0.3c16.8-16.8,33.7-33.7,51.4-51.4c66.7,0,134.9,0,203.1,0c0.5,1.2,1,2.3,1.8,4.4c1.2-1.9,2.2-3.5,2.9-4.6
		c84.3,0,167.5,0,250.7,0c17.7,17.7,35.3,35.3,53.1,53.1c0,22.4,0,45,0,67.6c0.7,0.8,1.4,1.5,2,2.2
		C1142.3,174.2,1142.3,174.8,1142.3,175.5z M985.8,685.9c-1.5,0-3.1,0-4.7,0c-0.9-8.8-0.9-21.9-0.1-31.6c1.5,0,3.1,0,4.7,0
		C986.6,663.1,986.7,676.3,985.8,685.9z M991.4,686.2c-0.6-0.7-1-0.9-1-1.2c0-10,0-19.9,0-30.7c2.9,0,5.1,0,7.2,0
		c0.4,0.4,0.8,0.7,0.8,0.9c0,10,0,19.9,0,29.9C996.1,687.3,993.5,685.4,991.4,686.2z M1008.4,683.6c0,0.9-0.5,1.8-0.7,2.6
		c-2.3,0-4.3,0-6.2,0c-0.3-0.5-1-1-1-1.5c-0.1-9.9,0-19.8,0-29.6c2.4-1.6,4.7-0.6,7-0.9c0.3,0.5,1,1,1,1.6
		C1008.4,665,1008.4,674.3,1008.4,683.6z M1018.1,733.4c0,0.2-0.4,0.5-0.7,0.7c-2.2-0.3-4.6,0.7-6.9-0.8c0.6-0.7,1.1-1.4,2-2.4
		c0-11.7,0-23.9,0-35.9c1.7-1.7,3.4-0.4,4.9-1c0.4,0.7,1,1.2,1,1.8C1018.3,708.3,1018.2,720.9,1018.1,733.4z M1018.4,685.9
		c-2.3,0-3.8,0-5.2,0c-0.4-0.4-0.7-0.7-0.7-0.9c0-9.9,0-19.9,0-29.8c1.6-1.8,3.5-1,5.4-0.6c0.2,0.3,0.6,0.5,0.6,0.7
		C1018.4,665.2,1018.4,675.2,1018.4,685.9z M1029.8,733.9c-2.9,0-5.8,0-8.7,0c-0.9-8.7-1-29.8-0.1-39.6c2.9,0,5.8,0,8.7,0
		C1030.6,703,1030.7,724.1,1029.8,733.9z M1020.6,683.2c0-8.7,0-17.5,0-25.8c1.2-1.4,2-2.4,2.7-3.2c2.3,0,4.3,0,6.2,0
		c0.3,0.6,0.9,1.1,0.9,1.6c0.1,9.2,0.1,18.5,0,27.7c0,0.9-0.5,1.8-0.7,2.6c-2.3,0-4.2,0-6.3,0
		C1022.5,685.2,1021.6,684.3,1020.6,683.2z M1060.2,733.4c-2.4,1.5-5.1,0.4-7.7,0.6c-2.6,0.2-5.3,0.2-8,0c-2.6-0.1-5.2,0.6-8.2-0.6
		c0-14.6,0-29.2,0-43.8c0-14.3,0-28.6,0-42.5c-0.5-0.5-0.7-0.9-1-1c-0.7-0.1-1.3,0-2,0c-36.6,0-73.3,0-109.9,0
		c-0.9-0.9-1.9-1.9-2.8-2.8c-0.1-0.3-0.2-0.6-0.2-0.9c0-13,0-26,0-39.1c0.8-0.9,1.7-1.8,2.8-2.9c44.5,0,89.1,0,134.2,0
		c0.6,0.5,1.5,1.4,2.5,2.2C1060.6,612.9,1060.9,705.3,1060.2,733.4z M1074.4,685.1c-1.7,1.7-3.4,0.6-5,1c-0.3-0.5-1-1-1-1.6
		c-0.1-9.3-0.1-18.6,0-27.9c0-0.9,0.5-1.8,0.7-2.6c1.6,0,2.9,0,4.3,0c0.3,0.5,1,1,1,1.6C1074.4,665.6,1074.4,675.5,1074.4,685.1z
		 M1084.4,685.9c-2.9,0-5.1,0-7.2,0c-0.4-0.4-0.8-0.7-0.8-0.9c0-10,0-19.9,0-29.9c2.3-2.2,4.9-0.3,7-1.1c0.6,0.7,1,0.9,1,1.2
		C1084.4,665.2,1084.4,675.2,1084.4,685.9z M1096.4,685c0,0.2-0.4,0.5-0.7,0.9c-2.7,0-5.6,0-8.4,0c-0.3-0.3-0.6-0.5-0.8-0.8
		c-0.1-0.3,0-0.6,0-1c0-9.6,0-19.2,0-28.8c0-0.3,0.3-0.5,0.7-1c2.1,0,4.3,0,6.4,0c1,1,2,1.9,2.9,2.7
		C1096.4,666.5,1096.4,675.7,1096.4,685z M1103.7,685.9c-1.5,0-3.1,0-4.7,0c-0.9-8.8-0.9-21.9-0.1-31.6c1.5,0,3.1,0,4.7,0
		C1104.6,663.1,1104.6,676.3,1103.7,685.9z M1117.7,685.9c-0.9,0.1-1.9,0.2-2.8,0.2c-1.9,0-3.9,0-5.8,0c-1-8.8-1-22-0.1-31.8
		c0.9-0.1,1.9-0.2,2.8-0.2c1.9,0,3.9,0,5.8,0C1118.6,663,1118.6,676.1,1117.7,685.9z M1281.6,753.8c-0.3,0.2-0.6,0.3-0.9,0.3
		c-41.6,0-83.3,0-124.5,0c-9.8-9.8-19.5-19.5-29.8-29.8c0-25.1,0-51.3,0-77.2c-0.6-0.5-0.8-0.8-1.1-0.9c-0.3-0.1-0.7,0-1,0
		c-19,0-37.9,0-56.8,0c-0.3-0.3-0.6-0.5-0.8-0.8c-0.1-0.3-0.2-0.6-0.2-0.9c0-16.3,0-32.6,0-49c0-0.3-0.3-0.5-0.5-0.8
		c-0.3-0.2-0.5-0.5-0.8-0.5c-9.3-0.1-18.6-0.2-27.9-0.3c-0.2,0-0.5-0.4-0.6-0.6c18.6-18.6,37.2-37.2,55.9-55.9c0-18.9,0-37.8,0-56.4
		c0.6-0.4,0.9-0.8,1.1-0.8c16,0,31.9,0,47.7,0c0.4,0.4,0.7,0.6,0.8,0.9c0.1,0.3,0.1,0.6,0.1,0.9c0,21.7,0,43.3,0,64.8
		c-10,10-19.9,19.9-30,30c0,3.8,0,6.8,0,9.1c9.2,9.2,18.1,18.1,27,27c-0.2,0.2-0.4,0.4-0.6,0.5c2.8,1.3,5.6,2.7,9.7,4.7
		c43.4,0,88.3,0,132.9,0c0.5,0.6,0.9,0.8,0.9,1.1c0,44.6,0,89.3,0,133.9C1282,753.4,1281.8,753.6,1281.6,753.8z"/>
	<path d="M185.6,1058l-5.3-0.1C181.5,1058.2,183.7,1059.4,185.6,1058z"/>
	<path d="M1651.1,792.1h-172.8c-2.5-1.2-3.6-1.8-6.2-3.1c-1.5-1.5-4.2-4.2-6.5-6.5c-1.4,1.1-2.5,1.9-3.3,2.4v3.3
		c3.6,3.6,6.6,6.6,10.1,10.1h37.1c0.2,0.2,0.4,3.6,0.6,8.6c2.8-0.6,5.7-0.8,8.6-0.9c-0.9-4.7-1.4-7.7-1.3-7.8h40.3c31,0,62,0,93,0
		c0.5,0,1-0.6,1.7-1.1C1651.5,795.5,1653,793.7,1651.1,792.1z"/>
	<path d="M1796.3,1546.8v-534.1c1.1-1.1,2.1-2,2.5-2.4c3.4-1.1,6.5,0.5,9.2-1.1c-0.1-1.8,0.6-3.4-0.7-5.3h-7.6
		c-1.7-1.4-2.7-2.2-3.6-3v-23l-168.2-68.2H1517c-1.1-1.1-2-2.1-2.7-2.8v-4c0.1-0.1,0.2-0.2,0.3-0.3c-0.4-1-0.5-2.1-0.3-3.1
		c-1,0-2,0.1-3,0.1c-0.2,0-0.5,0-0.7,0c-0.1,0.4-0.2,0.9-0.4,1.3c0,0,0,0,0.1,0c0,2.7,0,5.3,0,8c0,0.2-0.4,0.5-0.8,0.8H1365
		c-0.4-0.5-0.7-0.7-0.7-1c0-31,0-62,0-92.9c0-0.3,0-0.7-0.1-0.9c-0.1-0.3-0.4-0.5-1-1c-35.9,0.5-49.8,0.9-86,2.1
		c-0.1,0-2.6-1-2.7-0.8c0.2,0.2,0.4,0.5,0.7,0.7c0.3,0.1,0.6,0.1,1,0.1c0.3,0,0.7,0,1,0h80.9c0.3,0,0.7-0.1,1,0
		c0.3,0.1,0.5,0.4,0.8,0.6c0.1,0.6,0.4,1.2,0.4,1.8c0,29.6,0,59.3,0,88.9c0,0.6-0.2,1.1-0.4,1.7c-0.1,4.9-0.6,9.9-0.5,14.9h263.8
		l158.9,65.9v562.7c8.2,8.2,16.4,16.4,24.7,24.6c0.4,0.4,1.2,0.3,1.3,0.3c3.2-3.2,6.2-6.2,9.5-9.5
		C1810.7,1561.2,1803.2,1553.8,1796.3,1546.8z"/>
	<path d="M1208.3,815.2c3,2,2.5,0,5.5,1.4c0.2,0.6,0.5,1.2,0.5,1.8c0,30,0,60,0,89.9c0,0.3-0.1,0.6-0.2,0.9c0,0.1-0.1,0.1-0.1,0.2
		c0,0.2,0,0.4,0,0.6c0,4.5,0.4,9.2,0.6,14h4.8c-0.4-4.9-0.7-9.7-0.8-14.6c0,0-0.1-0.1-0.1-0.1v-90.4c1.1-1.1,2.1-1.9,2.9-2.7
		c2.5-0.4,2.9,1,4.9-1C1220.6,813.6,1213.5,813.7,1208.3,815.2z"/>
	<path d="M1076.7,907.4l-0.1-0.1v-88.4c0.5-0.4,0.3-2.2,0.6-2.2c14.6,0,79.3,0,93.8,0l-0.3-2.5c-13.8,0-77.7,0-91.7,0
		c-1.6,0-3.3-0.7-4.6,1V907c-0.9,0.9-1.9,1.9-2.8,2.8c-29.7,0.6-80.3,0.4-90.7-0.4c-0.8-0.9-1.7-1.9-2.2-2.4
		c-0.2-5.8-0.4-11.1-0.6-16.4c0-0.2-0.4-0.4-1.2-1c-0.7,3.2-0.3,6.1-0.4,9c-0.1,2.9,0,5.9,0,8.4c-1.4,1.3-2.4,2.2-3,2.7h-71.6
		c-1.5-1.2-2.5-2-3.3-2.7c0-21.3,0-42.3,0-63.3c0-0.3,0-0.7,0.1-0.9c0.1-0.3,0.5-0.5,0.8-0.9c25.1,0,50.4,0,75.7,0
		c0.3,0,0.5,0.3,1.2,0.8c0,2.9-0.1,6.2,0,9.5c0.1,3.2-0.5,6.5,2,9.7c0-6.5,0-12.9,0-20c13.9,0,27.5,0,40.9,0
		c1.8-1.7,3.4-3.4,5.2-5.1c-0.8-1.5,0.4-2.3,1.2-3.3c0.7-1,0.9-2.3,1.5-3.3c0.5-0.8,1.5-1.3,2-2.2c0.6-1,0.8-2.4,1.5-3.4
		c0.7-1.1,1.8-2,2.8-2.8c0.8-0.6,0.9-1-0.2-1.6h-2.1c-2.3,1.4-2.3,4.2-3.9,5.6c-1.9,1.8-2.7,4.3-4.3,6.2c-1.5,1.8-2.7,3.5-3.5,6
		H897.4c-0.5,0.6-0.9,0.8-0.9,1.1c0,22.6,0,45.3,0,67.9c-1,1-1.9,1.9-2.9,2.9c-44.3,0.7-99.4,0.5-110.7-0.5
		c-0.7-0.7-1.4-1.4-2.5-2.5v-68c-0.6-0.5-0.9-0.9-1.1-0.9c-24,0-47.9,0-71.8,0c-1-1-2-2-3-3v-6.1h-2.1v6.3c-0.8,0.7-1.8,1.6-3.2,2.7
		c0.2-0.1-0.1,0.1-0.4,0.1c-72.8,0-145.6,0-218.4,0c-0.3,0-0.7,0-1,0.1c-0.3,0.1-0.5,0.4-1,1V868c-15.9,0-74.9-0.1-86.5-0.1
		c-1.5,1.3-2.5,2.2-3.4,3V910h5c0.9,0.9,1.9,1.9,2.9,2.9v44c-0.7,0.8-1.6,1.7-2.7,2.8h-4.4c-0.4-0.4-0.8-0.6-0.8-0.9
		c0-16.3,0-32.6,0-48.9c-1.2,0.2-2.7-0.6-4.1,1.2v48c-0.6,0.4-0.9,0.8-1.1,0.8c-11.7,0-23.3,0-35,0c-0.3,0-0.7,0-0.9,0.2
		c-0.3,0.1-0.5,0.5-0.9,0.8v69.7c0,2.3,0.1,4.7,0,7c-0.2,2.6,0.6,5.2-0.5,8h-14.4c-1.2-1-2.2-1.9-3.1-2.7c0-5.9,0-11.5,0-17.2
		c0-0.6-0.5-1.1-0.7-1.6h-5.4c-2.3,1.1-3.4,1.6-5.7,2.7c-1.3,1.4-3.6,3.8-6,6.3c-0.1,0.7-0.3,1.6-0.5,2.5c-3.1,0.3-3.1,0.3-5.6-0.8
		c0-0.7-0.1-1.3-0.1-1.4c-2.6-2.7-4.8-5.2-7-7.5c-2.2,0.8-2.8-1.5-4.4-2c-2.8,0.3-5.8-0.7-8.5,0.8v16.2c0,0.7,0.1,1.3,0,2
		c0,0.3-0.4,0.5-0.8,0.8h-16.4c-0.4-0.5-0.7-0.7-0.7-1c0-5.7,0-11.3-0.1-17c0-0.6-0.5-1.1-0.9-1.9c-2.8,0.3-5.7-0.2-8.1,0.2
		c-3.3,3.3-6.1,6.1-8.7,8.7c-0.2,1.1-0.4,2.1-0.6,2.9c-2.1,0-4.2,1.4-5.6-0.9c0-0.6-0.1-1.3-0.1-1.2c-2.6-2.8-4.8-5.3-7-7.6
		c-2.2,0.8-2.8-1.6-4.3-1.9c-1.7,0-3.4-0.2-5,0c-1.9,0.2-4-1-5.6,1c0,5.7,0,11.3,0,17c0,0.3,0.1,0.7,0,1c-0.1,0.3-0.4,0.5-0.7,0.8
		h-22.4c-1.4-1.4-2.6-2.6-3.8-3.8c-3,0-6,0-9,0c-0.6,0-1.1-0.4-2-0.8c0-1.2-0.4-2.6,0.1-3.7c0.8-2,1.8-4,3.2-5.6
		c2.4-2.8,5.1-5.2,7.7-7.8c0.7,0,1.3,0,2.2,0c0.3-0.8,0.6-1.7,0.9-2.4c-1.4-2-2.6-4-5.4-3.8c-2.1-2.1-4.2-4.2-6.4-6.4
		c0.5-2.6-3.8-3.8-1.6-7.4c3.6,0,7.5,0,11.4,0c0.6,0,1.1-0.5,1.7-0.8c0.1-1.6,0.3-3.2,0.4-4.8c1.9-0.2,3.4-0.4,5-0.6
		c1.7-1.7,3.5-3.2,4.9-5c1.5-2,2.6-4.2,3.6-6v-9.1c-1-2.1-1.6-3.2-2.5-5c-1.8-1.8-4.1-4.1-6.7-6.7h-1.7c-0.8-0.9-1.7-1.9-2.7-3.1
		c-0.2-1.3-0.3-2.8-0.6-4.8c-4.3-0.1-8.5-0.2-12.8-0.4c-0.2,0-0.5-0.4-0.7-0.7c0-0.6-0.1-1.3-0.1-2.2c2.3-2.2,4.7-4.4,7.4-6.9h1.5
		c0.8-0.7,1.5-1.4,2.2-2c1.5-0.3,3.3,0.7,4.7-0.8c-1.5-0.9-3.2-1.6-4.4-2.8c-1.4-1.4-3.1-2-4.8-2.9c-1.7-0.9-3.7-2.5-4.1-4.2
		c-0.8-2.9-4.4-5.2-1.9-8.9c3.6-1.4,7.7,0.7,11.7-1.4c-1.2-1-2.2-1.8-3.5-2.8h-10.1c-1.1,1.1-1.9,2.1-2.6,2.8v5
		c1.1,2.5,1.7,3.9,3.2,7.5c1.6,1.6,4.8,4.8,7.9,7.9c-2.1,1-4.6,2.1-7.1,3.3c-0.2,1-0.4,1.9-0.6,2.9c-1.2,1.1-2.5,2.3-3.6,3.3v4.1
		c1,1,1.9,1.9,3,3c1.5,0,3.2-0.1,4.8,0c1.9,0.1,3.9-0.6,5.8,0.6c-0.3,1.7-1.8,2.4-2.8,3.4c0,0-8.1,2.3-8.1,2.3
		c-1.2,1.4-2.6,2.5-3,4.8c-0.4,2.3-2.4,4.3-3.6,6.1v6c0.6,0.6,1.6,1.2,1.5,1.6c-0.4,2.5,2.1,3.7,2.5,6c0.5,2.6,3.7,3.2,5.9,4.4
		c0.7,0.4,1.2,1.3,1.8,2c-2.3,2-5.3-0.2-7.5,1.5c-0.1,0.6-0.2,1.3-0.4,1.8c-1,2.9,3,4.2,2.1,7.2c-0.5,1.5,1.6,2.2,1.7,3.2
		c0.5,3.8,3.2,5.6,6,7c1.3,0.6,2.3,0.9,2.2,2.4c-0.7,4.1-5.6,3-7.2,5.9c-1.6,3-3,6.1-4.7,9.5c0,2.1,0,4.7,0,7.4
		c0,0.2,0.4,0.5,0.7,0.7c2.2,0.1,4.5,0.2,6.3,0.3c1.1,1.1,1.8,1.8,2.6,2.6c0,7-1.3,13.1-2.9,14.3l172.3-0.1c-0.1,0,0.3,4.2,0.8-5.2
		c0.9-16.7,2.2-54.8,2.2-81c0.4-0.4,0.7-0.7,0.9-0.8c0.3-0.1,0.7,0,1,0c86,0,171.9,0,257.9,0c0.3,0,0.7,0,1-0.1
		c0.3-0.1,0.5-0.4,1.1-1V924h453.6C1076.1,918.4,1076.6,912.6,1076.7,907.4z M180.8,986.7c0.7-1.8-1.2-2.6-2.1-3.9c0-1.7,0-3.3,0-5
		c1.6-2.3,2.3-5,4.2-7.3c1.8-2.1,4.7-2,6.5-4.3h7.9c1.4,0.7,3,1.5,5.2,2.6c1,1,2.4,2.4,3.9,3.9c-0.5,2.9,1.6,5.2,2.4,7.9
		c-0.7,0.8-1.3,1.5-2.1,2.4v4.4c-0.7,0.6-1.7,1.5-2.8,2.3c-1,0.8-2,1.6-3.1,2.3c-1,0.7-2.2,1.1-3.9,2h-9.4
		C185.5,991.6,183.2,989.2,180.8,986.7z M202.8,1049c1.2-1.7,3-1,4.5-1c5.6-0.1,11.2,0,16.5,0c0.5-0.6,0.9-0.8,0.9-1.1
		c0.1-0.7,0-1.3,0-2v-15.9c2-2,4.5-0.6,7.2-1.1c0.9,1.4,2,3.1,2.7,4.1h3.1c3.3,2.6,4.1,6.8,6.3,10.1c4-2.1,3.9-2.2,6.8-6.5
		c1.8-2.7,4.3-4.9,6.5-7.5h4.7c0.4,0.4,0.8,0.6,0.8,0.9c0.1,1.3,0,2.7,0,4v11.9c1,1,1.9,1.9,3,3c6.8,0,13.6,0,20.9,0v-18.6
		c1.3-1.5,2.2-2.5,2.9-3.3c2.3,1.4,4.4,3.4,6.7,3.7c4,0.5,3.8,3.9,5.4,6c1.6,2,4.1,3.2,3.4,6.7c4.3-1.1,5.3-3.4,7-4.9
		c0.4-0.4,0.5-1.1,0.7-1.7c1.2-2.8,3.3-4.7,5.9-6c2.3-1.1,4.3-2.8,7.1-1.9c0.2,0.2,0.7,0.5,0.7,0.7c0.2,6.2,0.3,12.5,0.4,18.5
		c0.5,0.4,0.8,0.6,1.1,0.7c0.3,0.1,0.7,0,1,0h16.8c0.4,0.4,0.7,0.6,0.8,0.9c0.1,0.3,0.2,0.6,0.2,0.9L202.8,1049z M395.5,907.9
		c-0.8-0.8-1.5-1.5-2.2-2.2c-0.2-0.2-0.5-0.5-0.6-0.8c-0.1-0.3,0-0.7,0-1V873c0.3-0.3,0.5-0.6,0.8-0.7c0.3-0.2,0.6-0.3,0.9-0.3
		c27.9,0,55.8,0,83.3,0c0.5,0.6,0.9,0.8,0.9,1.1c0.1,0.7,0,1.3,0,2v32.8H395.5z M406.5,957.4c-0.7,0.5-2,1.4-4.1,2.8
		c-1.4,0.2-2.2-2-3.7-3.2c0-14.7,0-29.3,0-44c1.3-0.9,1.9-2.7,3.7-3c2.1-0.2,2.6,1.8,4.1,2.8V957.4z M416.7,959
		c-1.5,1.7-3.3,0.7-5.1,1.1c-0.7-0.9-1.6-1.9-2.7-3.4v-43.8c1-1,1.9-1.9,2.8-2.8c1.3,0,2.6,0,4,0c0.3,0.5,1,1,1,1.5
		C416.7,927.4,416.7,943.3,416.7,959z M428.7,913.1V957c-1.3,1.3-2,2-2.8,2.8h-4.6c-0.9-9.8-0.8-40.6,0-49.6h6.5
		c0.4,0.4,0.7,0.6,0.8,0.9C428.7,911.7,428.7,912.4,428.7,913.1z M438,959.8h-4.7c-0.9-9.2-0.9-40.3,0-49.6h4.7
		C438.9,919.4,438.9,950.5,438,959.8z M448.6,957.1c-2,1.6-2.9,3.9-5.4,2.5c-0.8-9.3-0.8-40,0-49.4h4.6c0.3,0.7,0.7,1.3,0.7,1.8
		C448.7,926.9,448.6,941.9,448.6,957.1z M460.5,957c-0.5,0.6-1.4,1.5-2.2,2.4c-1.6,1.1-3.2,0.3-4.6,0.6c-1.1-1.1-2.1-2-3-3v-44
		c0.9-0.9,1.9-1.9,2.9-2.9h4.1c0.8,0.7,1.7,1.6,2.8,2.7V957z M467.8,959.8h-4.6c-0.8-9.5-0.8-40,0-49.4c0.6-0.1,1.2-0.4,1.8-0.4
		c1,0,1.9,0.1,2.7,0.1c0.8,0.8,1.5,1.5,2.2,2.2c0.2,0.2,0.6,0.5,0.6,0.7c0,14.6,0,29.1,0,43.8C469.3,958.3,468.6,959,467.8,959.8z
		 M480.5,957.4c-0.7,0.5-2,1.4-4.1,2.8c-1.4,0.2-2.2-2-3.7-3.2c0-14.7,0-29.3,0-44c1.2-1,2-2.5,3.1-2.9c2.7-0.3,3.2,1.7,4.7,2.7
		V957.4z M490,959.8c-1.2,0.1-2.5,0.1-4.6,0.3c-0.5-1-1.3-2.4-2.8-5.2V915c1.3-1.3,2-2,2.8-2.8h4.6C490.8,921.5,490.9,950,490,959.8
		z M502.6,956.1c-1.3,1.6-2.3,2.9-3.8,4.8c-1.8-1.7-2.8-2.5-3.9-3.6v-44.6c2.1-1.3,4.6-0.8,7.1-0.4c0.3,0.3,0.7,0.6,0.7,0.8
		C502.6,927.7,502.6,942.3,502.6,956.1z M512.6,957.1c-0.9,0.8-1.9,1.6-3.1,2.7h-4.3c-0.8-9.9-0.8-38.4,0-47.6
		c1.2-0.1,2.5-0.1,4.1-0.2c0.8,0.7,1.8,1.6,2.5,2.2c0.4,0.5,0.7,0.7,0.7,1C512.6,929.1,512.6,943,512.6,957.1z M515.3,959.7
		c-0.3-0.3-0.7-0.6-0.7-0.8c0-15.3,0-30.6,0-46.6h7.2c0.4,0.4,0.7,0.7,0.7,0.9c0,15.3,0,30.6,0,45.9
		C520.3,960.6,517.7,960,515.3,959.7z M532,959.8h-4.7c-0.9-9.1-0.9-38.2,0-47.4c0.6-0.1,1.2-0.3,1.8-0.3c1,0,1.9,0.1,2.8,0.2
		C532.8,921.3,532.9,950.3,532,959.8z M541.9,959.8h-4.7c-0.9-9.3-0.9-38.4,0-47.6c0.9-0.1,1.9-0.2,2.8-0.2c0.6,0,1.2,0.2,1.8,0.3
		C542.8,921.5,542.8,950.6,541.9,959.8z M554.6,956.5c-1.2,1.3-2.2,2.5-3,3.4c-2.6,0.5-3.2-1.4-4.4-2.3c-0.2-0.3-0.5-0.5-0.5-0.8
		c0-14.6,0-29.1,0-44.6h7.3c0.3,0.7,0.7,1.3,0.7,1.9C554.6,928.3,554.6,942.5,554.6,956.5z M564,959.8h-4.5c-1-1-2-1.9-2.9-2.7
		v-42.2c0.8-0.7,1.9-1.5,3.3-2.7h4C564.8,921,564.9,949.3,564,959.8z M574,959.6c-0.6,0.1-1.2,0.3-1.8,0.3c-1,0-1.9-0.1-2.8-0.2
		c-0.9-9.1-0.9-38.2,0-47.6h4.7C574.8,921.3,574.8,950.4,574,959.6z M586,959.8h-4.6c-0.8-0.8-1.5-1.5-2.2-2.2
		c-0.2-0.6-0.6-1.2-0.6-1.7c0-13.3,0-26.5,0-39.8c0-1.2-0.6-2.7,0.8-3.9h6.5C586.8,921,586.8,949.7,586,959.8z M596.6,959.8
		c-1.9,0.1-3.2,0.1-4.8,0.2c-0.8-0.8-1.8-1.6-2.6-2.4c-0.3-0.4-0.6-0.7-0.6-0.9c0-13.9,0-27.8,0-41.8c0.9-0.9,1.9-1.8,2.8-2.7h4.5
		c0.3,0.5,0.7,0.8,0.7,1C596.6,928.5,596.6,943.7,596.6,959.8z M605.6,959.8h-4.2c-0.4-0.5-0.7-0.7-0.7-1c0-15.3,0-30.5,0-45.9
		c2.3-1.5,4.9-0.9,7.3-0.6c0.3,0.3,0.7,0.6,0.7,0.8c0,14.6,0,29.2,0,44C607.7,957.9,606.7,958.7,605.6,959.8z M777.3,906
		c-97.2,0-194.4,0-292.5,0v-61c0.6-0.6,1.4-1.6,2.3-2.5c12.9-0.9,171.4-1.2,290.5-0.5c0.2,0.2,0.5,0.4,0.7,0.7
		c0.2,0.3,0.3,0.6,0.3,0.9c0,20.6,0,41.2,0,61.4C777.8,905.6,777.6,906,777.3,906z"/>
	<path d="M2209.9,1005.6c0-0.3-0.1-0.6-0.2-0.9c-0.2-0.3-0.5-0.5-0.7-0.7c-79.7-0.8-186.2-0.5-199.3,0.6c1.1,1.7-0.7,3.7,1.3,5.3
		c60.6,0,121.3,0,182,0c0.9,0.9,1.8,1.9,2.7,2.8c0,52.8,0,125.7,0,178.6c-2.8,1-5.4,0.3-8,0.5c-2.7,0.1-5.3-0.1-8,0.1
		c-2.5,0.2-5.2-0.8-7.7,0.7c0.2,0.3,0.4,0.8,0.6,0.8c7.6,0.2,15.1,0.4,23.4,0.7c0,55.4,0,115,0,169.6c0,0.7,0.1,1.3,0,2
		c0,0.3-0.4,0.5-1,1c-7,0-14.3,0-21.6,0c-0.3,0-0.6,0.2-0.8,0.4c-0.2,0.2-0.4,0.5-0.5,0.7c0.2,0.2,0.5,0.7,0.7,0.7
		c7.3,0.1,14.6,0.2,21.9,0.2c0.3,0,0.5,0.3,1.3,0.8c0,56.9,0,89.1,0,146.3c0,0.3,0,0.7-0.2,0.9c-0.2,0.3-0.5,0.5-0.8,0.8
		c-60.2,0-120.4,0-180.7,0c-0.3,0-0.7-0.1-1,0c-0.3,0.1-0.5,0.4-1.2,0.9c0,17.6,0,35.5,0,53.5c0,0.5,0.6,1.1,0.9,1.6
		c1.6-0.3,3.3,0.7,5-0.9c0-14,0-28.3,0-42.5c0-1.5-0.7-3.3,1.1-4.5c1.7,0,3.3-0.1,5,0c1.9,0.2,4-0.7,6,1c0,12.6,0,25.5,0,36.9
		c1.2,2.5,1.7,3.6,2.2,4.6c-0.9,1-1.6,1.7-2.3,2.5c0,13,0,26,0,38.9c0,0.3,0.1,0.7,0,1c-0.1,0.3-0.4,0.5-0.8,0.8
		c-3.5,0-7.1,0-10.5,0c-1.8-3.2,0.4-6.7-1.3-9.6c-1.8-0.1-3.4-0.6-4.9,0.4c-1.3,3,0.6,6.5-1.4,9.5c-18.7,0-37.4,0-56,0
		c-0.2,0-0.5-0.4-1.1-0.9c0-11,0-22.2,0-33.5c0-0.3-0.2-0.6-0.3-0.8c-0.2-0.3-0.5-0.4-0.9-0.9c-1.9,0.9-4.4-0.8-6.8,1.3
		c0,11.3,0,22.8,0,34.1c-0.6,0.4-0.9,0.8-1.1,0.8c-24.6,0-49.3,0-73.7,0c-4.9-4.9-9.6-9.6-14.3-14.3c-0.9-0.9-1.7-2-2.8-1.8
		c-3.3,3.3-6.4,6.4-9.3,9.3c6.6,6.6,13.6,13.6,20.8,20.8c95.7,0,191.6,0,286.6,0c19.5-19.5,38.6-38.6,57.8-57.8
		C2209.9,1380.6,2209.9,1193.1,2209.9,1005.6z M2114.6,1525.8c1.5,0,3.1,0,4.6,0c0.3,0.7,0.7,1.3,0.7,1.9c0,11.6,0,23.2,0,35.1
		c-2,1.6-2.9,3.9-5.4,2.5C2113.7,1555.7,2113.8,1534.9,2114.6,1525.8z M2104,1525.8c2.3,0,3.8,0,5.2,0c0.4,0.4,0.8,0.7,0.8,0.9
		c0,12.6,0,25.2,0,37.8c-1.6,1.8-3.5,1-5.4,0.6c-0.2-0.2-0.6-0.5-0.6-0.7C2104,1551.9,2104,1539.3,2104,1525.8z M2094.6,1526
		c0.6-0.1,1.2-0.4,1.8-0.4c1,0,1.9,0.1,2.8,0.2c0.9,8.7,1,29.7,0.1,39.4c-0.6,0.1-1.2,0.4-1.8,0.4c-1,0-1.9-0.1-2.8-0.2
		C2093.8,1556.8,2093.7,1535.8,2094.6,1526z M2084.7,1525.8c1.5,0,3.1,0,4.7,0c0.9,9.2,0.9,30.4,0,39.6c-1.5,0-3.1,0-4.7,0
		C2083.8,1556.3,2083.7,1535.1,2084.7,1525.8z M2079,1525.5c0.6,0.7,1,1,1,1.2c0,12.6,0,25.2,0,38.7c-2.2,0-3.8,0-5.2,0
		c-0.4-0.4-0.8-0.7-0.8-0.9c0-12.6,0-25.2,0-37.8C2075.5,1524.6,2077.6,1526.4,2079,1525.5z M2034.6,1611.2
		c-0.2-0.2-0.6-0.5-0.6-0.7c0-12.6,0-25.2,0-38.7c2.2,0,3.8,0,5.2,0c0.4,0.4,0.8,0.7,0.8,0.9c0,12.6,0,25.2,0,37.8
		C2038.4,1612.5,2036.5,1611.5,2034.6,1611.2z M2040,1564.6c-1.7,1.7-3.4,0.6-5,1c-0.3-0.5-1-1-1-1.6c-0.1-11.9-0.1-23.9,0-35.8
		c0-0.9,0.5-1.8,0.7-2.6c1.6,0,2.9,0,4.3,0c0.3,0.5,1,1,1,1.6C2040,1539.8,2040,1552.3,2040,1564.6z M2051.8,1608.7
		c-1,1-1.9,1.9-2.8,2.8c-1.3,0-2.6,0-3.9,0c-0.3-0.5-1-1-1-1.5c-0.1-11.9,0-23.7,0-35.5c1.4-0.9,2-2.8,3.8-3
		c2.1-0.1,2.6,1.9,4.1,2.8C2051.8,1585.8,2051.8,1597.3,2051.8,1608.7z M2048.6,1565.6c-2.2,0.4-2.8-1.6-3.9-2.3
		c-1-1.5-1-27.4,0-37.5c1.2-0.1,2.5-0.1,4.1-0.2c0.8,0.7,1.8,1.6,2.5,2.2c0.4,0.5,0.8,0.7,0.8,1c0,10.6,0,21.1,0,31.7
		C2049.7,1561.4,2051,1564.8,2048.6,1565.6z M2054.7,1525.8c1.2-0.1,2.5-0.1,4.1-0.2c0.8,0.8,1.8,1.6,2.5,2.3c0.3,0.4,0.7,0.7,0.7,1
		c0,11.2,0,22.5,0,33.8c-0.9,0.9-1.9,1.8-2.9,2.7c-1.5,0-3,0-4.6,0C2053.7,1554.7,2053.8,1534.6,2054.7,1525.8z M2062,1608.7
		c-0.9,0.8-1.9,1.6-3.1,2.7c-1.2,0-2.8,0-4.2,0c-0.4-0.4-0.7-0.7-0.7-0.9c0-11.9,0-23.8,0-35.3c1.2-1.3,2.2-2.5,3-3.4
		c2.6-0.5,3.2,1.4,4.4,2.3c0.2,0.3,0.5,0.5,0.5,0.8C2062,1586,2062,1597.3,2062,1608.7z M2064.6,1525.6c1.2,0,2.5-0.1,3.8,0
		c0.6,0.1,1.1,0.6,1.6,1c0.2,0.2,0,0.6,0,1c0,12.3,0,24.6,0,36.8c0,0.2-0.4,0.5-0.7,0.9c-1.4,0-3,0-4.5,0
		C2063.8,1556.9,2063.7,1536,2064.6,1525.6z M2195.8,1561.7c-16.5,16.5-32.9,32.9-49.9,49.9c-26.1,0-53.4,0-80.7,0
		c-0.3,0-0.5-0.4-1-0.7c0-12.7,0-25.6,0-38.4c0.3-0.3,0.5-0.6,0.8-0.7c0.3-0.1,0.6-0.1,1-0.1c19.6,0,39.2,0,58.9,0
		c0.3,0,0.5-0.4,1.1-0.8c0-14,0-28.2,0-42.1c1-1,1.7-1.7,2.4-2.4c9-0.9,58.1-0.9,67.5,0C2195.8,1538.2,2195.8,1550.1,2195.8,1561.7z
		"/>
	<path d="M702.3,747.4c0-1.4,0-3.7,0-5.3l-1.7,0c-10.7,0-21.3,0-32-0.1c-1.2,0-2.7,0.6-4.1-0.9c0-34.5,0-69.4,0-103.9
		c-0.6-0.6-0.8-0.9-1-1c-0.3-0.1-0.6-0.1-1-0.1c-15.6,0-31.3,0-46.9,0c-0.3,0-0.7,0-1,0s-0.7,0.1-1,0c-0.3-0.1-40.5-0.4-40.9-0.8
		c0-20.1,0-60.3,0-80.4c0.8-0.8,1.5-1.5,2.2-2.2c0.3-0.2,0.5-0.5,0.8-0.6c0.7-0.1,1.3,0,2,0c18,0,75.9,0,94.1,0
		c1.3,2.8,0.5,5.8,0.7,8.7c0.1,2.9,0,25.9,0,28.5c0.8,0.5,1,0.7,1.3,0.8c0.3,0.1,0.7,0,1,0c33.6,0,67.2,0,100.7,0c1.1,1.1,2,2,3,3
		c0,47.2,0,94.5,0,142.1c-0.8,0.6-1.8,1.5-3.3,2.7c-2.6,0-5.9,0-10.1,0c-0.5-0.6-1.6-1.8-2.4-2.8c0-1.7,0-3,0-4.2
		c2.3-2,5.3,0.2,7.7-1.6c0-22.7,0-45.6,0-68.4c-0.3-0.3-0.5-0.6-0.8-0.8c-0.3-0.1-0.6,0-1,0c-13,0-26,0-39.1,0
		c-0.8,0.9-1.7,1.9-3,3.3c0,25.7,0,51.9,0,78.6c-7.2,0.2-15.1,0.1-21.9,0.1c0,0,0,3.3,0,5.2C703.3,747.4,703.4,747.4,702.3,747.4z
		 M729.5,654.1c12.7,0,25.3,0,38,0c0.7,0,1.3,0.1,2,0c0.3,0,0.5-0.4,0.8-0.8c0-18.1,0-36.3,0-54.4c-0.5-0.4-0.7-0.6-1-0.7
		c-0.3-0.1-0.7,0-1,0c-0.3,0-0.7,0-1,0c-30.3,0-60.6,0-90.9,0c-2.7,0-5.3,0-8,0c-0.3,0-0.7,0-1-0.1c-0.3-0.1-0.5-0.4-1.1-1
		c0-5.2,0-30.8,0-36.2c-0.9-0.3-1.5-0.6-2.1-0.6c-14,0-68,0-82,0c-0.3,0-0.6,0.1-0.9,0.2c-0.3,0.2-0.5,0.5-0.8,0.8
		c0,15.2,0,50.5,0,65.8c0,0.3,0.4,0.5,0.9,1.2c1.3,0,42.9,0,44.5,0c13.3,0,26.6,0,40,0c1.6,0,3.3-0.6,4.6,1c0,34.3,0,68.6,0,102.9
		c0,0.3-0.1,0.7,0,1c0.1,0.3,0.5,0.4,0.9,0.9c16,0,32.2,0,48.2,0c0.4-0.4,0.7-0.7,0.8-0.9c0.1-0.3,0-0.7,0-1c0-35.3,0-70.6,0-105.9
		c0-0.3,0-0.7,0.1-1c0.1-0.3,0.4-0.5,0.7-0.7c1.6,0,3.1,0,4.6,0c0.3,0.5,0.7,0.8,0.7,1c0,8.6,0,17.3,0,25.7
		C727.7,652.3,728.6,653.2,729.5,654.1z"/>
	<path d="M196.8,554.3c46.9,0,143.1,0,189.1,0c1.4,1.8,0.7,3.5,0.7,5.1c-0.9,0.9-1.9,1.9-2.9,2.9c-45.2,0-140.5,0-185.9,0
		c-0.2,0-0.5,0.4-0.9,0.8c0,24.4,0,49,0,74.4c-0.9,0.7-2.2,1.7-3.4,2.7c-1.4,0-2.7,0-3.9,0c-0.3-0.6-0.8-1.2-0.8-1.7
		c0-50,0-99.9-0.1-149.9c0-2.6,0.6-5.2-0.5-8.1c-4.9,0-9.8,0-13.9,0c-1.6-1.4-2.7-2.2-3.5-2.9c-0.4-2.7,1.7-3.6,2.9-5.2
		c4.6,0,9.3,0,13.9,0c0.2,0,0.5-0.4,1.1-0.9c0-24.6,0-49.5,0-74.1c2.5-1.7,4.9-0.3,6.9-1.1c0.5,0.8,1,1.3,1,1.9
		c0.1,4.6,0,9.2,0,13.6c2.7,1.2,5,0.6,7.3,0.7c2.7,0.1,5.3,0,8,0c2.2,0,4.5-0.3,6.9,0.4c-0.5,0.7-0.6,1-0.8,1.2
		c-0.2,0.2-0.5,0.4-0.8,0.4c-6.6,0-13.2,0-19.5,0c-0.6,0.5-1,0.8-1,1c-0.1,0.7,0,1.3,0,2C196.8,462.6,196.8,507.9,196.8,554.3z"/>
	<path d="M1950,905c0,5.3,0,10.7,0,16.2c2.7,1.5,5.7,0.6,8.6,0.8c2.9,0.2,5.9,0,8.5,0c0.5,0.7,0.9,0.9,0.9,1.2c0,28.6,0,57.3,0,85.8
		c-0.3,0.3-0.5,0.6-0.8,0.8c-0.3,0.2-0.6,0.2-0.9,0.2c-7.3,0-14.5,0-21.5,0c-1.2-2-0.7-3.6-0.6-5.2c0.6-0.3,1.1-0.8,1.7-0.8
		c4.3-0.1,8.7,0,13.3,0c0.7-0.9,1.6-1.9,2.7-3.2c0-23.1,0-46.6,0-70c-0.4-0.4-0.7-0.6-1-0.7c-0.3-0.1-0.7,0-1,0c-5,0-10,0-15.4,0
		c-0.9-2.9-0.4-5.8-0.5-8.7c-0.1-2.7,0-5.3,0-8.2c-0.8-0.9-1.7-1.8-2.8-2.9c-20.5,0-41,0-60.9,0l-200.1-100c0-6.2,0-63.8,0-71.3
		c5.9-0.8,4.3-1.1,5.9-1.5c0,0-0.1,51.8-0.1,52.3c0.1,5,0,10,0,15c0.5,1.5,2.7,2.1,2.1,3.9c-0.3-1.8,192.7,92.7,192.7,92.7
		c1.7,0.9,2.8,1.4,4.8,2.5c-0.4-0.1,0.2,0.2,0.8,0.2c19.6,0,39.3,0,58.9,0C1947,904,1948.8,903.4,1950,905z"/>
	<path d="M1955.2,1517.8c-0.3-0.1-0.6-0.2-0.9-0.2c-18,0-36,0-53.9,0c-0.3,0-0.7,0.1-1,0c-0.3-0.1-0.5-0.3-0.7-0.4
		c-0.3,0-0.6,0.1-0.9,0.1c-0.5,0-0.9-0.1-1.3-0.2c-0.4,0.1-0.8,0.2-1.2,0.2c-0.2,0-0.5,0-0.7,0c-0.2,0-0.5,0-0.7,0
		c-0.4,0-0.7,0-1-0.1c-0.3,0.1-0.6,0.1-1,0.1c-0.2,0-0.5,0-0.7,0c-0.2,0-0.5,0-0.7,0c-0.3,0-0.6,0-0.8-0.1c0,0.1,0,0.1,0,0.2h-10.7
		c-6.2-6.2-14.3-15.2-20.8-21.7v-83c1.3-1.2,2.2-2.1,3.1-3c9.1,0,18.1,0,27.1,0c0.2,0,0.3,0,0.5,0c0.6-0.3,1.3-0.5,2.2-0.5
		c0.9,0,1.8,0.2,2.4,0.6c0.5-0.2,1.1-0.3,1.8-0.3c0.2,0,0.5,0,0.7,0c0.5-0.2,1.2-0.3,1.9-0.3c0.1,0,0.2,0,0.3,0c0-1.3,0-2.6,0-3.8
		c0-0.3,0-0.7-0.2-0.9c-0.2-0.3-0.5-0.5-0.8-0.8c-14.5,0-29.1,0-43.8,0c-0.3,0-0.5,0.4-1.2,0.9c0,18.9,0,73.2,0,92.4
		c0,0.2,0.1,0.5,0.3,0.7c-0.2,0.4-0.4,0.7-0.6,1.1c8.1,8.1,17.8,18.8,25.7,26.7c22,0,44.3,0,66.6,0c0.3,0,0.7,0,0.9,0.1
		c0.3,0.1,0.5,0.4,1.1,1v26.6h5c1-0.9,1.9-1.8,2.8-2.7v-24c0.7-0.8,1.4-1.5,2.2-2.4C1955.2,1522.3,1957.1,1519.8,1955.2,1517.8z"/>
	<path d="M1890.1,1187.7c-10,0-19.2,0-29,0c-0.6-0.6-1.6-1.4-2.4-2.2c-0.3-0.4-0.5-0.7-0.6-0.9c-0.1-0.3,0-0.7,0-1
		c0-40.2,0-80.5,0-120.7c6.4-1.3,15.1-1.5,31.4-0.5c0.2,0.2,0.5,0.4,0.5,0.7c2.7,0.1,5.4-0.2,8-0.5c0-2.2,0-4.5,0-6.7
		c0-0.3,0-0.7-0.1-1c-0.1-0.3-0.4-0.5-0.7-0.7c-14.9,0-29.8,0-44.5,0c-0.4,0.5-0.7,0.7-0.7,1c0,45.9,0,91.8,0,137.6
		c0,0.2,0.4,0.5,0.6,0.7c20.4,1,39.2,0.7,45.3-0.6c0-2.1,0-4.2,0-6.4c-2.6,0.2-5.3,0.4-8,0.6
		C1890.1,1187.3,1890.1,1187.5,1890.1,1187.7z"/>
	<path d="M1897.9,1230.7c-0.1-0.3-0.5-0.5-0.8-0.9c-14.5,0-29.1,0-43.7,0c-0.3,0-0.5,0.3-0.8,0.5c-0.2,0.3-0.5,0.5-0.5,0.8
		c0,45.9,0,91.8,0,137.6c5.9,1.4,24.1,1.6,46,0.6v-6.8c-0.7,0.4-1.6,0.7-2.6,0.7c-0.8,0-1.5-0.2-2.1-0.4c-0.4,0.1-0.8,0.2-1.3,0.2
		c-0.8,0-1.5-0.1-2.1-0.4c0,0.2-0.4,0.5-0.7,0.9h-30.5c-0.2-0.2-0.5-0.4-0.7-0.7c-0.1-0.3-0.1-0.6-0.1-1c0-40.9,0-81.8,0-122.9
		c0.8-0.8,1.6-1.8,2.7-2.9h26.4c0,0,0,0,0.1,0.1c3.7-0.1,7.3-0.3,10.8-0.4c0-1.4,0-2.7,0-4.1
		C1898.1,1231.3,1898,1230.9,1897.9,1230.7z"/>
	<path d="M1901.6,1366.7c-0.3,0.7-0.8,1.4-1.3,2c5.4,0,10.8,0,16.3,0c0.3,0,0.6-0.2,0.8-0.4c0.2-0.2,0.3-0.5,1.1-1.6
		C1912.5,1366.7,1906.9,1366.8,1901.6,1366.7z"/>
	<path d="M202,915.8c-4.1,0-8.3,0-12.5,0c-0.3-0.3-0.6-0.5-0.7-0.8c-0.1-0.3,0-0.6,0-1c0-28.2,0-56.5,0-84.7c0-0.3-0.3-0.5-0.7-1.1
		c-4.7,0-9.6,0-14,0c-1.3-1.3-2.3-2.2-3.2-3.1c0-3.4,0-6.7,0-10c0.2-0.2,0.4-0.5,0.7-0.7c0.3-0.2,0.6-0.3,0.9-0.3
		c9.9,0,19.8,0,29.4,0c0.5,0.6,0.9,0.8,0.9,1.1c0,33.2,0,66.5,0,99.7C202.7,915.1,202.4,915.3,202,915.8z"/>
	<path d="M126.8,843c1.3,1.3,2,2,2.8,2.8c6.2,0,12.4,0,18.2,0c1-0.7,1.6-1.2,2.7-2c0,5.7,0,10.6,0,15.5c-1.9-0.3-1.9-0.3-2.8-1.2
		c-6.7,0-13.3,0-19.3,0c-2,1-3.3,1.7-5.5,2.8c-1.2,1.2-3.1,3.1-5.2,5.2c-3-3-6-6-9-9c-0.2-0.2,0-0.6,0-1c0.2-0.5,0.3-1.2,0.7-1.6
		c3.7-3.8,7.5-7.6,11.3-11.3c0-37.3,0-74.5,0-111.8c0-0.3,0.4-0.5,0.7-1c1.4,0,3,0,4.5,0c0.3,0.7,0.7,1.2,0.7,1.8
		C126.8,769,126.8,806,126.8,843z"/>
	<path d="M185.9,704.2c-4.6,0-9.5,0-14.7,0c-0.2-1.2-0.4-2.1-0.4-3c-0.1-0.7,0-1.3,0-2c0.5-0.3,1-1,1.6-1c6.6-0.1,13.2,0,19.5,0
		c0.5,0.6,0.9,0.8,0.9,1.1c0,29.2,0,58.5,0,87.7c0,0.2-0.4,0.5-0.8,0.9c-1.4,0-3,0-4.4,0c-0.4-0.4-0.7-0.6-0.8-0.9
		c-0.1-0.7,0-1.3,0-2c0-25.3,0-50.5,0-75.8c0-0.7,0-1.3,0-2c0-0.3,0-0.7,0-1s0.1-0.7,0-1C186.6,705,186.4,704.8,185.9,704.2z"/>
	<path d="M456.7,412.1c-2.9,0-5.1,0-7.2,0c-0.4-0.4-0.8-0.7-0.8-0.9c0-23.2,0-116.4,0-139.3c1.1-1.5,2.1-2.8,2.5-3.4
		c3.1-0.6,3.7,1.4,4.9,2.1c0.3,0.4,0.6,0.7,0.6,1C456.7,294.8,456.7,388,456.7,412.1z"/>
	<path d="M822.7,653.4c0-2.1,0-4.3,0-6.5c8.5-0.9,25.6-1,35.8-0.1c0,1.6,0,3.2,0,4.8c0,1.4,0,2.6-2,2.6c-11,0-21.9,0-32.9,0
		C823.4,654.1,823.1,653.7,822.7,653.4z"/>
	<path d="M1854.3,1009.9c0-2.2,0-3.8,0-5.2c0.4-0.4,0.7-0.8,0.9-0.8c15.3,0,30.6,0,45.8,0c1.9,1.6,1,3.5,0.7,5.4
		c-0.2,0.2-0.5,0.6-0.7,0.6C1885.7,1009.9,1870.4,1009.9,1854.3,1009.9z"/>
	<path d="M822.7,600.2c-0.1-1.9-0.2-3.2-0.2-4.7c0.7-0.8,1.6-1.8,2.3-2.5c0.5-0.3,0.7-0.7,1-0.7c9.9,0,19.8,0,29.8,0
		c0.9,0.9,1.8,1.9,2.7,2.9c0,1.4,0,3,0,4.4c-0.5,0.3-0.7,0.7-1,0.7C846,600.2,834.8,600.2,822.7,600.2z"/>
	<path d="M1964.1,1367.7c-0.6,0.6-0.8,1-1,1c-7.3,0-14.6,0-21.8,0c-0.2,0-0.5-0.4-0.8-0.6c0.2-0.4,0.4-1.3,0.7-1.3
		c7.3-0.1,14.6-0.1,21.8,0C1963.1,1366.8,1963.4,1367.1,1964.1,1367.7z"/>
	<path d="M2010.1,1367.8c-1.8,1.6-3.6,0.9-5.1,0.9c-6.2,0.1-12.4,0-19,0c0.6-1.1,0.9-1.9,1.1-1.9c7.3-0.1,14.6-0.1,21.8,0
		C2009.2,1366.8,2009.4,1367.2,2010.1,1367.8z"/>
	<path d="M2056,1367.7c-0.6,0.6-0.9,1-1.1,1c-7.3,0-14.6,0-21.8,0c-0.2,0-0.5-0.4-0.8-0.7c0.2-0.4,0.5-1.3,0.7-1.3
		c7.3-0.1,14.6-0.1,21.8,0C2055.1,1366.8,2055.4,1367.2,2056,1367.7z"/>
	<path d="M2102.3,1367.5c-1,0.8-1.2,1.2-1.5,1.2c-7.3,0-14.6,0-21.8,0c-0.2,0-0.5-0.4-0.7-0.6c0-0.3-0.1-0.7,0-0.7
		C2080.6,1366.4,2091.6,1366.4,2102.3,1367.5z"/>
	<path d="M1939.7,1193.1c1-0.8,1.2-1.2,1.5-1.2c7.3,0,14.6,0,21.8,0c0.2,0,0.5,0.4,0.7,0.6c0,0.3,0.1,0.7,0,0.7
		C1961.4,1194.2,1950.5,1194.2,1939.7,1193.1z"/>
	<path d="M2010.1,1192.9c-1.8,1.6-3.6,0.9-5.1,0.9c-6.2,0.1-12.4,0-19,0c0.6-1.1,0.9-1.9,1.1-1.9c7.3-0.1,14.6-0.1,21.8,0
		C2009.2,1191.9,2009.4,1192.3,2010.1,1192.9z"/>
	<path d="M310.7,413.3c-6,1.4-16,1.4-22,0C294.7,411.9,304.7,411.9,310.7,413.3z"/>
	<path d="M356.9,412.9c-0.8,0.9-1,1.3-1.3,1.3c-6.6,0-13.2,0-19.8,0c-0.2,0-0.5-0.4-0.7-0.6C337.1,411.9,342.9,411.7,356.9,412.9z"
		/>
	<path d="M2125.6,1368c1-0.8,1.2-1.2,1.5-1.2c6.6,0,13.2,0,19.8,0c0.2,0,0.5,0.4,0.7,0.6c0,0.2,0,0.6-0.1,0.7
		C2145.3,1369.1,2136.1,1369.1,2125.6,1368z"/>
	<path d="M2126,1192.8c6-1.4,16-1.4,22,0C2142,1194.2,2132,1194.2,2126,1192.8z"/>
	<path d="M242.7,413.3c0.6-0.6,0.9-1,1.1-1c6.6,0,13.2,0,19.8,0c0.2,0,0.5,0.4,0.8,0.7c-0.2,0.4-0.5,1.3-0.8,1.3
		c-6.6,0.1-13.2,0.1-19.8,0C243.6,414.3,243.3,413.9,242.7,413.3z"/>
	<path d="M2079.9,1192.8c0.6-0.6,0.9-1,1.1-1c6.6,0,13.2,0,19.8,0c0.2,0,0.5,0.4,0.8,0.7c-0.2,0.4-0.5,1.3-0.8,1.3
		c-6.6,0.1-13.2,0.1-19.8,0C2080.8,1193.8,2080.6,1193.4,2079.9,1192.8z"/>
	<path d="M2056,1192.8c-0.6,0.6-0.8,1-1,1c-6.6,0-13.2,0-19.8,0c-0.2,0-0.5-0.4-0.8-0.6c0.2-0.4,0.4-1.3,0.7-1.3
		c6.6-0.1,13.2-0.1,19.8,0C2055.1,1191.9,2055.3,1192.2,2056,1192.8z"/>
	<path d="M441.8,413.2c-3.9,1.7-6.6,0.8-9.1,1.1c-0.5,0-1.1-0.4-1.7-0.7C433.2,412,433.2,411.9,441.8,413.2z"/>
	<path d="M688.6,773.4"/>
	<path d="M714.5,814.1"/>
	<path d="M690.5,802.1"/>
	<path d="M690.8,802.6"/>
	<path d="M833.8,100.8c-0.9-0.9-1.3-1.2-1.3-1.4c0-6.6,0-13.2,0-19.8c0-0.2,0.4-0.5,0.6-0.7C834.9,81,835.1,86.9,833.8,100.8z"/>
</g>
<path d="M1900.7,1193.1c1-0.8,1.2-1.2,1.5-1.2c7.3,0,14.6,0,21.8,0c0.2,0,0.5,0.4,0.7,0.6c0,0.3,0.1,0.7,0,0.7
	C1922.4,1194.2,1911.5,1194.2,1900.7,1193.1z"/>
<g>
	<defs>
		<rect id="SVGID_1_" x="2092.6" y="1047.8" width="92.7" height="133.6"/>
	</defs>
	<clipPath id="SVGID_00000125560799122649407000000013345197390747406771_">
		<use xlink:href="#SVGID_1_"  style="overflow:visible;"/>
	</clipPath>
	<path style="clip-path:url(#SVGID_00000125560799122649407000000013345197390747406771_);fill:#00BCE8;" d="M2140.5,1084.5
		l-3.7,21.5l22.6,3.9c-3.7,7.7-10.4,10.4-19.2,10.6c-14.8,0.4-24.8-5.7-26.3-24.5c-0.9-11.1,5.6-27.4,26.3-27.3
		c17.1,0,22.2,16.6,22.2,16.6l20.4-10.4c-11.1-19.3-25.9-27-42.2-27c-16.3,0-47.8,8.1-47.8,45.9c0,29.7,20.9,43.7,37.7,48
		c0.1,12.1-17.7,31.2-24.7,38.2l1.9,1.5c1.1-1.1,24.1-23.3,25.3-39.2c2.2,0.3,6,0.4,8,0.4c18.2,0,44.1-14.4,44.5-49.2L2140.5,1084.5
		z"/>
</g>
<g>
	<defs>
		<rect id="SVGID_00000168802944266927135000000003334614277760953239_" x="2077.1" y="1212.4" width="119" height="138.3"/>
	</defs>
	<clipPath id="SVGID_00000178891451432987140550000017947918806807835059_">
		<use xlink:href="#SVGID_00000168802944266927135000000003334614277760953239_"  style="overflow:visible;"/>
	</clipPath>
	<path style="clip-path:url(#SVGID_00000178891451432987140550000017947918806807835059_);fill:#FFFFFF;" d="M2150.6,1306.9
		c0-2.8,0.7-6-2.1-7.8h-25.7v7.8H2150.6z M2138.1,1254.9h-15.3v6.5h15.3V1254.9z M2180,1274.1c24.7,19.3,20.9,61.6-11.4,72.4
		c-14.3,4.8-60.9,4.8-77.2,3.3c-9.4-0.9-12.4-3.5-13.3-12.3c-3.5-36,2.8-76.8,0-113.3c-0.1-6.4,3.7-10.3,10.5-11
		c13.1-1.4,55.5-1.2,67.2,2.2C2183.3,1223.4,2187.9,1251.4,2180,1274.1"/>
</g>
<rect x="2100.8" y="1245.5" class="st2" width="59.5" height="80.8"/>
<g>
	<defs>
		<rect id="SVGID_00000026882058402067800690000006121247274319695032_" x="2082.1" y="1222.4" width="119" height="138.3"/>
	</defs>
	<clipPath id="SVGID_00000181062569676477091230000013726713521057900436_">
		<use xlink:href="#SVGID_00000026882058402067800690000006121247274319695032_"  style="overflow:visible;"/>
	</clipPath>
	<path style="clip-path:url(#SVGID_00000181062569676477091230000013726713521057900436_);fill:#4EBFA8;" d="M2176.9,1309.3
		c-0.1-0.7-0.4-1.2-1-1.6c-0.6-0.3-1.1-0.5-1.8-0.4c-1.4,0.2-2.1,1-2,2.4c0.1,0.7,0.4,1.2,0.8,1.7c0.5,0.4,1,0.6,1.6,0.6h0.3
		c0.6-0.1,1.1-0.4,1.5-1C2176.9,1310.4,2177,1309.9,2176.9,1309.3 M2173.9,1320.8c0.7,0,1.3-0.2,1.8-0.6c0.5-0.4,0.7-0.9,0.8-1.5
		c0.1-0.6-0.1-1.1-0.5-1.6c-0.4-0.5-0.9-0.8-1.5-0.9c-0.6-0.1-1.2,0-1.8,0.4c-0.6,0.4-0.9,0.9-1,1.5c-0.1,0.6,0,1.2,0.4,1.8
		c0.4,0.6,0.8,0.9,1.4,1H2173.9z M2169.8,1299.6c-0.8,0.8-1,1.7-0.6,2.6c0.4,1,1.2,1.4,2.3,1.4c0.6,0,1.2-0.2,1.7-0.6
		c0.4-0.5,0.6-1.1,0.7-1.7c0-0.7-0.2-1.2-0.7-1.6C2172,1298.7,2170.9,1298.6,2169.8,1299.6 M2171.6,1328.3c1-1.1,1-2.2-0.1-3.3
		c-1.1-1-2.2-0.9-3.4,0.2c-0.4,0.4-0.6,0.9-0.6,1.6c0,0.7,0.3,1.2,0.8,1.7c0.4,0.4,0.9,0.6,1.5,0.6
		C2170.5,1329.1,2171.1,1328.8,2171.6,1328.3 M2164.4,1296.2c0.5,0.5,1.1,0.8,1.7,0.8c0.7,0,1.3-0.3,1.7-0.8c1.1-1.1,1.1-2.2,0-3.3
		c-1.1-1-2.2-1-3.3,0.1C2163.4,1294,2163.4,1295.1,2164.4,1296.2 M2166.7,1269.3c0-0.4-0.1-0.8-0.3-1.2c-0.2-0.4-0.5-0.7-0.8-0.9
		c-0.4-0.2-0.7-0.3-1.1-0.5c-0.6,0-1.2,0.2-1.7,0.6c-0.5,0.4-0.8,1-0.9,1.7c0,0.6,0.2,1.2,0.7,1.7c0.5,0.5,1,0.8,1.6,0.9h0.2
		c0.6,0,1.1-0.2,1.6-0.7C2166.3,1270.4,2166.6,1269.9,2166.7,1269.3 M2160.6,1258.3c-1.2,0.9-1.4,2-0.6,3.3c0.5,0.6,1.2,0.9,2,0.9
		c0.5,0,1-0.1,1.4-0.3c0.7-0.5,1.1-1.2,1.1-2.2c0-0.9-0.4-1.6-1.3-2C2162.3,1257.6,2161.4,1257.7,2160.6,1258.3 M2163.5,1279.2
		c0.5-0.8,0.5-1.6,0-2.4c-0.5-0.8-1.2-1.2-2.2-1.1c-1,0.1-1.7,0.5-2.1,1.3c-0.3,0.6-0.4,1.2-0.1,1.8c0.2,0.6,0.6,1.1,1.2,1.4
		c0.3,0.2,0.7,0.3,1.1,0.3C2162.4,1280.4,2163.1,1280,2163.5,1279.2 M2161.7,1333.9c1.3-0.6,1.8-1.6,1.4-3c-0.2-0.6-0.6-1.1-1.2-1.4
		c-0.6-0.3-1.2-0.3-1.8-0.2c-0.6,0.2-1.1,0.6-1.4,1.2c-0.3,0.6-0.3,1.2,0,1.8c0.3,1.1,1,1.7,2.1,1.7c0.3,0,0.6,0,0.8-0.1H2161.7z
		 M2160.3,1290.2c0.4-0.5,0.6-1.1,0.5-1.7c0-0.7-0.3-1.2-0.8-1.6c-0.5-0.4-1-0.6-1.7-0.6s-1.2,0.3-1.7,0.8c-0.5,0.5-0.7,1.1-0.6,1.7
		c0.1,0.6,0.3,1.1,0.8,1.6c0.5,0.5,1,0.7,1.6,0.7h0.2C2159.3,1290.9,2159.9,1290.7,2160.3,1290.2 M2152.8,1252.9
		c-0.7,1.4-0.4,2.5,0.9,3.2c0.4,0.2,0.8,0.3,1.2,0.3c0.9,0,1.6-0.4,2-1.2c0.8-1.3,0.5-2.4-0.8-3.2
		C2154.7,1251.2,2153.6,1251.5,2152.8,1252.9 M2148,1334.9c0.5,0.4,1,0.7,1.7,0.7c0.7,0,1.2-0.2,1.7-0.7c0.5-0.5,0.7-1,0.7-1.7
		c0-0.7-0.2-1.2-0.7-1.7c-0.5-0.5-1-0.7-1.7-0.7c-0.7,0-1.2,0.2-1.7,0.7c-0.5,0.4-0.7,1-0.7,1.7
		C2147.3,1333.9,2147.6,1334.4,2148,1334.9 M2152.1,1289.1c0-0.7-0.2-1.3-0.7-1.7c-0.5-0.5-1-0.7-1.8-0.7c-1,0-1.7,0.5-2.1,1.4
		c-0.4,0.9-0.3,1.8,0.5,2.6c0.7,0.8,1.6,0.9,2.6,0.5C2151.6,1290.8,2152.1,1290.1,2152.1,1289.1 M2146,1249.3
		c-0.7-0.1-1.3,0.1-1.8,0.6c-0.5,0.5-0.7,1.1-0.7,1.7c0,0.4,0.1,0.8,0.3,1.2c0.2,0.4,0.5,0.7,0.8,0.9c0.4,0.2,0.8,0.3,1.3,0.3
		c0.6,0,1.1-0.2,1.6-0.7c0.5-0.5,0.7-1,0.7-1.7c0-0.6-0.2-1.1-0.7-1.6C2147.1,1249.6,2146.6,1249.3,2146,1249.3 M2137.8,1334.9
		c0.5,0.4,1,0.7,1.7,0.7s1.2-0.2,1.7-0.7c0.5-0.5,0.7-1,0.7-1.7c0-0.7-0.2-1.2-0.7-1.7c-0.5-0.5-1-0.7-1.7-0.7s-1.2,0.2-1.7,0.7
		c-0.5,0.4-0.7,1-0.7,1.7C2137.1,1333.9,2137.3,1334.4,2137.8,1334.9 M2141.8,1289.1c0-0.7-0.2-1.3-0.7-1.7c-0.5-0.5-1-0.7-1.8-0.7
		c-1,0-1.7,0.5-2.1,1.4c-0.4,0.9-0.2,1.8,0.5,2.6c0.8,0.8,1.6,0.9,2.6,0.5C2141.4,1290.8,2141.8,1290.1,2141.8,1289.1
		 M2136.3,1249.3c-0.6-0.1-1.2,0.1-1.7,0.6c-0.5,0.5-0.8,1.1-0.8,1.7c0,0.4,0.1,0.8,0.4,1.2c0.3,0.4,0.6,0.7,0.9,0.9
		c0.4,0.2,0.7,0.3,1.1,0.3c0.7,0,1.3-0.2,1.8-0.7c0.5-0.5,0.7-1,0.7-1.7c0-0.6-0.2-1.1-0.7-1.6
		C2137.6,1249.6,2137.1,1249.3,2136.3,1249.3 M2128.3,1334.9c0.5,0.4,1.1,0.7,1.7,0.7c0.6,0,1.2-0.2,1.7-0.7c0.5-0.5,0.8-1,0.8-1.7
		c0-0.7-0.3-1.2-0.8-1.7c-0.5-0.5-1.1-0.7-1.7-0.7c-0.4,0-0.8,0.1-1.1,0.3c-0.4,0.2-0.7,0.5-0.9,0.9c-0.3,0.4-0.4,0.8-0.4,1.2
		C2127.5,1333.9,2127.7,1334.4,2128.3,1334.9 M2132.2,1289.1c0-0.7-0.2-1.3-0.7-1.7c-0.5-0.5-1-0.7-1.6-0.7c-1.1,0-1.9,0.5-2.3,1.4
		c-0.4,0.9-0.2,1.8,0.5,2.6c0.8,0.8,1.7,0.9,2.7,0.5C2131.9,1290.8,2132.3,1290.1,2132.2,1289.1 M2126.9,1249.3
		c-0.7-0.1-1.3,0.1-1.8,0.6c-0.5,0.5-0.7,1.1-0.7,1.7c0,0.4,0.1,0.8,0.3,1.2c0.2,0.4,0.5,0.7,0.9,0.9c0.4,0.2,0.8,0.3,1.2,0.3
		c0.6,0,1.1-0.2,1.6-0.7c0.5-0.5,0.7-1,0.7-1.7c0-0.6-0.2-1.1-0.7-1.6C2128,1249.6,2127.5,1249.3,2126.9,1249.3 M2151.3,1319.9
		c3.1,0.3,5.6-0.6,7.8-2.7c1.6-2,2.4-4.3,2.3-6.8c0.1-2.5-0.7-4.7-2.3-6.6c-2.2-2-4.8-2.8-7.8-2.4h-24.7c-0.3,0-0.6,0.1-1,0.2
		c-0.4,0.1-0.7,0.3-0.9,0.5c-0.3,0.2-0.4,0.5-0.5,0.8c-0.1,0.3-0.2,0.7-0.3,1v13.2c0.1,0.7,0.4,1.3,0.9,1.8c0.5,0.5,1.1,0.8,1.8,0.9
		H2151.3z M2123.8,1266.3v11.4c0.1,0.7,0.4,1.3,0.9,1.9c0.5,0.6,1.1,0.8,1.8,0.8h13.7c2.9,0.3,5.5-0.5,7.8-2.3
		c1.6-1.8,2.4-3.9,2.3-6.2c0.1-2.3-0.6-4.3-2.1-6c-1.8-1.8-4-2.6-6.4-2.3h-15.3c-0.7,0-1.3,0.3-1.8,0.8
		C2124.2,1265,2123.9,1265.6,2123.8,1266.3 M2118.7,1334.9c0.5,0.4,1,0.7,1.7,0.7c0.7,0,1.2-0.2,1.7-0.7c0.5-0.5,0.7-1,0.7-1.7
		c0-0.7-0.2-1.2-0.7-1.7c-0.5-0.5-1-0.7-1.6-0.7c-0.5,0-0.9,0.1-1.3,0.3c-0.4,0.2-0.6,0.5-0.8,0.9c-0.2,0.4-0.3,0.8-0.3,1.2
		C2118,1333.9,2118.3,1334.4,2118.7,1334.9 M2118.7,1290.7c0.5,0.4,1,0.7,1.7,0.7c0.7,0,1.2-0.2,1.7-0.7c0.5-0.5,0.7-1,0.7-1.7
		c0-0.6-0.2-1.2-0.7-1.7c-0.5-0.5-1-0.7-1.7-0.7c-0.7,0-1.2,0.2-1.7,0.7c-0.5,0.4-0.7,1-0.7,1.7
		C2118,1289.7,2118.3,1290.3,2118.7,1290.7 M2115.7,1250c-0.5,0.4-0.7,1-0.7,1.6c0,0.7,0.2,1.2,0.7,1.7c0.5,0.4,1,0.7,1.7,0.7
		c0.7,0,1.2-0.2,1.7-0.7c0.5-0.5,0.7-1,0.7-1.7c0-0.6-0.2-1.1-0.7-1.6c-0.5-0.5-1-0.7-1.7-0.7
		C2116.7,1249.3,2116.1,1249.6,2115.7,1250 M2107.5,1334.9c0.5,0.4,1.1,0.7,1.7,0.7s1.2-0.2,1.7-0.7c0.5-0.5,0.8-1,0.8-1.7
		c0-0.7-0.3-1.2-0.8-1.7c-0.5-0.5-1.1-0.7-1.7-0.7c-0.4,0-0.8,0.1-1.1,0.3c-0.4,0.2-0.7,0.5-0.9,0.9c-0.3,0.4-0.4,0.8-0.4,1.2
		C2106.7,1333.9,2107,1334.4,2107.5,1334.9 M2107.4,1327c0.5,0.5,1,0.7,1.7,0.7s1.2-0.2,1.7-0.7c0.5-0.4,0.7-1,0.7-1.6
		c0.1-0.7-0.1-1.3-0.6-1.7c-0.5-0.4-1.1-0.7-1.8-0.7s-1.2,0.2-1.7,0.7c-0.5,0.5-0.7,1-0.7,1.7C2106.7,1326,2107,1326.6,2107.4,1327
		 M2109.2,1319.6v-0.2c0.6,0.1,1.1-0.1,1.6-0.5c0.5-0.5,0.7-1,0.7-1.7c0.1-0.6-0.1-1.1-0.6-1.7c-0.5-0.5-1.1-0.8-1.8-0.8
		s-1.2,0.3-1.7,0.8c-0.5,0.5-0.7,1.1-0.7,1.7c0,0.6,0.2,1.2,0.7,1.7C2107.9,1319.4,2108.5,1319.6,2109.2,1319.6 M2107.4,1309.5
		c0.5,0.5,1,0.7,1.7,0.7s1.2-0.2,1.7-0.7c0.5-0.4,0.7-1,0.7-1.6c0.1-0.7-0.1-1.3-0.6-1.7c-0.5-0.4-1.1-0.7-1.8-0.7s-1.2,0.2-1.7,0.7
		c-0.5,0.5-0.7,1-0.7,1.7C2106.7,1308.5,2107,1309,2107.4,1309.5 M2107.4,1300.2c0.5,0.5,1,0.7,1.7,0.7s1.2-0.2,1.7-0.7
		c0.5-0.4,0.7-1,0.7-1.6c0.1-0.7-0.1-1.3-0.6-1.7c-0.5-0.4-1.1-0.7-1.8-0.7s-1.2,0.2-1.7,0.7c-0.5,0.5-0.7,1-0.7,1.7
		C2106.7,1299.2,2107,1299.7,2107.4,1300.2 M2107.4,1290.9c0.5,0.5,1,0.7,1.7,0.6c0.7,0,1.2-0.3,1.7-0.7c0.5-0.4,0.7-1,0.7-1.7
		c0.1-0.6-0.1-1.1-0.6-1.7c-0.5-0.5-1.1-0.8-1.8-0.8s-1.2,0.3-1.7,0.8c-0.5,0.5-0.7,1.1-0.7,1.7
		C2106.7,1289.9,2107,1290.4,2107.4,1290.9 M2107.4,1281.4c0.5,0.5,1,0.7,1.7,0.7s1.2-0.2,1.7-0.7s0.7-1,0.7-1.6
		c0.1-0.7-0.1-1.3-0.6-1.7c-0.5-0.5-1.1-0.7-1.8-0.7s-1.2,0.2-1.7,0.7s-0.7,1-0.7,1.7C2106.7,1280.4,2107,1280.9,2107.4,1281.4
		 M2107.4,1272.1c0.5,0.5,1,0.7,1.7,0.7s1.2-0.2,1.7-0.7s0.7-1,0.7-1.7c0.1-0.6-0.1-1.1-0.6-1.6c-0.5-0.5-1.1-0.7-1.8-0.7
		s-1.2,0.2-1.7,0.7s-0.7,1-0.7,1.7C2106.7,1271.1,2107,1271.6,2107.4,1272.1 M2107.4,1262.7c0.5,0.5,1,0.7,1.7,0.7
		c0.7,0,1.2-0.3,1.7-0.7c0.5-0.5,0.7-1,0.7-1.6c0.1-0.6-0.1-1.1-0.6-1.7c-0.5-0.5-1.1-0.7-1.7-0.7c-0.4,0-0.8,0.1-1.2,0.3
		c-0.4,0.2-0.7,0.5-0.9,0.9c-0.2,0.4-0.3,0.8-0.3,1.2C2106.7,1261.6,2107,1262.2,2107.4,1262.7 M2107.4,1253.3
		c0.5,0.4,1,0.7,1.7,0.7s1.2-0.2,1.7-0.7c0.5-0.5,0.7-1,0.7-1.6c0.1-0.7-0.1-1.3-0.6-1.7c-0.5-0.5-1.1-0.7-1.7-0.7
		c-0.4,0-0.8,0.1-1.2,0.3c-0.4,0.2-0.7,0.5-0.9,0.8c-0.2,0.4-0.3,0.8-0.3,1.3C2106.7,1252.3,2107,1252.9,2107.4,1253.3 M2173.7,1287
		c4.9,2.9,8.7,6.8,11.5,11.8c2.7,4.9,4.1,10.2,4,15.8c0,4.1-0.8,8.1-2.4,11.9c-1.6,3.7-3.9,6.9-6.9,9.5c-3.3,2.8-6.9,4.9-11,6.2
		c-4.8,1.5-9.6,2.2-14.5,2.1h-54.5c-0.9,0-1.7-0.3-2.4-0.9c-0.7-0.6-1-1.4-1-2.3v-98.7c0-0.9,0.3-1.7,1-2.3c0.7-0.6,1.4-1,2.4-1
		h43.5c5.2-0.1,10.3,0.6,15.3,2.1c4,1.3,7.5,3.4,10.7,6.2c2.9,2.6,5.1,5.7,6.6,9.2c1.5,3.7,2.2,7.6,2.1,11.6c0,6.1-1.6,11.8-4.7,17
		c-0.2,0.3-0.3,0.6-0.2,1.1C2173.1,1286.5,2173.3,1286.8,2173.7,1287"/>
</g>
<g>
	<defs>
		<rect id="SVGID_00000166666962313496904130000011464785150631466636_" x="2092.6" y="1411.7" width="92.8" height="84"/>
	</defs>
	<clipPath id="SVGID_00000003065063918845061780000007498160209483045266_">
		<use xlink:href="#SVGID_00000166666962313496904130000011464785150631466636_"  style="overflow:visible;"/>
	</clipPath>
	<path style="clip-path:url(#SVGID_00000003065063918845061780000007498160209483045266_);fill:#5A50A2;" d="M2139,1453.8
		c-0.9-0.6-2.8-4.6-3.3-12c-0.7-10.3,6-19.4-3.4-27.2c-10.2-8.4-29.4,2.3-19.7,19.7C2120.5,1448.6,2139,1453.8,2139,1453.8"/>
	<path style="clip-path:url(#SVGID_00000003065063918845061780000007498160209483045266_);fill:#5A50A2;" d="M2139,1453.8
		c0.1-1,2.6-4.7,8.8-8.8c8.7-5.8,20-4.7,22.1-16.6c2.3-12.9-16.8-24-27.1-6.9C2134.4,1435.4,2139,1453.8,2139,1453.8"/>
	<path style="clip-path:url(#SVGID_00000003065063918845061780000007498160209483045266_);fill:#5A50A2;" d="M2139.1,1453.8
		c0.9-0.5,5.4-0.2,12.1,3c9.5,4.5,14.2,14.7,25.7,10.4c12.4-4.6,12.5-26.4-7.7-26.6C2152.8,1440.6,2139.1,1453.8,2139.1,1453.8"/>
	<path style="clip-path:url(#SVGID_00000003065063918845061780000007498160209483045266_);fill:#5A50A2;" d="M2139,1453.8
		c0.9,0.6,2.9,4.5,3.5,11.9c0.9,10.4-5.7,19.5,3.8,27.2c10.3,8.3,29.4-2.6,19.5-19.9C2157.6,1458.9,2139,1453.8,2139,1453.8"/>
	<path style="clip-path:url(#SVGID_00000003065063918845061780000007498160209483045266_);fill:#5A50A2;" d="M2139,1453.8
		c0,1-2.5,4.7-8.7,9c-8.6,5.9-20,4.9-21.9,16.9c-2.1,12.9,17.1,23.7,27.2,6.5C2144,1472.2,2139,1453.8,2139,1453.8"/>
	<path style="clip-path:url(#SVGID_00000003065063918845061780000007498160209483045266_);fill:#5A50A2;" d="M2139,1453.8
		c-0.9,0.5-5.4,0.2-12.2-2.9c-9.6-4.4-14.4-14.5-25.8-10.1c-12.4,4.7-12.2,26.5,8,26.5C2125.5,1467.3,2139,1453.8,2139,1453.8"/>
</g>
<g>
	<defs>
		<rect id="SVGID_00000026146654615057473190000010826972570273400706_" x="382.5" y="421.4" width="62.3" height="120.8"/>
	</defs>
	<clipPath id="SVGID_00000182506148126976402170000012041185054059856061_">
		<use xlink:href="#SVGID_00000026146654615057473190000010826972570273400706_"  style="overflow:visible;"/>
	</clipPath>
	<path style="clip-path:url(#SVGID_00000182506148126976402170000012041185054059856061_);fill:#0C2340;" d="M444.7,487.9
		c-0.3-0.6-0.6-1.2-0.8-1.7s-0.8-0.8-1.4-0.6c0,0-0.1,0-0.1,0.1c-0.6,0.2-1,0.6-1.2,1.2c-0.1,0.2-0.1,0.2-0.3,0.1
		c-1-0.8-2.2-1-3.5-1.1c-2.4-0.1-4.6,0.3-6.8,1.1c-1.3,0.4-2.4,1-3.6,1.6c-0.1-0.3-0.1-0.6-0.1-0.9c-0.7-3.5-2.3-6.4-5.1-8.7
		c-1.1-0.9-2.4-1.6-3.9-1.7c-1.3-0.1-2.4,0.3-3.3,1.2c-0.1,0.1-0.1,0.1-0.3,0.1c-2-0.1-3.7,0.9-4.5,2.8c-0.6,1.3-0.7,2.7-0.6,4
		c0.4,3.8,2,7.1,4.9,9.7c0.7,0.6,1.5,1.1,2.2,1.5c0.1,0.1,0.2,0.1,0.1,0.2c-1.4,2-2.1,4.3-2.4,6.8c-0.2,1.8-0.1,3.6,0.3,5.4
		c0.1,0.2,0,0.2-0.1,0.1c-1-0.1-2.1-0.1-3.1-0.1c-3.2,0.3-6.2,1.1-8.9,2.7c-0.4,0.3-0.8,0.6-1.3,0.8c-0.1,0.1-0.1,0.1-0.2-0.1
		c-0.7-2.4-2.2-4.3-3.9-6.1c-1.3-1.3-2.6-2.3-4.3-3c-1.1-0.5-2.3-0.8-3.5-0.8c-0.5,0-0.9,0.1-1.4,0.3c-0.1,0.1-0.2,0.1-0.3-0.1
		c-0.6-0.6-1.3-1-1.8-1.6c-0.8-0.7-1.6-0.6-2.3,0.1c-0.3,0.4-0.6,0.7-0.6,1.2c0,0.4,0.1,0.8,0.4,1.1c0.7,0.6,1.5,1.3,2.2,2
		c0.1,0.1,0.1,0.1,0.1,0.3c-0.2,1.3,0.1,2.6,0.6,3.8c0.9,2.1,2.4,3.8,4.2,5.2c1.5,1.3,3.1,2.2,4.9,2.8c0.3,0.1,0.6,0.1,0.8,0.2
		c-2.2,1.5-3.7,3.5-4.9,5.7c-1.5,2.9-2.5,5.9-2.9,9.1c-0.1,1.5-0.1,3.1,0.3,4.6c0.3,1.4,1,2.6,2.1,3.5c1.4,1.1,3,1.4,4.7,0.9
		c0.9-0.3,1.7-0.7,2.4-1.3c0.3-0.3,0.8-0.5,1.3-0.7c1.5-0.6,2.7-1.6,3.7-2.9c1.5-1.7,2.4-3.7,3.2-5.8c0.8-2.4,1.4-4.8,1.4-7.4
		c0-0.8,0-1.7-0.1-2.5c0-0.1,0-0.2,0.1-0.2c3.2-0.3,6.2-1.3,8.9-3.1c0.1-0.1,0.1-0.1,0.2,0.1c1.1,2.6,2.7,4.7,4.7,6.8
		c2.2,2.3,4.6,4.2,7.3,5.8c1.5,0.8,3.1,1.5,4.8,1.8c1,0.2,2,0.2,3-0.1c1.2-0.3,2-1,2.6-2.2c0.1-0.1,0.1-0.2,0.2-0.3
		c0.4-0.3,0.8-0.6,1-1c0.4-0.7,0.8-1.5,0.9-2.3c0.1-1.2,0.1-2.3-0.3-3.4c-0.7-2.3-1.9-4.2-3.4-6.1c-2.4-2.8-5.3-5.1-8.6-6.8
		c-1.4-0.7-2.9-1.3-4.5-1.6c-0.1,0-0.2-0.1-0.1-0.2c1-2.4,1.5-4.9,1.3-7.5c0-0.2-0.1-0.4,0-0.6c0.1-0.1,0.4,0,0.6,0
		c1.7,0.1,3.3-0.1,4.9-0.5c2.8-0.7,5.3-1.9,7.7-3.6c1.2-0.9,2.4-1.9,3.2-3.3c0.6-1,1-2.2,0.9-3.4c0-0.1,0-0.1,0.1-0.1h0.1
		c0.6,0.2,1-0.1,1.5-0.4C444.7,488.9,444.9,488.4,444.7,487.9"/>
	<path style="clip-path:url(#SVGID_00000182506148126976402170000012041185054059856061_);fill:#FFFFFF;" d="M403.9,431.4
		c0.1,3.3-2.7,7-6.7,7.1c-2.8,0.1-5.1-2-5.3-4.9c-0.3-3.9,2.4-7.2,6.3-7.6c2.3-0.3,4.8,1.1,5.5,4
		C403.9,430.3,403.9,430.9,403.9,431.4"/>
	<path style="clip-path:url(#SVGID_00000182506148126976402170000012041185054059856061_);fill:#FFFFFF;" d="M391.1,438.5
		c1.3,0,2.2,0.8,2.3,2.1c0.1,1-1,2.1-2.3,2.2c-1.2,0.1-2.3-1.1-2.3-2.2C388.8,439.7,389.9,438.3,391.1,438.5"/>
	<path style="clip-path:url(#SVGID_00000182506148126976402170000012041185054059856061_);fill:#0C2340;" d="M444,488.3
		c0.1,0.3,0.1,0.3-0.1,0.5c-0.3,0.2-0.6,0.4-1,0.3c-0.1,0-0.2-0.1-0.3-0.1c-0.1,0-0.2-0.1-0.3-0.2c-0.1-0.4-0.4-0.7-0.6-1
		c-0.1-0.1-0.1-0.1,0-0.2c0.2-0.5,0.4-1,1-1.2c0.4-0.1,0.4-0.1,0.6,0.2c0.1,0.3,0.3,0.6,0.5,1C443.8,487.9,443.9,488.2,444,488.3
		 M399.8,538.6c0.8-1,1.5-2.1,2-3.2c0.7-1.5,1.3-2.9,1.7-4.5c0.3-1.3,0.6-2.6,0.7-4c0.1-1.3,0.1-2.6-0.1-3.9c-0.1-0.5-0.2-1-0.3-1.5
		c-0.1-0.3,0-0.3,0.2-0.3c0.7,0.1,1.5,0.1,2.2,0.1c0.1,0,0.2,0.1,0.2,0.2c0.2,1.5,0.2,2.9,0,4.5c-0.1,1.3-0.4,2.6-0.8,3.9
		c-0.5,1.7-1.2,3.3-2.1,4.9c-0.7,1.2-1.5,2.2-2.6,3.1C400.7,538.1,400.2,538.4,399.8,538.6 M415.1,478.9c0.1-0.1,0.1-0.1,0.1-0.1
		c0.1,0,0.1-0.1,0.1-0.1c1-0.7,2.1-0.8,3.2-0.5c1.1,0.3,2.1,0.9,2.9,1.6c1,0.8,1.8,1.8,2.5,2.9c1.2,1.9,1.9,3.8,2.2,6.1
		c0,0.1,0,0.3-0.2,0.4c-0.9,0.6-1.7,1.2-2.6,1.9c-0.1,0.1-0.1,0.1-0.2,0.1c-0.1-0.1-0.1-0.1-0.1-0.2c0-0.8-0.1-1.5-0.3-2.2
		c-0.1-0.6-0.3-1.3-0.6-1.9c-0.2-0.6-0.5-1.2-0.8-1.8c-0.6-1.2-1.3-2.3-2.2-3.3c-0.7-0.8-1.5-1.5-2.4-2
		C416.4,479.4,415.8,479.2,415.1,478.9 M440.1,523.8c0.2,0.9,0.3,1.8,0.2,2.7c-0.1,0.8-0.3,1.5-0.8,2.1c-0.1,0.1-0.1,0.1-0.2,0.1
		c-0.1,0-0.1-0.1-0.1-0.2c0.1-1.1-0.1-2.2-0.5-3.2c-0.6-1.7-1.5-3.2-2.6-4.7c-1-1.3-2.2-2.5-3.4-3.6c-1.6-1.5-3.3-2.7-5.2-3.8
		c-0.9-0.5-1.8-1-2.7-1.3c-0.6-0.3-1.3-0.5-1.9-0.7c-0.1,0-0.3-0.1-0.1-0.2c0.3-0.4,0.6-0.9,0.9-1.4c0.1-0.1,0.2-0.2,0.4-0.1
		c0.6,0.1,1.2,0.3,1.8,0.5c1.7,0.6,3.2,1.3,4.7,2.3c1.5,1,2.9,2,4.2,3.3c1.5,1.4,2.9,2.9,3.9,4.7
		C439.2,521.2,439.7,522.5,440.1,523.8 M414.8,508.5c-0.1-0.4-0.2-1-0.2-1.5c-0.1-1-0.1-2,0-3c0.1-0.9,0.2-1.8,0.5-2.7
		c0.4-1.5,1-2.8,1.8-4c0.1-0.2,0.3-0.3,0.5-0.2c0.8,0.2,1.7,0.2,2.5-0.1c0.2-0.1,0.3-0.1,0.6-0.2c0.1-0.1,0.3,0,0.3,0.1
		c0.1,0.4,0.3,0.8,0.5,1.1c0.3,0.5,0.6,0.9,1,1.3c0.6,0.5,1.3,0.8,2,1c0.2,0.1,0.3,0.1,0.3,0.4c0.1,0.6,0.1,1.3,0.1,1.9
		c-0.1,1.1-0.2,2.2-0.5,3.3c-0.2,0.9-0.5,1.7-0.9,2.6c-0.4,0.8-0.8,1.5-1.3,2.2c-0.1,0.2-0.3,0.3-0.5,0.2c-0.9-0.1-1.8-0.3-2.7-0.1
		c-0.2,0.1-0.4,0.1-0.6-0.1c-0.2-0.2-0.4-0.3-0.7-0.4c-0.7-0.4-1.5-0.6-2.3-0.8c-0.1,0-0.2-0.1-0.3-0.2
		C414.9,509,414.9,508.8,414.8,508.5 M400,517.2c0.6-0.8,0.9-1.5,0.9-2.5c0-0.3-0.1-0.6-0.1-0.8c0-0.1,0-0.3,0.1-0.4
		c0.5-0.4,1-0.8,1.6-1.1c1.3-0.8,2.8-1.4,4.3-1.8c1.9-0.5,3.8-0.8,5.9-0.8c0.9,0.1,1.7,0.1,2.6,0.4c0.8,0.2,1.5,0.4,2.2,0.8
		c0.1,0.1,0.1,0.1,0,0.2c-0.2,0.1-0.5,0.3-0.7,0.5c-0.8,0.7-1.1,1.6-1.1,2.6c-0.1,1,0.2,1.9,0.4,2.8c0.1,0.2,0,0.3-0.1,0.3
		c-1,0.8-2.2,1.3-3.5,1.8c-1.3,0.5-2.5,0.8-3.8,1c-1.5,0.3-3.1,0.4-4.7,0.3c-0.4,0-0.6-0.2-0.8-0.6c-0.5-1-1.2-1.9-2.2-2.4
		C400.7,517.4,400.4,517.3,400,517.2 M388.3,503.7c0.3-0.1,0.8-0.1,1.3-0.1c0.6,0.1,1.2,0.2,1.9,0.4c1,0.3,2,0.9,2.9,1.6
		c0.9,0.7,1.7,1.5,2.6,2.3c0.5,0.6,1,1.1,1.4,1.7c0.6,0.8,1,1.5,1.4,2.4c0.3,0.8,0.6,1.5,0.6,2.4c0,0.5,0,1-0.2,1.5
		c-0.3,1-1,1.5-2,1.7c-1,0.2-2.1,0-3.1-0.4c-1.5-0.5-2.9-1.3-4.1-2.3c-1.5-1.1-2.7-2.4-3.6-4c-0.4-0.7-0.8-1.5-1-2.3
		c-0.3-0.9-0.3-1.8-0.1-2.7c0-0.1,0-0.3-0.1-0.3c-0.8-0.7-1.6-1.4-2.4-2.1c-0.3-0.3-0.3-0.8-0.1-1.1c0.1-0.1,0.2-0.3,0.3-0.4
		c0.3-0.3,0.6-0.3,0.9-0.1c0.1,0.1,0.3,0.2,0.4,0.4c0.6,0.6,1.3,1.1,1.9,1.7c0.2,0.2,0.4,0.2,0.6,0.1
		C387.8,503.8,388,503.7,388.3,503.7 M410,487.2c-0.1-0.5-0.2-1.3-0.3-2.1c-0.1-1.1,0.1-2.2,0.6-3.3c0.4-1,1-1.7,2-2.1
		c1-0.4,2.1-0.3,3.1,0.1c1.3,0.5,2.3,1.3,3.3,2.2c1.1,1.2,2,2.5,2.6,4c0.4,1,0.8,2,1,3c0.1,0.9,0.3,1.8,0.2,2.7
		c-0.1,1.2-0.4,2.3-1,3.3c-0.8,1.1-1.9,1.5-3.2,1.5c-1-0.1-1.9-0.5-2.8-1c-1-0.6-1.9-1.5-2.6-2.4C411.5,491.5,410.6,489.6,410,487.2
		 M429.4,499.8c-0.4,0.1-0.7,0.1-1,0.1c-1.5,0.1-3,0.1-4.4-0.4c-1.4-0.6-2.4-1.5-2.6-3.1c0-0.1,0-0.2,0.1-0.3c0.3-0.3,0.6-0.6,0.8-1
		c0.5-0.8,0.7-1.6,0.8-2.5c0-0.2,0.1-0.3,0.2-0.5c0.2-0.2,0.5-0.5,0.8-0.7c0.7-0.6,1.5-1.1,2.2-1.6c0.8-0.5,1.6-0.9,2.4-1.3
		c0.9-0.4,1.8-0.8,2.8-1.1c0.8-0.2,1.5-0.5,2.4-0.6c0.8-0.1,1.5-0.2,2.2-0.2c1.1,0,2.2,0.1,3.3,0.5c0.8,0.3,1.4,0.7,1.9,1.4
		c0.8,1.1,0.8,2.2,0.4,3.3c-0.5,1.3-1.5,2.4-2.5,3.3c-1.2,1-2.6,1.9-4,2.6c-0.8,0.3-1.5,0.7-2.3,1
		C431.6,499.2,430.5,499.6,429.4,499.8 M389.1,537.2c-0.1-0.6-0.2-1-0.3-1.5c-0.1-0.8-0.1-1.7,0-2.4c0.1-1.1,0.3-2.2,0.5-3.3
		c0.2-0.8,0.5-1.7,0.8-2.6c0.4-1.1,0.9-2.2,1.5-3.2c0.6-1.1,1.3-2.2,2.1-3.1c0.8-0.9,1.6-1.7,2.5-2.3c0.4-0.3,0.8-0.6,1.3-0.6
		c0.6,0,1-0.1,1.5-0.3c0.1-0.1,0.2-0.1,0.3-0.1c0.6,0,1.1,0.2,1.6,0.5c0.7,0.4,1.2,1,1.6,1.8c0.4,0.8,0.7,1.7,0.8,2.6
		c0.1,0.9,0.2,1.9,0.2,2.8c0,1.4-0.1,2.7-0.4,4c-0.2,1-0.5,1.9-0.8,2.8c-0.6,1.6-1.2,3.1-2.2,4.5c-0.8,1.2-1.7,2.3-2.9,3.1
		c-1,0.7-2,1.3-3.2,1.4c-1.7,0.2-3.1-0.4-4.1-1.8C389.6,538.8,389.2,537.9,389.1,537.2 M416.5,516.3c-0.2-0.8-0.3-1.7-0.1-2.6
		c0.1-0.6,0.5-1.2,1-1.5c0.8-0.6,1.7-0.7,2.6-0.7c1.3,0,2.6,0.4,3.8,0.8c1.5,0.6,3,1.3,4.4,2.2c0.9,0.6,1.8,1.3,2.6,1.9
		c1.1,0.9,2.2,1.9,3.2,2.9c0.8,0.8,1.5,1.6,2.1,2.5c0.6,0.9,1.3,1.9,1.7,2.9c0.5,1.2,0.8,2.4,0.7,3.8c-0.2,1.6-1.1,2.7-2.6,3.1
		c-0.9,0.2-1.9,0.1-2.8,0c-1.6-0.3-3.1-1-4.5-1.7c-0.7-0.4-1.3-0.8-2-1.3c-0.7-0.5-1.3-1-2-1.5c-0.6-0.5-1.3-1-1.8-1.6
		c-0.9-0.8-1.7-1.7-2.5-2.6c-0.8-1-1.7-2.1-2.3-3.3C417.4,518.6,416.9,517.5,416.5,516.3 M395.8,518.2c-2.2,1.5-3.7,3.5-4.9,5.7
		c-1.5,2.9-2.5,5.9-2.9,9.1c-0.1,1.5-0.1,3.1,0.3,4.6c0.4,1.4,1,2.6,2.1,3.5c1.4,1.1,3,1.4,4.7,0.9c0.9-0.3,1.7-0.7,2.4-1.3
		c0.4-0.3,0.8-0.5,1.3-0.7c1.5-0.6,2.7-1.6,3.7-2.9c1.5-1.7,2.4-3.7,3.2-5.8c0.8-2.4,1.4-4.8,1.4-7.4c0-0.8,0-1.7-0.1-2.5
		c0-0.1,0-0.2,0.1-0.2c3.2-0.3,6.2-1.3,8.9-3.1c0.1-0.1,0.1-0.1,0.2,0.1c1.1,2.6,2.7,4.7,4.7,6.8c2.2,2.3,4.6,4.2,7.3,5.8
		c1.5,0.8,3.1,1.5,4.8,1.8c1,0.2,2,0.2,3-0.1c1.2-0.4,2-1,2.6-2.2c0.1-0.1,0.1-0.2,0.2-0.3c0.4-0.3,0.8-0.6,1-1
		c0.4-0.7,0.8-1.5,0.9-2.3c0.1-1.2,0.1-2.3-0.3-3.4c-0.7-2.3-1.9-4.2-3.4-6.1c-2.4-2.8-5.3-5.1-8.6-6.8c-1.4-0.7-2.9-1.3-4.5-1.6
		c-0.1,0-0.2-0.1-0.1-0.2c1-2.4,1.5-4.9,1.3-7.5c0-0.2-0.1-0.4,0-0.6c0.1-0.1,0.3,0,0.6,0c1.7,0.1,3.3-0.1,4.9-0.5
		c2.8-0.7,5.3-1.9,7.7-3.6c1.3-0.9,2.4-2,3.2-3.3c0.6-1,1-2.2,0.9-3.4c0-0.1,0-0.1,0.1-0.1h0.1c0.6,0.2,1-0.1,1.5-0.3
		c0.5-0.3,0.7-0.8,0.4-1.3c-0.3-0.6-0.6-1.2-0.8-1.7c-0.3-0.6-0.8-0.8-1.4-0.6c0,0-0.1,0-0.1,0.1c-0.6,0.2-1,0.6-1.2,1.2
		c-0.1,0.2-0.1,0.2-0.4,0.1c-1-0.8-2.2-1-3.5-1.1c-2.4-0.1-4.6,0.3-6.8,1.1c-1.3,0.4-2.4,1-3.6,1.6c-0.1-0.3-0.1-0.6-0.1-0.9
		c-0.7-3.5-2.3-6.4-5.1-8.7c-1.1-0.9-2.4-1.6-3.9-1.7c-1.3-0.1-2.4,0.3-3.3,1.2c-0.1,0.1-0.1,0.1-0.3,0.1c-2-0.1-3.7,0.9-4.5,2.8
		c-0.6,1.3-0.7,2.7-0.6,4c0.4,3.8,2,7.1,4.9,9.7c0.7,0.6,1.5,1.1,2.2,1.5c0.1,0.1,0.2,0.1,0.1,0.2c-1.4,2-2.1,4.3-2.4,6.8
		c-0.2,1.8-0.1,3.6,0.3,5.4c0.1,0.2,0,0.2-0.1,0.1c-1-0.1-2.1-0.1-3.1-0.1c-3.2,0.3-6.2,1.1-8.9,2.7c-0.4,0.3-0.8,0.6-1.3,0.8
		c-0.1,0.1-0.1,0.1-0.2-0.1c-0.7-2.4-2.2-4.3-3.9-6.1c-1.3-1.3-2.6-2.3-4.2-3c-1.1-0.5-2.3-0.8-3.6-0.8c-0.5,0-0.9,0.1-1.4,0.3
		c-0.1,0.1-0.2,0.1-0.3-0.1c-0.6-0.6-1.3-1-1.8-1.6c-0.8-0.7-1.6-0.6-2.3,0.1c-0.3,0.4-0.6,0.7-0.6,1.2c0,0.4,0.1,0.8,0.4,1.1
		c0.7,0.6,1.5,1.3,2.2,2c0.1,0.1,0.1,0.1,0.1,0.3c-0.2,1.3,0.1,2.6,0.6,3.8c0.9,2.1,2.4,3.8,4.2,5.2c1.5,1.3,3.1,2.2,4.9,2.8
		C395.2,518,395.5,518.1,395.8,518.2"/>
	<path style="clip-path:url(#SVGID_00000182506148126976402170000012041185054059856061_);fill:#EC008C;" d="M427,515.5h-0.2
		c-0.4-0.3-0.8-0.6-1.3-1c-0.1-0.1-0.1-0.3-0.1-0.4c0.1-0.1,0.3-0.2,0.4-0.1c0.4,0.3,0.8,0.6,1.3,1
		C427.4,515.1,427.3,515.4,427,515.5 M436.7,525.5c0.1,0.3,0.1,0.6,0.2,1c0,0.2-0.1,0.3-0.3,0.4c-0.2,0.1-0.4-0.1-0.4-0.3
		c0-0.1,0-0.1-0.1-0.3c-0.4-2.2-1.5-4-3.2-5.4c-0.3-0.3-0.6-0.5-1-0.7c-0.1-0.1-0.2-0.4-0.1-0.5c0.1-0.1,0.3-0.2,0.5-0.1
		c0.1,0,0.1,0.1,0.1,0.1C434.6,521.2,436,523.1,436.7,525.5 M416.5,516.3c0.3,1.3,0.8,2.4,1.5,3.5c0.6,1.2,1.5,2.2,2.3,3.3
		c0.8,0.9,1.6,1.8,2.5,2.7c0.6,0.6,1.2,1.1,1.8,1.6c0.6,0.6,1.3,1,2,1.5c0.6,0.4,1.3,0.8,2,1.3c1.4,0.8,2.9,1.5,4.5,1.7
		c0.9,0.2,1.9,0.3,2.8,0c1.6-0.4,2.5-1.5,2.7-3.1c0.1-1.3-0.2-2.6-0.7-3.8c-0.4-1-1-2-1.7-2.9c-0.6-0.9-1.3-1.7-2.1-2.5
		c-1-1-2.1-2-3.2-2.9c-0.8-0.7-1.7-1.3-2.7-2c-1.4-0.9-2.9-1.7-4.4-2.2c-1.2-0.5-2.4-0.8-3.8-0.8c-0.9,0-1.9,0.1-2.7,0.7
		c-0.5,0.4-0.8,0.9-1,1.5C416.3,514.5,416.3,515.4,416.5,516.3"/>
	<path style="clip-path:url(#SVGID_00000182506148126976402170000012041185054059856061_);fill:#EC008C;" d="M399.6,534
		c0.3-0.1,0.5,0.1,0.4,0.4c0,0.1-0.1,0.1-0.1,0.2c-0.8,1.5-1.8,2.9-3.1,4c-0.4,0.4-0.9,0.8-1.4,1c-0.2,0.1-0.4,0.1-0.6-0.1
		c-0.1-0.1-0.1-0.4,0.1-0.5l0.1-0.1c0.9-0.6,1.7-1.4,2.5-2.3c0.6-0.8,1.3-1.6,1.7-2.5C399.4,534.2,399.5,534.1,399.6,534
		 M389.1,537.2c0.1,0.8,0.5,1.6,1,2.3c1,1.4,2.4,2,4.1,1.8c1.2-0.1,2.2-0.7,3.2-1.4c1.1-0.9,2.1-2,2.9-3.1c0.9-1.4,1.6-2.9,2.2-4.5
		c0.3-0.9,0.6-1.8,0.8-2.8c0.3-1.3,0.4-2.7,0.4-4c0-0.9-0.1-1.9-0.2-2.8c-0.1-0.9-0.4-1.7-0.8-2.6c-0.4-0.8-0.9-1.3-1.6-1.8
		c-0.5-0.3-1-0.5-1.6-0.5c-0.1,0-0.2,0.1-0.3,0.1c-0.5,0.2-1,0.3-1.5,0.3c-0.5,0-0.9,0.3-1.3,0.6c-1,0.6-1.8,1.4-2.5,2.3
		c-0.8,1-1.5,2-2.1,3.1c-0.6,1.1-1,2.1-1.5,3.2c-0.3,0.8-0.6,1.7-0.8,2.6c-0.3,1-0.4,2.2-0.5,3.3c-0.1,0.8-0.1,1.7,0,2.4
		C388.9,536.2,388.9,536.6,389.1,537.2"/>
	<path style="clip-path:url(#SVGID_00000182506148126976402170000012041185054059856061_);fill:#EC008C;" d="M432.8,488
		c1-0.2,2-0.3,3-0.3c0.9,0.1,1.8,0.2,2.6,0.5c0.3,0.1,0.3,0.3,0.3,0.5s-0.2,0.3-0.5,0.1c-0.2-0.1-0.4-0.1-0.6-0.2
		c-1.2-0.3-2.3-0.4-3.5-0.3c-1,0.1-2,0.4-3,0.8c-0.6,0.3-1.3,0.6-1.7,1c-0.2,0.1-0.4,0.1-0.6,0c-0.1-0.1-0.1-0.4,0.1-0.6
		C430.1,488.9,431.4,488.3,432.8,488 M429.4,499.8c1.1-0.2,2.2-0.5,3.3-0.9c0.8-0.3,1.5-0.6,2.3-1c1.5-0.7,2.8-1.5,4-2.6
		c1-0.9,2-2,2.5-3.3c0.4-1.2,0.4-2.3-0.3-3.3c-0.5-0.6-1.1-1.1-1.9-1.4c-1-0.4-2.2-0.5-3.3-0.5c-0.8,0-1.5,0.1-2.2,0.2
		c-0.8,0.1-1.5,0.3-2.4,0.6c-1,0.3-1.9,0.7-2.8,1.1c-0.8,0.3-1.7,0.8-2.4,1.3c-0.8,0.5-1.5,1-2.2,1.6c-0.3,0.2-0.5,0.5-0.8,0.7
		c-0.1,0.1-0.2,0.3-0.2,0.5c-0.1,0.9-0.4,1.7-0.8,2.5c-0.2,0.4-0.6,0.7-0.8,1c-0.1,0.1-0.1,0.1-0.1,0.3c0.2,1.6,1.2,2.5,2.6,3.1
		c1.4,0.6,2.9,0.6,4.4,0.4C428.7,499.8,429,499.8,429.4,499.8"/>
	<path style="clip-path:url(#SVGID_00000182506148126976402170000012041185054059856061_);fill:#EC008C;" d="M413.6,480.9
		c-0.1-0.3,0.1-0.4,0.4-0.4c0.7,0.1,1.4,0.3,2,0.6c1.2,0.6,2.2,1.6,3.1,2.6c0.3,0.4,0.6,0.8,0.9,1.3c0.1,0.2,0,0.4-0.1,0.5
		c-0.2,0.1-0.4,0-0.5-0.2c-0.1-0.1-0.1-0.2-0.2-0.3c-0.5-0.8-1.2-1.5-1.9-2.1c-0.6-0.5-1.1-0.9-1.7-1.2c-0.6-0.3-1.1-0.4-1.7-0.5
		C413.7,481.1,413.7,481,413.6,480.9 M410,487.2c0.6,2.4,1.5,4.3,2.9,5.9c0.8,1,1.6,1.7,2.6,2.4c0.8,0.6,1.7,0.9,2.8,1
		c1.3,0.1,2.4-0.4,3.2-1.5c0.7-1,1-2.1,1-3.3c0.1-0.9,0-1.8-0.2-2.7c-0.2-1-0.6-2-1-3c-0.6-1.5-1.5-2.9-2.6-4c-0.9-1-2-1.8-3.3-2.2
		c-1-0.4-2.1-0.5-3.1-0.1c-1,0.4-1.6,1.1-2,2.1c-0.4,1-0.6,2.2-0.6,3.3C409.8,485.9,409.8,486.7,410,487.2"/>
	<path style="clip-path:url(#SVGID_00000182506148126976402170000012041185054059856061_);fill:#EC008C;" d="M393.1,506.5
		c-0.2,0.1-0.3-0.1-0.4-0.3c-0.1-0.2,0.1-0.4,0.2-0.4c0.2-0.1,0.3,0.1,0.4,0.2C393.3,506.2,393.3,506.5,393.1,506.5 M388.3,505.3
		c-0.2,0.1-0.4,0.1-0.6,0.1c-0.2,0.1-0.4,0-0.4-0.2c-0.1-0.2,0-0.3,0.3-0.4c0.7-0.2,1.4-0.4,2.2-0.4c0.8,0,1.5,0.1,2.1,0.6
		c0.2,0.1,0.3,0.4,0.1,0.6c-0.1,0.1-0.4,0.2-0.6,0.1c-0.3-0.2-0.6-0.3-1-0.4C389.6,505.1,388.9,505.1,388.3,505.3 M388.3,503.7
		c-0.3,0.1-0.6,0.1-0.8,0.3c-0.2,0.1-0.4,0.1-0.6-0.1c-0.6-0.6-1.3-1.1-1.9-1.7c-0.1-0.1-0.3-0.2-0.4-0.3c-0.4-0.2-0.6-0.2-0.9,0.1
		c-0.1,0.1-0.2,0.3-0.3,0.4c-0.4,0.3-0.3,0.8,0.1,1.1c0.8,0.7,1.6,1.4,2.4,2.1c0.1,0.1,0.1,0.2,0.1,0.3c-0.2,0.9-0.1,1.8,0.1,2.7
		c0.2,0.8,0.6,1.5,1,2.3c1,1.5,2.2,2.9,3.6,4c1.3,1,2.6,1.7,4.1,2.3c1,0.3,2,0.5,3.1,0.3c1-0.2,1.7-0.7,2-1.7c0.2-0.5,0.2-1,0.2-1.5
		c-0.1-0.8-0.3-1.6-0.6-2.4c-0.3-0.8-0.8-1.7-1.4-2.4c-0.4-0.6-0.8-1.2-1.4-1.7c-0.8-0.8-1.6-1.6-2.6-2.3c-0.9-0.6-1.8-1.2-2.9-1.6
		c-0.6-0.2-1.3-0.3-1.9-0.4C389.2,503.5,388.7,503.5,388.3,503.7"/>
	<path style="clip-path:url(#SVGID_00000182506148126976402170000012041185054059856061_);fill:#EC008C;" d="M408,512.1
		c-0.3,0.1-0.4,0-0.5-0.1c-0.1-0.2,0-0.4,0.2-0.5c0.1,0,0.1-0.1,0.2-0.1c1.5-0.6,3.1-0.9,4.8-0.8c0.8,0,1.5,0.1,2.2,0.3
		c0.3,0.1,0.3,0.2,0.3,0.5c-0.1,0.2-0.2,0.3-0.6,0.2c-1.5-0.3-3-0.3-4.5-0.1C409.4,511.6,408.7,511.8,408,512.1 M400,517.2
		c0.3,0.1,0.8,0.3,1,0.4c1,0.6,1.7,1.4,2.2,2.4c0.1,0.3,0.4,0.6,0.8,0.6c1.6,0.1,3.1,0,4.7-0.3c1.3-0.2,2.6-0.6,3.8-1
		c1.2-0.5,2.4-1,3.5-1.8c0.1-0.1,0.1-0.1,0.1-0.3c-0.3-0.9-0.5-1.8-0.4-2.8c0.1-1,0.4-2,1.1-2.7c0.2-0.2,0.4-0.3,0.7-0.5
		c0.1-0.1,0.1-0.1,0-0.2c-0.7-0.4-1.4-0.7-2.2-0.8c-0.8-0.2-1.7-0.3-2.7-0.4c-2-0.1-3.9,0.3-5.8,0.8c-1.5,0.4-2.9,1-4.3,1.8
		c-0.6,0.4-1,0.7-1.6,1c-0.1,0.1-0.1,0.3-0.1,0.4c0,0.3,0.1,0.6,0.1,0.8C400.9,515.6,400.6,516.4,400,517.2"/>
	<path style="clip-path:url(#SVGID_00000182506148126976402170000012041185054059856061_);fill:#EC008C;" d="M416.3,502.5
		c-0.2,0.1-0.3-0.1-0.4-0.3c-0.1-0.2,0.1-0.3,0.3-0.4c0.2-0.1,0.4,0.1,0.4,0.3C416.6,502.3,416.5,502.4,416.3,502.5 M417.6,498
		c0.1,0,0.2,0,0.3,0.1c0.1,0.1,0.1,0.3,0,0.4c-0.3,0.6-0.6,1.2-0.8,1.9c-0.1,0.2-0.2,0.3-0.4,0.3c-0.2-0.1-0.3-0.3-0.2-0.5
		c0.2-0.8,0.6-1.5,0.9-2.1C417.4,498.1,417.4,498,417.6,498 M414.8,508.5c0.1,0.3,0.1,0.5,0.1,0.7c0,0.1,0.1,0.2,0.3,0.2
		c0.8,0.2,1.5,0.4,2.3,0.8c0.2,0.1,0.5,0.3,0.7,0.4c0.2,0.1,0.4,0.1,0.6,0.1c0.9-0.2,1.8-0.1,2.7,0.1c0.3,0.1,0.4,0,0.5-0.2
		c0.5-0.7,0.9-1.4,1.3-2.2c0.4-0.8,0.7-1.7,0.9-2.6c0.3-1,0.4-2.2,0.5-3.3c0-0.6,0-1.3-0.1-1.9c0-0.2-0.1-0.3-0.3-0.4
		c-0.8-0.1-1.4-0.5-2-1c-0.4-0.3-0.8-0.8-1-1.3c-0.2-0.3-0.4-0.7-0.5-1.1c0-0.1-0.1-0.2-0.3-0.1c-0.2,0.1-0.3,0.2-0.6,0.2
		c-0.8,0.3-1.7,0.2-2.5,0.1c-0.2-0.1-0.3,0-0.5,0.2c-0.8,1.2-1.5,2.6-1.8,4c-0.2,0.9-0.3,1.8-0.5,2.6c-0.1,1-0.1,2,0,3
		C414.6,507.6,414.6,508,414.8,508.5"/>
	<path style="clip-path:url(#SVGID_00000182506148126976402170000012041185054059856061_);fill:#B21F6D;" d="M438.2,521
		c0.1,0.2,0.1,0.3-0.1,0.5c-0.1,0.1-0.3,0.1-0.3,0s-0.1-0.1-0.1-0.2c-0.5-1.3-1.2-2.3-2.2-3.3c-0.5-0.5-1-0.9-1.7-1.3
		c-0.3-0.2-0.3-0.5,0-0.6c0.1-0.1,0.3,0,0.4,0.1c1.3,0.9,2.4,2,3.3,3.4C437.7,520,438,520.5,438.2,521 M440.1,523.8
		c-0.3-1.3-0.9-2.5-1.6-3.7c-1-1.7-2.4-3.3-3.9-4.7c-1.3-1.2-2.7-2.3-4.3-3.3c-1.5-0.9-3-1.7-4.7-2.3c-0.6-0.2-1.2-0.4-1.8-0.5
		c-0.1,0-0.3,0-0.4,0.1c-0.3,0.5-0.6,1-0.9,1.4c-0.1,0.1,0,0.2,0.1,0.2c0.6,0.2,1.3,0.4,1.9,0.7c0.9,0.4,1.8,0.8,2.7,1.3
		c1.9,1.1,3.6,2.4,5.2,3.8c1.3,1.1,2.4,2.3,3.4,3.6c1.1,1.4,2,2.9,2.6,4.7c0.4,1,0.6,2.1,0.5,3.2c0,0.1-0.1,0.1,0.1,0.2
		c0.1,0,0.1-0.1,0.2-0.1c0.5-0.6,0.7-1.3,0.8-2.1C440.4,525.5,440.3,524.6,440.1,523.8"/>
	<path style="clip-path:url(#SVGID_00000182506148126976402170000012041185054059856061_);fill:#B21F6D;" d="M422.6,482.8
		c-0.2,0.1-0.3-0.1-0.4-0.2c-0.8-1.2-1.8-2.2-3.1-2.7c-0.2-0.1-0.3-0.1-0.6-0.2c-0.2-0.1-0.3-0.3-0.2-0.5c0.1-0.2,0.3-0.2,0.4-0.1
		c0.1,0,0.1,0.1,0.1,0.1c0.8,0.3,1.5,0.7,2.1,1.2c0.8,0.6,1.4,1.3,1.9,2.1C422.9,482.5,422.9,482.7,422.6,482.8 M415.1,478.9
		c0.6,0.2,1.3,0.5,1.8,0.8c0.9,0.6,1.7,1.3,2.4,2c0.9,1,1.6,2.1,2.2,3.3c0.3,0.6,0.6,1.2,0.8,1.8c0.2,0.6,0.4,1.3,0.6,1.9
		c0.1,0.8,0.3,1.5,0.3,2.2c0,0.1,0,0.2,0.1,0.2c0.1,0.1,0.1-0.1,0.2-0.1c0.8-0.7,1.7-1.3,2.6-1.9c0.1-0.1,0.2-0.2,0.2-0.3
		c-0.3-2.2-1-4.2-2.2-6.1c-0.7-1.1-1.5-2-2.5-2.9c-0.9-0.8-1.8-1.3-2.9-1.6c-1.1-0.3-2.2-0.2-3.2,0.5c-0.1,0-0.1,0.1-0.1,0.1
		C415.2,478.9,415.2,478.9,415.1,478.9"/>
	<path style="clip-path:url(#SVGID_00000182506148126976402170000012041185054059856061_);fill:#B21F6D;" d="M399.8,538.6
		c0.4-0.2,0.8-0.5,1.2-0.8c1-0.9,1.9-2,2.6-3.1c0.9-1.5,1.6-3.2,2.1-4.9c0.3-1.2,0.7-2.6,0.8-3.9c0.2-1.5,0.2-2.9,0-4.5
		c0-0.1-0.1-0.2-0.2-0.2c-0.7,0.1-1.5,0.1-2.2-0.1c-0.3,0-0.3,0-0.2,0.3c0.1,0.5,0.3,1,0.3,1.5c0.2,1.3,0.2,2.6,0.1,3.9
		c-0.1,1.4-0.4,2.7-0.7,4c-0.4,1.5-1,3.1-1.7,4.5C401.3,536.5,400.6,537.7,399.8,538.6"/>
	<path style="clip-path:url(#SVGID_00000182506148126976402170000012041185054059856061_);fill:#EC008C;" d="M442.4,487.2
		c-0.1-0.2,0.1-0.3,0.2-0.4c0.2-0.1,0.3,0.1,0.4,0.2c0.1,0.2-0.1,0.3-0.2,0.4C442.7,487.5,442.5,487.4,442.4,487.2 M444,488.4
		c-0.1-0.1-0.2-0.4-0.3-0.6c-0.1-0.3-0.3-0.6-0.5-1c-0.1-0.3-0.3-0.3-0.6-0.2c-0.6,0.1-0.8,0.7-1,1.2v0.2c0.3,0.3,0.4,0.6,0.6,1
		c0.1,0.1,0.1,0.2,0.3,0.2c0.1,0,0.2,0,0.4,0.1c0.4,0.1,0.7-0.1,1-0.3C444,488.8,444,488.6,444,488.4"/>
	<path style="clip-path:url(#SVGID_00000182506148126976402170000012041185054059856061_);fill:#F4F4F4;" d="M436.7,525.5
		c-0.7-2.4-2.1-4.3-4.2-5.7c-0.1,0-0.1-0.1-0.1-0.1c-0.2-0.1-0.3-0.1-0.5,0.1c-0.1,0.1-0.1,0.3,0.1,0.5c0.3,0.2,0.7,0.4,1,0.7
		c1.7,1.4,2.7,3.2,3.2,5.4c0,0.1,0,0.1,0.1,0.3c0.1,0.2,0.2,0.3,0.4,0.3c0.2-0.1,0.3-0.2,0.3-0.4
		C436.9,526.1,436.8,525.8,436.7,525.5"/>
	<path style="clip-path:url(#SVGID_00000182506148126976402170000012041185054059856061_);fill:#F4F4F4;" d="M427.1,515.5
		c0.3-0.1,0.4-0.4,0.2-0.6c-0.4-0.3-0.8-0.6-1.3-1c-0.1-0.1-0.3,0-0.4,0.1c-0.1,0.1-0.1,0.3,0.1,0.4c0.4,0.4,0.8,0.6,1.2,1H427.1z"
		/>
	<path style="clip-path:url(#SVGID_00000182506148126976402170000012041185054059856061_);fill:#F4F4F4;" d="M399.6,534
		c-0.1,0-0.2,0.1-0.3,0.3c-0.5,0.9-1,1.7-1.7,2.5c-0.8,0.8-1.5,1.6-2.5,2.3l-0.1,0.1c-0.2,0.1-0.3,0.3-0.1,0.5
		c0.1,0.2,0.3,0.2,0.6,0.1c0.5-0.3,0.9-0.7,1.4-1c1.3-1.1,2.3-2.4,3.1-4c0.1-0.1,0.1-0.1,0.1-0.2C400.1,534.2,399.9,534,399.6,534"
		/>
	<path style="clip-path:url(#SVGID_00000182506148126976402170000012041185054059856061_);fill:#F4F4F4;" d="M432.8,488
		c-1.4,0.3-2.6,0.9-3.8,1.8c-0.2,0.1-0.3,0.3-0.1,0.6c0.1,0.1,0.3,0.1,0.6,0c0.6-0.4,1.1-0.8,1.7-1c1-0.4,2-0.7,3-0.8
		c1.2-0.1,2.4-0.1,3.5,0.3c0.2,0.1,0.4,0.1,0.6,0.2c0.3,0.1,0.4,0.1,0.5-0.1s0-0.4-0.3-0.5c-0.8-0.3-1.7-0.5-2.6-0.5
		C434.8,487.7,433.7,487.7,432.8,488"/>
	<path style="clip-path:url(#SVGID_00000182506148126976402170000012041185054059856061_);fill:#F4F4F4;" d="M413.6,480.9
		c0.1,0.1,0.1,0.3,0.3,0.3c0.6,0.1,1.1,0.2,1.7,0.5c0.6,0.4,1.2,0.8,1.7,1.2c0.7,0.6,1.4,1.2,1.9,2.1c0.1,0.1,0.1,0.2,0.2,0.3
		c0.1,0.2,0.3,0.3,0.5,0.2c0.2-0.1,0.2-0.3,0.1-0.5c-0.2-0.5-0.5-1-0.9-1.3c-0.9-1-1.9-1.9-3.1-2.6c-0.6-0.3-1.3-0.6-2-0.6
		C413.7,480.4,413.5,480.6,413.6,480.9"/>
	<path style="clip-path:url(#SVGID_00000182506148126976402170000012041185054059856061_);fill:#F4F4F4;" d="M388.3,505.3
		c0.6-0.1,1.3-0.3,2-0.1c0.3,0.1,0.7,0.2,1,0.4c0.2,0.1,0.4,0.1,0.6-0.1c0.1-0.1,0.1-0.4-0.1-0.6c-0.6-0.4-1.3-0.6-2.1-0.6
		s-1.5,0.2-2.2,0.4c-0.2,0.1-0.3,0.2-0.3,0.4c0.1,0.2,0.2,0.3,0.4,0.2C387.8,505.4,388,505.4,388.3,505.3"/>
	<path style="clip-path:url(#SVGID_00000182506148126976402170000012041185054059856061_);fill:#F4F4F4;" d="M393.1,506.5
		c0.2-0.1,0.3-0.2,0.2-0.4c-0.1-0.2-0.2-0.3-0.4-0.2c-0.2,0.1-0.3,0.2-0.2,0.4C392.7,506.4,392.9,506.5,393.1,506.5"/>
	<path style="clip-path:url(#SVGID_00000182506148126976402170000012041185054059856061_);fill:#F4F4F4;" d="M408,512.1
		c0.6-0.3,1.4-0.5,2.2-0.7c1.5-0.3,3-0.3,4.5,0.1c0.3,0.1,0.4,0,0.6-0.2c0.1-0.2,0-0.4-0.3-0.5c-0.7-0.1-1.5-0.3-2.2-0.3
		c-1.7-0.1-3.3,0.2-4.8,0.8c-0.1,0-0.1,0.1-0.2,0.1c-0.2,0.1-0.3,0.3-0.2,0.5C407.5,512.2,407.7,512.2,408,512.1"/>
	<path style="clip-path:url(#SVGID_00000182506148126976402170000012041185054059856061_);fill:#F4F4F4;" d="M417.6,498
		c-0.1,0.1-0.2,0.1-0.3,0.2c-0.4,0.6-0.7,1.3-0.9,2.1c-0.1,0.3,0,0.4,0.2,0.5c0.2,0.1,0.4-0.1,0.4-0.3c0.2-0.7,0.5-1.3,0.8-2
		c0.1-0.1,0.1-0.3,0-0.4C417.8,498,417.6,498,417.6,498"/>
	<path style="clip-path:url(#SVGID_00000182506148126976402170000012041185054059856061_);fill:#F4F4F4;" d="M416.3,502.5
		c0.2-0.1,0.3-0.2,0.3-0.4c-0.1-0.2-0.2-0.3-0.4-0.3c-0.2,0.1-0.3,0.2-0.3,0.4C416,502.4,416.1,502.6,416.3,502.5"/>
	<path style="clip-path:url(#SVGID_00000182506148126976402170000012041185054059856061_);fill:#F4F4F4;" d="M438.2,521
		c-0.2-0.5-0.5-1-0.8-1.5c-0.8-1.4-2-2.5-3.3-3.4c-0.1-0.1-0.3-0.2-0.4-0.1c-0.3,0.1-0.3,0.5,0,0.6c0.6,0.4,1.1,0.8,1.7,1.3
		c1,1,1.7,2,2.2,3.3c0.1,0.1,0.1,0.2,0.1,0.2c0.1,0.1,0.3,0.1,0.4,0C438.3,521.4,438.3,521.2,438.2,521"/>
	<path style="clip-path:url(#SVGID_00000182506148126976402170000012041185054059856061_);fill:#F4F4F4;" d="M422.6,482.8
		c0.3-0.1,0.3-0.3,0.2-0.6c-0.5-0.8-1.1-1.5-1.9-2.1c-0.6-0.5-1.3-0.9-2.1-1.2c-0.1,0-0.1-0.1-0.1-0.1c-0.2-0.1-0.4,0-0.4,0.1
		c-0.1,0.2,0,0.4,0.2,0.5s0.3,0.1,0.6,0.2c1.3,0.6,2.4,1.5,3.1,2.7C422.2,482.7,422.4,482.8,422.6,482.8"/>
	<path style="clip-path:url(#SVGID_00000182506148126976402170000012041185054059856061_);fill:#F4F4F4;" d="M442.4,487.2
		c0.1,0.2,0.2,0.3,0.4,0.2c0.2-0.1,0.3-0.2,0.2-0.4c-0.1-0.2-0.2-0.3-0.4-0.2C442.5,486.8,442.4,487,442.4,487.2"/>
	
		<path style="clip-path:url(#SVGID_00000182506148126976402170000012041185054059856061_);fill:none;stroke:#0C2340;stroke-width:0.5;stroke-miterlimit:10;" d="
		M407.4,508.9c0,0-3-2.3-4.1-0.8c0,0-1.3,1.1,3.6,1.4c0,0,3.1-0.3,3.9-1.6c0,0,0.1-1.7-1.9-0.8c0,0-0.9,0.5-1.2,1.4L407.4,508.9z"/>
	
		<path style="clip-path:url(#SVGID_00000182506148126976402170000012041185054059856061_);fill:none;stroke:#0C2340;stroke-width:0.5;stroke-linecap:round;stroke-miterlimit:10;" d="
		M412.1,519.8c0,0-5.2-2.2-5-7.9l0.1-45.4"/>
	<path style="clip-path:url(#SVGID_00000182506148126976402170000012041185054059856061_);fill:#EE3124;" d="M391.1,438.5
		c-1.3-0.2-2.3,1.2-2.3,2.1c0,1.1,1.1,2.2,2.3,2.2c1.3-0.1,2.4-1.1,2.3-2.2C393.3,439.3,392.4,438.5,391.1,438.5 M403.9,431.4
		c0-0.4,0-1-0.1-1.5c-0.7-2.9-3.2-4.2-5.5-4c-3.9,0.4-6.6,3.8-6.3,7.6c0.2,3.1,2.5,5,5.3,4.9C401.2,438.3,404.1,434.7,403.9,431.4
		 M405.3,466.7c-0.6-0.2-1.2,0-1.8-0.1c0.3-0.6,0.5-1,0.7-1.5c0.1-0.3,0.1-0.5-0.3-0.6c-6.1-1-10.2-4.8-13.3-9.8
		c-2.8-4.3-4.5-9.1-4.3-14.3c0.3-8.1,4.2-14,11.6-17.3c11.8-5.2,24.8,2,27,14.6c0.7,4.2-0.1,8.3-1.6,12.2c-1.8,4.6-4.6,8.5-8.6,11.5
		c-2.1,1.5-4.4,2.6-6.9,3c-0.5,0.1-0.6,0.3-0.4,0.7c0.3,0.4,0.5,0.9,0.7,1.4c-0.6,0.2-1.2,0-1.7,0.1
		C406.2,466.6,405.7,466.6,405.3,466.7"/>
</g>
<text transform="matrix(1 0 0 1 211.7514 490.1664)" class="st13 st14">Hamilton</text>
<text transform="matrix(1 0 0 1 1878.2208 1141.3551)" class="st13 st15">Neville</text>
<text transform="matrix(1 0 0 1 1874.0713 1478.5343)" class="st13 st15">Beaufort</text>
<text transform="matrix(1 0 0 1 1864.0734 1320.3618)" class="st13 st15">Mortimer</text>
<text transform="matrix(1 0 0 1 540.54 889.1664)" class="st16 st13 st17">RECEPTION</text>
<text transform="matrix(6.123234e-17 -1 1 6.123234e-17 163.9197 1039.9546)" class="st16 st13 st17">ENTRANCE</text>
<polygon points="357.3,1085.7 357.9,1060.9 346.7,1060.7 346.7,1085.7 "/>
<path d="M307.5,1111"/>
<polyline points="202.8,1050 118.4,1050 118.4,1068.7 185.6,1069 185.8,1093.5 198.9,1092.9 199.2,1060.7 "/>
<text transform="matrix(1 0 0 1 248.714 894.7291)" class="st16 st13 st17">LOBBY</text>
<text transform="matrix(1 0 0 1 546.4708 678.7291)"><tspan x="0" y="0" class="st16 st13 st17">GUEST </tspan><tspan x="10.2" y="39.6" class="st16 st13 st17">LIFTS</tspan></text>
<text transform="matrix(1 0 0 1 205.1344 254.6846)"><tspan x="0" y="0" class="st13 st15">Vendor </tspan><tspan x="31.5" y="60" class="st13 st15">Area</tspan></text>
<text transform="matrix(1 0 0 1 660.4088 334.8023)" class="st13 st18">Royal Suite</text>
<g>
	<g>
		<circle class="st19" cx="1289.1" cy="886" r="54.9"/>
		<path class="st2" d="M1296.4,869.5h-7.3h-7.3c-1.8,0-3.7,1.8-3.7,3.7l-5.5,20.1h5.5l3.7-16.5v7.3l-3.7,16.5h3.7v20.1h5.5v-20.1
			h3.7v20.1h5.5v-20.1h3.7l-3.7-16.5v-7.3l3.7,16.5h5.5l-5.5-20.1C1300,871.4,1298.2,869.5,1296.4,869.5z"/>
		<path class="st2" d="M1296.4,862.2c0,1.8-1.8,3.7-3.7,3.7h-7.3c-1.8,0-3.7-1.8-3.7-3.7v-7.3c0-1.8,1.8-3.7,3.7-3.7h7.3
			c1.8,0,3.7,1.8,3.7,3.7V862.2z"/>
	</g>
</g>
<g>
	<g>
		<circle class="st20" cx="1388.9" cy="622.8" r="54.9"/>
		<path class="st2" d="M1399.9,606.3h-11h-11c-1.8,0-3.7,1.8-3.7,3.7l-1.8,20.1h5.5l1.8-16.5l1.8,43.9h5.5l1.8-23.8l1.8,23.8h5.5
			l1.8-43.9l1.8,16.5h5.5l-1.8-20.1C1403.6,608.1,1401.8,606.3,1399.9,606.3z"/>
		<path class="st2" d="M1396.3,599c0,1.8-1.8,3.7-3.7,3.7h-7.3c-1.8,0-3.7-1.8-3.7-3.7v-7.3c0-1.8,1.8-3.7,3.7-3.7h7.3
			c1.8,0,3.7,1.8,3.7,3.7V599z"/>
	</g>
</g>
<g>
	<g>
		<circle class="st21" cx="1148.1" cy="886" r="54.9"/>
		<polygon class="st2" points="1178.6,906.1 1174,911 1163.1,894.2 1149.9,894.2 1149.9,886.7 1164.5,886.7 1164.5,879.1 
			1149.9,879.1 1149.9,864 1142.6,864 1142.6,901.7 1159.2,901.7 1172.7,922.6 1182.8,912.4 		"/>
		<circle class="st2" cx="1146.2" cy="851.2" r="7.3"/>
		<path class="st2" d="M1143.2,916.9c-8.3,0-15.1-6.8-15.1-15.1c0-5.6,3-10.4,7.5-13.1v-8.3c-8.8,3.1-15.1,11.5-15.1,21.3
			c0,12.5,10.2,22.6,22.7,22.6c7.1,0,13.5-3.3,17.6-8.4l-4.5-6.7C1153.8,913.8,1148.9,916.9,1143.2,916.9z"/>
	</g>
</g>
</svg>
