<?xml version="1.0" encoding="utf-8"?>
<!-- Generator: Adobe Illustrator 27.9.2, SVG Export Plug-In . SVG Version: 6.00 Build 0)  -->
<svg version="1.1" id="Layer_1" xmlns="http://www.w3.org/2000/svg" xmlns:xlink="http://www.w3.org/1999/xlink" x="0px" y="0px"
	 viewBox="0 0 500 500" style="enable-background:new 0 0 500 500;" xml:space="preserve">
<style type="text/css">
	.st0{clip-path:url(#SVGID_00000154393361626234812510000012788377119060927675_);fill:#5D4796;}
</style>
<g>
	<defs>
		<rect id="SVGID_1_" x="39.9" y="62.2" width="417.2" height="377.4"/>
	</defs>
	<clipPath id="SVGID_00000103957243991529433020000013054510278661743269_">
		<use xlink:href="#SVGID_1_"  style="overflow:visible;"/>
	</clipPath>
	<path style="clip-path:url(#SVGID_00000103957243991529433020000013054510278661743269_);fill:#5D4796;" d="M248.4,251.4
		c-3.9-2.7-12.5-20.5-14.8-53.8c-3.3-46.4,26.8-87.3-15.4-122.2C172.4,37.5,85.9,85.6,129.8,164
		C165.2,227.6,248.4,251.4,248.4,251.4"/>
	<path style="clip-path:url(#SVGID_00000103957243991529433020000013054510278661743269_);fill:#5D4796;" d="M248.4,251.4
		c0.4-4.6,11.7-21.1,39.5-39.7c39.1-26.2,89.9-21.1,99.2-74.7c10.2-58.2-75.3-107.8-121.9-31C227.4,168.5,248.4,251.4,248.4,251.4"
		/>
	<path style="clip-path:url(#SVGID_00000103957243991529433020000013054510278661743269_);fill:#5D4796;" d="M248.6,251.4
		c4-2.1,24.3-0.8,54.5,13.7c42.6,20.2,63.8,66,115.6,47c55.9-20.7,56-118.6-34.5-119.6C310.5,191.7,248.6,251.4,248.6,251.4"/>
	<path style="clip-path:url(#SVGID_00000103957243991529433020000013054510278661743269_);fill:#5D4796;" d="M248.4,251.4
		c4,2.5,12.9,20.3,15.6,53.4c3.9,46.6-25.6,87.6,16.9,122c46.4,37.3,132.1-11.6,87.4-89.5C332,274,248.4,251.4,248.4,251.4"/>
	<path style="clip-path:url(#SVGID_00000103957243991529433020000013054510278661743269_);fill:#5D4796;" d="M248.4,251.4
		c-0.2,4.6-11.4,21.3-38.9,40.3c-38.7,26.4-89.8,22.1-98.2,75.8c-9.2,58.2,76.7,106.6,122.3,29.3
		C270.6,333.9,248.4,251.4,248.4,251.4"/>
	<path style="clip-path:url(#SVGID_00000103957243991529433020000013054510278661743269_);fill:#5D4796;" d="M248.4,251.4
		c-4,2.1-24.3,1-54.7-13.1c-43-19.6-64.5-65.2-116-45.4c-55.7,21.3-54.9,119.2,35.8,119C187.4,311.9,248.4,251.4,248.4,251.4"/>
</g>
</svg>
